<svg width="383" height="210" viewBox="0 0 383 210" fill="none" xmlns="http://www.w3.org/2000/svg">
<path d="M114.5 34.5889V40.5889H108.5V34.5889H114.5ZM117.5 31.5889H105.5V43.5889H117.5V31.5889ZM114.5 50.5889V56.5889H108.5V50.5889H114.5ZM117.5 47.5889H105.5V59.5889H117.5V47.5889ZM130.5 34.5889V40.5889H124.5V34.5889H130.5ZM133.5 31.5889H121.5V43.5889H133.5V31.5889ZM121.5 47.5889H124.5V50.5889H121.5V47.5889ZM124.5 50.5889H127.5V53.5889H124.5V50.5889ZM127.5 47.5889H130.5V50.5889H127.5V47.5889ZM121.5 53.5889H124.5V56.5889H121.5V53.5889ZM124.5 56.5889H127.5V59.5889H124.5V56.5889ZM127.5 53.5889H130.5V56.5889H127.5V53.5889ZM130.5 50.5889H133.5V53.5889H130.5V50.5889ZM130.5 56.5889H133.5V59.5889H130.5V56.5889ZM139.5 35.5889H135.5V29.5889H129.5V25.5889H139.5V35.5889ZM139.5 65.5889V55.5889H135.5V61.5889H129.5V65.5889H139.5ZM99.4998 65.5889H109.5V61.5889H103.5V55.5889H99.4998V65.5889ZM99.4998 25.5889V35.5889H103.5V29.5889H109.5V25.5889H99.4998Z" fill="#00742E"/>
<path d="M173.02 61.0689C171.154 61.0689 169.42 60.7222 167.82 60.0289C166.22 59.3089 164.86 58.3355 163.74 57.1089C162.62 55.8822 161.794 54.4689 161.26 52.8689L165.26 51.1889C165.98 53.0289 167.034 54.4422 168.42 55.4289C169.807 56.4155 171.407 56.9089 173.22 56.9089C174.287 56.9089 175.22 56.7489 176.02 56.4289C176.82 56.0822 177.434 55.6022 177.86 54.9889C178.314 54.3755 178.54 53.6689 178.54 52.8689C178.54 51.7755 178.234 50.9089 177.62 50.2689C177.007 49.6289 176.1 49.1222 174.9 48.7489L169.3 46.9889C167.06 46.2955 165.354 45.2422 164.18 43.8289C163.007 42.3889 162.42 40.7089 162.42 38.7889C162.42 37.1089 162.834 35.6422 163.66 34.3889C164.487 33.1089 165.62 32.1089 167.06 31.3889C168.527 30.6689 170.194 30.3089 172.06 30.3089C173.847 30.3089 175.474 30.6289 176.94 31.2689C178.407 31.8822 179.66 32.7355 180.7 33.8289C181.767 34.9222 182.54 36.1889 183.02 37.6289L179.1 39.3489C178.514 37.7755 177.594 36.5622 176.34 35.7089C175.114 34.8555 173.687 34.4289 172.06 34.4289C171.074 34.4289 170.207 34.6022 169.46 34.9489C168.714 35.2689 168.127 35.7489 167.7 36.3889C167.3 37.0022 167.1 37.7222 167.1 38.5489C167.1 39.5089 167.407 40.3622 168.02 41.1089C168.634 41.8555 169.567 42.4155 170.82 42.7889L176.02 44.4289C178.394 45.1489 180.18 46.1889 181.38 47.5489C182.58 48.8822 183.18 50.5489 183.18 52.5489C183.18 54.2022 182.74 55.6689 181.86 56.9489C181.007 58.2289 179.82 59.2422 178.3 59.9889C176.78 60.7089 175.02 61.0689 173.02 61.0689ZM186.079 60.5889V56.8689L198.799 41.4689L199.519 43.0289H186.679V38.9489H203.519V42.6289L190.959 58.0689L190.239 56.4689H203.559V60.5889H186.079ZM214.587 61.0689C212.96 61.0689 211.533 60.7089 210.307 59.9889C209.08 59.2422 208.12 58.2155 207.427 56.9089C206.76 55.5755 206.427 54.0422 206.427 52.3089V38.9489H210.947V51.9089C210.947 52.8955 211.147 53.7622 211.547 54.5089C211.947 55.2555 212.507 55.8422 213.227 56.2689C213.947 56.6689 214.773 56.8689 215.707 56.8689C216.667 56.8689 217.507 56.6555 218.227 56.2289C218.947 55.8022 219.507 55.2022 219.907 54.4289C220.333 53.6555 220.547 52.7489 220.547 51.7089V38.9489H225.027V60.5889H220.747V56.3489L221.227 56.9089C220.72 58.2422 219.88 59.2689 218.707 59.9889C217.533 60.7089 216.16 61.0689 214.587 61.0689ZM230.304 60.5889V30.3089H234.824V50.5889L233.064 50.1489L243.904 38.9489H249.544L241.384 47.6289L249.904 60.5889H244.704L237.104 49.1089L239.784 48.7489L233.384 55.5489L234.824 52.5489V60.5889H230.304ZM259.48 61.0689C258.013 61.0689 256.72 60.8155 255.6 60.3089C254.506 59.7755 253.653 59.0555 253.04 58.1489C252.426 57.2155 252.12 56.1222 252.12 54.8689C252.12 53.6955 252.373 52.6422 252.88 51.7089C253.413 50.7755 254.226 49.9889 255.32 49.3489C256.413 48.7089 257.786 48.2555 259.44 47.9889L266.96 46.7489V50.3089L260.32 51.4689C259.12 51.6822 258.24 52.0689 257.68 52.6289C257.12 53.1622 256.84 53.8555 256.84 54.7089C256.84 55.5355 257.146 56.2155 257.76 56.7489C258.4 57.2555 259.213 57.5089 260.2 57.5089C261.426 57.5089 262.493 57.2422 263.4 56.7089C264.333 56.1755 265.053 55.4689 265.56 54.5889C266.066 53.6822 266.32 52.6822 266.32 51.5889V46.0289C266.32 44.9622 265.92 44.0955 265.12 43.4289C264.346 42.7355 263.306 42.3889 262 42.3889C260.8 42.3889 259.746 42.7089 258.84 43.3489C257.96 43.9622 257.306 44.7622 256.88 45.7489L253.12 43.8689C253.52 42.8022 254.173 41.8689 255.08 41.0689C255.986 40.2422 257.04 39.6022 258.24 39.1489C259.466 38.6955 260.76 38.4689 262.12 38.4689C263.826 38.4689 265.333 38.7889 266.64 39.4289C267.973 40.0689 269 40.9622 269.72 42.1089C270.466 43.2289 270.84 44.5355 270.84 46.0289V60.5889H266.52V56.6689L267.44 56.7889C266.933 57.6689 266.28 58.4289 265.48 59.0689C264.706 59.7089 263.813 60.2022 262.8 60.5489C261.813 60.8955 260.706 61.0689 259.48 61.0689ZM272.805 69.4289C272.511 69.4289 272.191 69.4022 271.845 69.3489C271.471 69.3222 271.165 69.2822 270.925 69.2289V65.3089C271.431 65.3889 271.938 65.4289 272.445 65.4289C273.565 65.4289 274.458 65.1355 275.125 64.5489C275.791 63.9889 276.125 63.1355 276.125 61.9889V38.9489H280.645V61.9889C280.645 63.5622 280.311 64.9089 279.645 66.0289C278.978 67.1489 278.058 67.9889 276.885 68.5489C275.711 69.1355 274.351 69.4289 272.805 69.4289ZM276.125 35.9889V30.7889H280.645V35.9889H276.125Z" fill="#00742E"/>
<rect x="1.5" y="2.08887" width="380" height="87" rx="43.5" stroke="#2ECA3E" stroke-width="3"/>
<path d="M9.1 142.901C7.73067 142.901 6.526 142.615 5.486 142.043C4.446 141.471 3.64 140.691 3.068 139.703C2.496 138.698 2.21 137.554 2.21 136.271V123.219H4.29V136.271C4.29 137.207 4.48933 138.03 4.888 138.741C5.304 139.434 5.86733 139.98 6.578 140.379C7.306 140.76 8.14667 140.951 9.1 140.951C10.0533 140.951 10.8853 140.76 11.596 140.379C12.324 139.98 12.8873 139.434 13.286 138.741C13.702 138.03 13.91 137.207 13.91 136.271V123.219H15.99V136.271C15.99 137.554 15.704 138.698 15.132 139.703C14.56 140.691 13.754 141.471 12.714 142.043C11.6913 142.615 10.4867 142.901 9.1 142.901ZM26.5771 142.901C25.2077 142.901 24.0031 142.58 22.9631 141.939C21.9231 141.298 21.1084 140.431 20.5191 139.339C19.9297 138.23 19.6351 136.982 19.6351 135.595C19.6351 134.208 19.9297 132.969 20.5191 131.877C21.1084 130.785 21.9231 129.927 22.9631 129.303C24.0031 128.662 25.2077 128.341 26.5771 128.341C27.4437 128.341 28.2584 128.497 29.0211 128.809C29.7837 129.121 30.4597 129.546 31.0491 130.083C31.6384 130.603 32.0804 131.21 32.3751 131.903L30.6071 132.813C30.2604 132.068 29.7317 131.461 29.0211 130.993C28.3104 130.525 27.4957 130.291 26.5771 130.291C25.6584 130.291 24.8264 130.525 24.0811 130.993C23.3531 131.444 22.7724 132.076 22.3391 132.891C21.9231 133.688 21.7151 134.598 21.7151 135.621C21.7151 136.626 21.9231 137.536 22.3391 138.351C22.7724 139.148 23.3531 139.781 24.0811 140.249C24.8264 140.717 25.6584 140.951 26.5771 140.951C27.4957 140.951 28.3017 140.717 28.9951 140.249C29.7057 139.781 30.2431 139.157 30.6071 138.377L32.3751 139.339C32.0804 140.015 31.6384 140.622 31.0491 141.159C30.4597 141.696 29.7837 142.121 29.0211 142.433C28.2584 142.745 27.4437 142.901 26.5771 142.901ZM34.3669 142.589V140.899L42.7649 129.849L43.1289 130.603H34.8089V128.653H44.8449V130.343L36.4729 141.393L36.1089 140.639H44.8969V142.589H34.3669ZM47.4766 142.589V128.653H49.4266V131.357L48.9846 131.253C49.3313 130.352 49.8946 129.641 50.6746 129.121C51.4719 128.601 52.3906 128.341 53.4306 128.341C54.4186 128.341 55.3026 128.566 56.0826 129.017C56.8799 129.468 57.5039 130.092 57.9546 130.889C58.4226 131.669 58.6566 132.553 58.6566 133.541V142.589H56.7066V134.295C56.7066 133.446 56.5506 132.726 56.2386 132.137C55.9439 131.548 55.5193 131.097 54.9646 130.785C54.4273 130.456 53.8033 130.291 53.0926 130.291C52.3819 130.291 51.7493 130.456 51.1946 130.785C50.6399 131.097 50.2066 131.556 49.8946 132.163C49.5826 132.752 49.4266 133.463 49.4266 134.295V142.589H47.4766ZM62.3809 142.589V128.653H64.3309V142.589H62.3809ZM62.3809 126.079V123.219H64.3309V126.079H62.3809ZM74.8483 142.901C73.531 142.901 72.335 142.589 71.2603 141.965C70.1856 141.324 69.3276 140.457 68.6863 139.365C68.0623 138.256 67.7503 136.999 67.7503 135.595C67.7503 134.208 68.0623 132.969 68.6863 131.877C69.3103 130.785 70.151 129.927 71.2083 129.303C72.283 128.662 73.4963 128.341 74.8483 128.341C76.2003 128.341 77.405 128.653 78.4623 129.277C79.537 129.901 80.3776 130.759 80.9843 131.851C81.6083 132.943 81.9203 134.191 81.9203 135.595C81.9203 137.016 81.5996 138.282 80.9583 139.391C80.317 140.483 79.459 141.341 78.3843 141.965C77.327 142.589 76.1483 142.901 74.8483 142.901ZM74.8483 140.951C75.7843 140.951 76.625 140.717 77.3703 140.249C78.133 139.781 78.731 139.14 79.1643 138.325C79.615 137.51 79.8403 136.6 79.8403 135.595C79.8403 134.59 79.615 133.688 79.1643 132.891C78.731 132.094 78.133 131.461 77.3703 130.993C76.625 130.525 75.7843 130.291 74.8483 130.291C73.9123 130.291 73.063 130.525 72.3003 130.993C71.555 131.461 70.957 132.094 70.5063 132.891C70.0556 133.688 69.8303 134.59 69.8303 135.595C69.8303 136.6 70.0556 137.51 70.5063 138.325C70.957 139.14 71.555 139.781 72.3003 140.249C73.063 140.717 73.9123 140.951 74.8483 140.951ZM88.1735 142.589L83.3895 128.653H85.5995L89.5515 140.847H88.7715L92.4895 128.653H94.4395L98.1575 140.847H97.3775L101.356 128.653H103.54L98.7555 142.589H96.8055L93.1915 130.655H93.7375L90.1235 142.589H88.1735ZM105.824 142.589V128.653H107.774V142.589H105.824ZM105.824 126.079V123.219H107.774V126.079H105.824ZM118.11 142.901C116.81 142.901 115.631 142.589 114.574 141.965C113.534 141.324 112.71 140.448 112.104 139.339C111.497 138.23 111.194 136.973 111.194 135.569C111.194 134.165 111.488 132.926 112.078 131.851C112.667 130.759 113.464 129.901 114.47 129.277C115.492 128.653 116.636 128.341 117.902 128.341C118.907 128.341 119.8 128.532 120.58 128.913C121.377 129.277 122.053 129.78 122.608 130.421C123.162 131.045 123.587 131.756 123.882 132.553C124.176 133.333 124.324 134.139 124.324 134.971C124.324 135.144 124.315 135.344 124.298 135.569C124.28 135.777 124.254 135.994 124.22 136.219H112.442V134.399H123.102L122.166 135.179C122.322 134.226 122.209 133.376 121.828 132.631C121.464 131.868 120.935 131.27 120.242 130.837C119.548 130.386 118.768 130.161 117.902 130.161C117.035 130.161 116.229 130.386 115.484 130.837C114.756 131.288 114.184 131.92 113.768 132.735C113.352 133.532 113.187 134.486 113.274 135.595C113.187 136.704 113.36 137.675 113.794 138.507C114.244 139.322 114.851 139.954 115.614 140.405C116.394 140.856 117.226 141.081 118.11 141.081C119.132 141.081 119.99 140.838 120.684 140.353C121.377 139.868 121.94 139.261 122.374 138.533L124.038 139.417C123.76 140.041 123.336 140.622 122.764 141.159C122.192 141.679 121.507 142.104 120.71 142.433C119.93 142.745 119.063 142.901 118.11 142.901ZM135.572 142.589L130.788 128.653H132.998L136.95 140.847H136.17L139.888 128.653H141.838L145.556 140.847H144.776L148.754 128.653H150.938L146.154 142.589H144.204L140.59 130.655H141.136L137.522 142.589H135.572ZM164.569 148.309C163.616 148.309 162.732 148.162 161.917 147.867C161.12 147.572 160.426 147.165 159.837 146.645C159.265 146.142 158.823 145.553 158.511 144.877L160.305 143.915C160.582 144.574 161.076 145.146 161.787 145.631C162.498 146.116 163.408 146.359 164.517 146.359C165.366 146.359 166.146 146.194 166.857 145.865C167.568 145.536 168.14 145.05 168.573 144.409C169.006 143.768 169.223 142.979 169.223 142.043V138.949L169.535 139.235C169.05 140.24 168.33 141.02 167.377 141.575C166.424 142.112 165.384 142.381 164.257 142.381C162.957 142.381 161.787 142.069 160.747 141.445C159.707 140.821 158.884 139.98 158.277 138.923C157.688 137.848 157.393 136.661 157.393 135.361C157.393 134.044 157.688 132.856 158.277 131.799C158.884 130.742 159.698 129.901 160.721 129.277C161.761 128.653 162.94 128.341 164.257 128.341C165.384 128.341 166.406 128.601 167.325 129.121C168.261 129.641 168.998 130.343 169.535 131.227L169.223 131.773V128.653H171.173V142.043C171.173 143.239 170.887 144.305 170.315 145.241C169.76 146.194 168.98 146.94 167.975 147.477C166.987 148.032 165.852 148.309 164.569 148.309ZM164.361 140.431C165.262 140.431 166.077 140.206 166.805 139.755C167.533 139.287 168.114 138.672 168.547 137.909C168.998 137.129 169.223 136.28 169.223 135.361C169.223 134.442 168.998 133.602 168.547 132.839C168.114 132.059 167.533 131.444 166.805 130.993C166.077 130.525 165.262 130.291 164.361 130.291C163.442 130.291 162.61 130.525 161.865 130.993C161.12 131.444 160.53 132.05 160.097 132.813C159.681 133.576 159.473 134.425 159.473 135.361C159.473 136.28 159.681 137.129 160.097 137.909C160.53 138.672 161.111 139.287 161.839 139.755C162.584 140.206 163.425 140.431 164.361 140.431ZM175.18 142.589V128.653H177.13V130.941L176.87 130.603C177.199 129.944 177.693 129.424 178.352 129.043C179.028 128.662 179.842 128.471 180.796 128.471H181.68V130.421H180.458C179.452 130.421 178.646 130.733 178.04 131.357C177.433 131.981 177.13 132.865 177.13 134.009V142.589H175.18ZM188.905 142.901C187.934 142.901 187.05 142.676 186.253 142.225C185.456 141.757 184.823 141.116 184.355 140.301C183.904 139.469 183.679 138.516 183.679 137.441V128.653H185.629V137.207C185.629 137.952 185.776 138.611 186.071 139.183C186.383 139.738 186.808 140.171 187.345 140.483C187.9 140.795 188.532 140.951 189.243 140.951C189.954 140.951 190.586 140.795 191.141 140.483C191.696 140.154 192.129 139.694 192.441 139.105C192.753 138.498 192.909 137.779 192.909 136.947V128.653H194.859V142.589H192.909V139.885L193.351 139.989C193.022 140.89 192.458 141.601 191.661 142.121C190.864 142.641 189.945 142.901 188.905 142.901ZM198.869 147.789V128.653H200.819V131.773L200.507 131.227C201.062 130.343 201.799 129.641 202.717 129.121C203.653 128.601 204.719 128.341 205.915 128.341C207.233 128.341 208.403 128.662 209.425 129.303C210.465 129.927 211.28 130.785 211.869 131.877C212.476 132.969 212.779 134.217 212.779 135.621C212.779 137.008 212.476 138.256 211.869 139.365C211.28 140.457 210.465 141.324 209.425 141.965C208.403 142.589 207.233 142.901 205.915 142.901C204.719 142.901 203.636 142.632 202.665 142.095C201.712 141.54 200.993 140.76 200.507 139.755L200.819 139.469V147.789H198.869ZM205.811 140.951C206.747 140.951 207.579 140.717 208.307 140.249C209.053 139.781 209.633 139.148 210.049 138.351C210.483 137.536 210.699 136.626 210.699 135.621C210.699 134.598 210.483 133.688 210.049 132.891C209.633 132.094 209.053 131.461 208.307 130.993C207.579 130.525 206.747 130.291 205.811 130.291C204.875 130.291 204.026 130.525 203.263 130.993C202.518 131.461 201.92 132.102 201.469 132.917C201.036 133.714 200.819 134.616 200.819 135.621C200.819 136.626 201.036 137.536 201.469 138.351C201.92 139.148 202.518 139.781 203.263 140.249C204.026 140.717 204.875 140.951 205.811 140.951ZM220.241 142.901C219.357 142.901 218.568 142.736 217.875 142.407C217.182 142.06 216.636 141.592 216.237 141.003C215.838 140.414 215.639 139.738 215.639 138.975C215.639 138.247 215.795 137.588 216.107 136.999C216.419 136.392 216.904 135.881 217.563 135.465C218.222 135.049 219.062 134.754 220.085 134.581L225.545 133.671V135.439L220.553 136.271C219.548 136.444 218.82 136.765 218.369 137.233C217.936 137.701 217.719 138.256 217.719 138.897C217.719 139.521 217.962 140.05 218.447 140.483C218.95 140.916 219.591 141.133 220.371 141.133C221.324 141.133 222.156 140.934 222.867 140.535C223.578 140.119 224.132 139.564 224.531 138.871C224.93 138.178 225.129 137.406 225.129 136.557V133.021C225.129 132.189 224.826 131.513 224.219 130.993C223.612 130.473 222.824 130.213 221.853 130.213C221.004 130.213 220.258 130.43 219.617 130.863C218.976 131.279 218.499 131.825 218.187 132.501L216.419 131.539C216.679 130.95 217.086 130.412 217.641 129.927C218.213 129.442 218.863 129.06 219.591 128.783C220.319 128.488 221.073 128.341 221.853 128.341C222.876 128.341 223.777 128.54 224.557 128.939C225.354 129.338 225.97 129.892 226.403 130.603C226.854 131.296 227.079 132.102 227.079 133.021V142.589H225.129V139.807L225.415 140.093C225.172 140.613 224.791 141.09 224.271 141.523C223.768 141.939 223.17 142.277 222.477 142.537C221.801 142.78 221.056 142.901 220.241 142.901ZM237.46 142.901C236.091 142.901 234.886 142.58 233.846 141.939C232.806 141.298 231.991 140.431 231.402 139.339C230.813 138.23 230.518 136.982 230.518 135.595C230.518 134.208 230.813 132.969 231.402 131.877C231.991 130.785 232.806 129.927 233.846 129.303C234.886 128.662 236.091 128.341 237.46 128.341C238.327 128.341 239.141 128.497 239.904 128.809C240.667 129.121 241.343 129.546 241.932 130.083C242.521 130.603 242.963 131.21 243.258 131.903L241.49 132.813C241.143 132.068 240.615 131.461 239.904 130.993C239.193 130.525 238.379 130.291 237.46 130.291C236.541 130.291 235.709 130.525 234.964 130.993C234.236 131.444 233.655 132.076 233.222 132.891C232.806 133.688 232.598 134.598 232.598 135.621C232.598 136.626 232.806 137.536 233.222 138.351C233.655 139.148 234.236 139.781 234.964 140.249C235.709 140.717 236.541 140.951 237.46 140.951C238.379 140.951 239.185 140.717 239.878 140.249C240.589 139.781 241.126 139.157 241.49 138.377L243.258 139.339C242.963 140.015 242.521 140.622 241.932 141.159C241.343 141.696 240.667 142.121 239.904 142.433C239.141 142.745 238.327 142.901 237.46 142.901ZM246.68 142.589V122.907H248.63V131.357L248.188 131.253C248.534 130.352 249.098 129.641 249.878 129.121C250.675 128.601 251.594 128.341 252.634 128.341C253.622 128.341 254.506 128.566 255.286 129.017C256.083 129.468 256.707 130.092 257.158 130.889C257.626 131.669 257.86 132.553 257.86 133.541V142.589H255.91V134.295C255.91 133.446 255.754 132.726 255.442 132.137C255.13 131.548 254.696 131.097 254.142 130.785C253.604 130.456 252.989 130.291 252.296 130.291C251.602 130.291 250.978 130.456 250.424 130.785C249.869 131.097 249.427 131.556 249.098 132.163C248.786 132.752 248.63 133.463 248.63 134.295V142.589H246.68ZM266.326 147.789V128.653H268.276V131.773L267.964 131.227C268.519 130.343 269.256 129.641 270.174 129.121C271.11 128.601 272.176 128.341 273.372 128.341C274.69 128.341 275.86 128.662 276.882 129.303C277.922 129.927 278.737 130.785 279.326 131.877C279.933 132.969 280.236 134.217 280.236 135.621C280.236 137.008 279.933 138.256 279.326 139.365C278.737 140.457 277.922 141.324 276.882 141.965C275.86 142.589 274.69 142.901 273.372 142.901C272.176 142.901 271.093 142.632 270.122 142.095C269.169 141.54 268.45 140.76 267.964 139.755L268.276 139.469V147.789H266.326ZM273.268 140.951C274.204 140.951 275.036 140.717 275.764 140.249C276.51 139.781 277.09 139.148 277.506 138.351C277.94 137.536 278.156 136.626 278.156 135.621C278.156 134.598 277.94 133.688 277.506 132.891C277.09 132.094 276.51 131.461 275.764 130.993C275.036 130.525 274.204 130.291 273.268 130.291C272.332 130.291 271.483 130.525 270.72 130.993C269.975 131.461 269.377 132.102 268.926 132.917C268.493 133.714 268.276 134.616 268.276 135.621C268.276 136.626 268.493 137.536 268.926 138.351C269.377 139.148 269.975 139.781 270.72 140.249C271.483 140.717 272.332 140.951 273.268 140.951ZM290.194 142.901C288.877 142.901 287.681 142.589 286.606 141.965C285.531 141.324 284.673 140.457 284.032 139.365C283.408 138.256 283.096 136.999 283.096 135.595C283.096 134.208 283.408 132.969 284.032 131.877C284.656 130.785 285.497 129.927 286.554 129.303C287.629 128.662 288.842 128.341 290.194 128.341C291.546 128.341 292.751 128.653 293.808 129.277C294.883 129.901 295.723 130.759 296.33 131.851C296.954 132.943 297.266 134.191 297.266 135.595C297.266 137.016 296.945 138.282 296.304 139.391C295.663 140.483 294.805 141.341 293.73 141.965C292.673 142.589 291.494 142.901 290.194 142.901ZM290.194 140.951C291.13 140.951 291.971 140.717 292.716 140.249C293.479 139.781 294.077 139.14 294.51 138.325C294.961 137.51 295.186 136.6 295.186 135.595C295.186 134.59 294.961 133.688 294.51 132.891C294.077 132.094 293.479 131.461 292.716 130.993C291.971 130.525 291.13 130.291 290.194 130.291C289.258 130.291 288.409 130.525 287.646 130.993C286.901 131.461 286.303 132.094 285.852 132.891C285.401 133.688 285.176 134.59 285.176 135.595C285.176 136.6 285.401 137.51 285.852 138.325C286.303 139.14 286.901 139.781 287.646 140.249C288.409 140.717 289.258 140.951 290.194 140.951ZM300.705 142.589V128.653H302.655V130.941L302.395 130.603C302.724 129.944 303.218 129.424 303.877 129.043C304.553 128.662 305.368 128.471 306.321 128.471H307.205V130.421H305.983C304.978 130.421 304.172 130.733 303.565 131.357C302.958 131.981 302.655 132.865 302.655 134.009V142.589H300.705ZM314.43 142.901C313.46 142.901 312.576 142.676 311.778 142.225C310.981 141.757 310.348 141.116 309.88 140.301C309.43 139.469 309.204 138.516 309.204 137.441V128.653H311.154V137.207C311.154 137.952 311.302 138.611 311.596 139.183C311.908 139.738 312.333 140.171 312.87 140.483C313.425 140.795 314.058 140.951 314.768 140.951C315.479 140.951 316.112 140.795 316.666 140.483C317.221 140.154 317.654 139.694 317.966 139.105C318.278 138.498 318.434 137.779 318.434 136.947V128.653H320.384V142.589H318.434V139.885L318.876 139.989C318.547 140.89 317.984 141.601 317.186 142.121C316.389 142.641 315.47 142.901 314.43 142.901ZM329.231 142.901C327.896 142.901 326.726 142.563 325.721 141.887C324.715 141.211 323.987 140.292 323.537 139.131L325.175 138.351C325.573 139.2 326.128 139.876 326.839 140.379C327.567 140.882 328.364 141.133 329.231 141.133C330.063 141.133 330.765 140.934 331.337 140.535C331.909 140.119 332.195 139.582 332.195 138.923C332.195 138.438 332.056 138.056 331.779 137.779C331.501 137.484 331.181 137.259 330.817 137.103C330.453 136.947 330.132 136.834 329.855 136.765L327.853 136.193C326.57 135.829 325.643 135.318 325.071 134.659C324.499 134 324.213 133.238 324.213 132.371C324.213 131.556 324.421 130.846 324.837 130.239C325.253 129.632 325.816 129.164 326.527 128.835C327.237 128.506 328.026 128.341 328.893 128.341C330.071 128.341 331.137 128.653 332.091 129.277C333.061 129.884 333.746 130.733 334.145 131.825L332.481 132.605C332.134 131.825 331.631 131.218 330.973 130.785C330.331 130.334 329.612 130.109 328.815 130.109C328.035 130.109 327.411 130.308 326.943 130.707C326.475 131.106 326.241 131.608 326.241 132.215C326.241 132.683 326.362 133.056 326.605 133.333C326.847 133.61 327.125 133.818 327.437 133.957C327.766 134.096 328.052 134.2 328.295 134.269L330.609 134.945C331.735 135.274 332.611 135.786 333.235 136.479C333.876 137.172 334.197 137.987 334.197 138.923C334.197 139.686 333.98 140.37 333.547 140.977C333.131 141.584 332.55 142.06 331.805 142.407C331.059 142.736 330.201 142.901 329.231 142.901ZM336.193 142.589V140.899L344.591 129.849L344.955 130.603H336.635V128.653H346.671V130.343L338.299 141.393L337.935 140.639H346.723V142.589H336.193ZM353.333 142.901C352.449 142.901 351.66 142.736 350.967 142.407C350.273 142.06 349.727 141.592 349.329 141.003C348.93 140.414 348.731 139.738 348.731 138.975C348.731 138.247 348.887 137.588 349.199 136.999C349.511 136.392 349.996 135.881 350.655 135.465C351.313 135.049 352.154 134.754 353.177 134.581L358.637 133.671V135.439L353.645 136.271C352.639 136.444 351.911 136.765 351.461 137.233C351.027 137.701 350.811 138.256 350.811 138.897C350.811 139.521 351.053 140.05 351.539 140.483C352.041 140.916 352.683 141.133 353.463 141.133C354.416 141.133 355.248 140.934 355.959 140.535C356.669 140.119 357.224 139.564 357.623 138.871C358.021 138.178 358.221 137.406 358.221 136.557V133.021C358.221 132.189 357.917 131.513 357.311 130.993C356.704 130.473 355.915 130.213 354.945 130.213C354.095 130.213 353.35 130.43 352.709 130.863C352.067 131.279 351.591 131.825 351.279 132.501L349.511 131.539C349.771 130.95 350.178 130.412 350.733 129.927C351.305 129.442 351.955 129.06 352.683 128.783C353.411 128.488 354.165 128.341 354.945 128.341C355.967 128.341 356.869 128.54 357.649 128.939C358.446 129.338 359.061 129.892 359.495 130.603C359.945 131.296 360.171 132.102 360.171 133.021V142.589H358.221V139.807L358.507 140.093C358.264 140.613 357.883 141.09 357.363 141.523C356.86 141.939 356.262 142.277 355.569 142.537C354.893 142.78 354.147 142.901 353.333 142.901ZM361.582 148.309C361.46 148.309 361.296 148.3 361.088 148.283C360.862 148.266 360.68 148.24 360.542 148.205V146.411C360.906 146.463 361.27 146.489 361.634 146.489C362.344 146.489 362.942 146.272 363.428 145.839C363.93 145.406 364.182 144.756 364.182 143.889V128.653H366.132V143.889C366.132 144.842 365.924 145.648 365.508 146.307C365.092 146.966 364.537 147.46 363.844 147.789C363.168 148.136 362.414 148.309 361.582 148.309ZM364.182 126.079V123.219H366.132V126.079H364.182ZM374.153 142.901C373.269 142.901 372.48 142.736 371.787 142.407C371.094 142.06 370.548 141.592 370.149 141.003C369.75 140.414 369.551 139.738 369.551 138.975C369.551 138.247 369.707 137.588 370.019 136.999C370.331 136.392 370.816 135.881 371.475 135.465C372.134 135.049 372.974 134.754 373.997 134.581L379.457 133.671V135.439L374.465 136.271C373.46 136.444 372.732 136.765 372.281 137.233C371.848 137.701 371.631 138.256 371.631 138.897C371.631 139.521 371.874 140.05 372.359 140.483C372.862 140.916 373.503 141.133 374.283 141.133C375.236 141.133 376.068 140.934 376.779 140.535C377.49 140.119 378.044 139.564 378.443 138.871C378.842 138.178 379.041 137.406 379.041 136.557V133.021C379.041 132.189 378.738 131.513 378.131 130.993C377.524 130.473 376.736 130.213 375.765 130.213C374.916 130.213 374.17 130.43 373.529 130.863C372.888 131.279 372.411 131.825 372.099 132.501L370.331 131.539C370.591 130.95 370.998 130.412 371.553 129.927C372.125 129.442 372.775 129.06 373.503 128.783C374.231 128.488 374.985 128.341 375.765 128.341C376.788 128.341 377.689 128.54 378.469 128.939C379.266 129.338 379.882 129.892 380.315 130.603C380.766 131.296 380.991 132.102 380.991 133.021V142.589H379.041V139.807L379.327 140.093C379.084 140.613 378.703 141.09 378.183 141.523C377.68 141.939 377.082 142.277 376.389 142.537C375.713 142.78 374.968 142.901 374.153 142.901ZM379.249 148.569C378.313 148.569 377.568 148.326 377.013 147.841C376.476 147.356 376.207 146.723 376.207 145.943C376.207 145.302 376.363 144.721 376.675 144.201C377.004 143.698 377.429 143.256 377.949 142.875C378.469 142.511 379.024 142.242 379.613 142.069H380.419V142.589C380.072 142.676 379.717 142.866 379.353 143.161C378.989 143.456 378.686 143.82 378.443 144.253C378.2 144.704 378.079 145.198 378.079 145.735C378.079 146.064 378.209 146.359 378.469 146.619C378.729 146.879 379.076 147.009 379.509 147.009C379.838 147.009 380.168 146.94 380.497 146.801C380.844 146.662 381.147 146.472 381.407 146.229L381.953 147.607C381.641 147.902 381.234 148.136 380.731 148.309C380.246 148.482 379.752 148.569 379.249 148.569ZM6.838 173.901C5.50333 173.901 4.33333 173.563 3.328 172.887C2.32267 172.211 1.59467 171.292 1.144 170.131L2.782 169.351C3.18067 170.2 3.73533 170.876 4.446 171.379C5.174 171.882 5.97133 172.133 6.838 172.133C7.67 172.133 8.372 171.934 8.944 171.535C9.516 171.119 9.802 170.582 9.802 169.923C9.802 169.438 9.66333 169.056 9.386 168.779C9.10867 168.484 8.788 168.259 8.424 168.103C8.06 167.947 7.73933 167.834 7.462 167.765L5.46 167.193C4.17733 166.829 3.25 166.318 2.678 165.659C2.106 165 1.82 164.238 1.82 163.371C1.82 162.556 2.028 161.846 2.444 161.239C2.86 160.632 3.42333 160.164 4.134 159.835C4.84467 159.506 5.63333 159.341 6.5 159.341C7.67867 159.341 8.74467 159.653 9.698 160.277C10.6687 160.884 11.3533 161.733 11.752 162.825L10.088 163.605C9.74133 162.825 9.23867 162.218 8.58 161.785C7.93867 161.334 7.21933 161.109 6.422 161.109C5.642 161.109 5.018 161.308 4.55 161.707C4.082 162.106 3.848 162.608 3.848 163.215C3.848 163.683 3.96933 164.056 4.212 164.333C4.45467 164.61 4.732 164.818 5.044 164.957C5.37333 165.096 5.65933 165.2 5.902 165.269L8.216 165.945C9.34267 166.274 10.218 166.786 10.842 167.479C11.4833 168.172 11.804 168.987 11.804 169.923C11.804 170.686 11.5873 171.37 11.154 171.977C10.738 172.584 10.1573 173.06 9.412 173.407C8.66667 173.736 7.80867 173.901 6.838 173.901ZM15.2305 173.589V159.653H17.1805V173.589H15.2305ZM15.2305 157.079V154.219H17.1805V157.079H15.2305ZM27.5159 173.901C26.2159 173.901 25.0373 173.589 23.9799 172.965C22.9399 172.324 22.1166 171.448 21.5099 170.339C20.9033 169.23 20.5999 167.973 20.5999 166.569C20.5999 165.165 20.8946 163.926 21.4839 162.851C22.0733 161.759 22.8706 160.901 23.8759 160.277C24.8986 159.653 26.0426 159.341 27.3079 159.341C28.3133 159.341 29.2059 159.532 29.9859 159.913C30.7833 160.277 31.4593 160.78 32.0139 161.421C32.5686 162.045 32.9933 162.756 33.2879 163.553C33.5826 164.333 33.7299 165.139 33.7299 165.971C33.7299 166.144 33.7213 166.344 33.7039 166.569C33.6866 166.777 33.6606 166.994 33.6259 167.219H21.8479V165.399H32.5079L31.5719 166.179C31.7279 165.226 31.6153 164.376 31.2339 163.631C30.8699 162.868 30.3413 162.27 29.6479 161.837C28.9546 161.386 28.1746 161.161 27.3079 161.161C26.4413 161.161 25.6353 161.386 24.8899 161.837C24.1619 162.288 23.5899 162.92 23.1739 163.735C22.7579 164.532 22.5933 165.486 22.6799 166.595C22.5933 167.704 22.7666 168.675 23.1999 169.507C23.6506 170.322 24.2573 170.954 25.0199 171.405C25.7999 171.856 26.6319 172.081 27.5159 172.081C28.5386 172.081 29.3966 171.838 30.0899 171.353C30.7833 170.868 31.3466 170.261 31.7799 169.533L33.4439 170.417C33.1666 171.041 32.7419 171.622 32.1699 172.159C31.5979 172.679 30.9133 173.104 30.1159 173.433C29.3359 173.745 28.4693 173.901 27.5159 173.901ZM26.7359 179.569C25.7999 179.569 25.0546 179.326 24.4999 178.841C23.9626 178.356 23.6939 177.723 23.6939 176.943C23.6939 176.302 23.8499 175.721 24.1619 175.201C24.4913 174.698 24.9159 174.256 25.4359 173.875C25.9559 173.511 26.5106 173.242 27.0999 173.069H27.9059V173.589C27.5593 173.676 27.2039 173.866 26.8399 174.161C26.4759 174.456 26.1726 174.82 25.9299 175.253C25.6873 175.704 25.5659 176.198 25.5659 176.735C25.5659 177.064 25.6959 177.359 25.9559 177.619C26.2159 177.879 26.5626 178.009 26.9959 178.009C27.3253 178.009 27.6546 177.94 27.9839 177.801C28.3306 177.662 28.6339 177.472 28.8939 177.229L29.4399 178.607C29.1279 178.902 28.7206 179.136 28.2179 179.309C27.7326 179.482 27.2386 179.569 26.7359 179.569ZM55.2934 178.789V159.653H57.2434V162.773L56.9314 162.227C57.4861 161.343 58.2227 160.641 59.1414 160.121C60.0774 159.601 61.1434 159.341 62.3394 159.341C63.6567 159.341 64.8267 159.662 65.8494 160.303C66.8894 160.927 67.7041 161.785 68.2934 162.877C68.9001 163.969 69.2034 165.217 69.2034 166.621C69.2034 168.008 68.9001 169.256 68.2934 170.365C67.7041 171.457 66.8894 172.324 65.8494 172.965C64.8267 173.589 63.6567 173.901 62.3394 173.901C61.1434 173.901 60.0601 173.632 59.0894 173.095C58.1361 172.54 57.4167 171.76 56.9314 170.755L57.2434 170.469V178.789H55.2934ZM62.2354 171.951C63.1714 171.951 64.0034 171.717 64.7314 171.249C65.4767 170.781 66.0574 170.148 66.4734 169.351C66.9067 168.536 67.1234 167.626 67.1234 166.621C67.1234 165.598 66.9067 164.688 66.4734 163.891C66.0574 163.094 65.4767 162.461 64.7314 161.993C64.0034 161.525 63.1714 161.291 62.2354 161.291C61.2994 161.291 60.4501 161.525 59.6874 161.993C58.9421 162.461 58.3441 163.102 57.8934 163.917C57.4601 164.714 57.2434 165.616 57.2434 166.621C57.2434 167.626 57.4601 168.536 57.8934 169.351C58.3441 170.148 58.9421 170.781 59.6874 171.249C60.4501 171.717 61.2994 171.951 62.2354 171.951ZM79.1612 173.901C77.8439 173.901 76.6479 173.589 75.5732 172.965C74.4985 172.324 73.6405 171.457 72.9992 170.365C72.3752 169.256 72.0632 167.999 72.0632 166.595C72.0632 165.208 72.3752 163.969 72.9992 162.877C73.6232 161.785 74.4639 160.927 75.5212 160.303C76.5959 159.662 77.8092 159.341 79.1612 159.341C80.5132 159.341 81.7179 159.653 82.7752 160.277C83.8499 160.901 84.6905 161.759 85.2972 162.851C85.9212 163.943 86.2332 165.191 86.2332 166.595C86.2332 168.016 85.9125 169.282 85.2712 170.391C84.6299 171.483 83.7719 172.341 82.6972 172.965C81.6399 173.589 80.4612 173.901 79.1612 173.901ZM79.1612 171.951C80.0972 171.951 80.9379 171.717 81.6832 171.249C82.4459 170.781 83.0439 170.14 83.4772 169.325C83.9279 168.51 84.1532 167.6 84.1532 166.595C84.1532 165.59 83.9279 164.688 83.4772 163.891C83.0439 163.094 82.4459 162.461 81.6832 161.993C80.9379 161.525 80.0972 161.291 79.1612 161.291C78.2252 161.291 77.3759 161.525 76.6132 161.993C75.8679 162.461 75.2699 163.094 74.8192 163.891C74.3685 164.688 74.1432 165.59 74.1432 166.595C74.1432 167.6 74.3685 168.51 74.8192 169.325C75.2699 170.14 75.8679 170.781 76.6132 171.249C77.3759 171.717 78.2252 171.951 79.1612 171.951ZM113.128 173.745C111.88 173.745 110.918 173.381 110.242 172.653C109.566 171.925 109.228 170.885 109.228 169.533V161.603H106.654V159.653H107.304C107.893 159.653 108.361 159.462 108.708 159.081C109.054 158.682 109.228 158.188 109.228 157.599V156.429H111.178V159.653H114.246V161.603H111.178V169.533C111.178 170.001 111.247 170.417 111.386 170.781C111.524 171.128 111.758 171.405 112.088 171.613C112.434 171.821 112.894 171.925 113.466 171.925C113.604 171.925 113.769 171.916 113.96 171.899C114.15 171.882 114.315 171.864 114.454 171.847V173.589C114.246 173.641 114.012 173.676 113.752 173.693C113.492 173.728 113.284 173.745 113.128 173.745ZM123.714 173.901C122.414 173.901 121.235 173.589 120.178 172.965C119.138 172.324 118.315 171.448 117.708 170.339C117.101 169.23 116.798 167.973 116.798 166.569C116.798 165.165 117.093 163.926 117.682 162.851C118.271 161.759 119.069 160.901 120.074 160.277C121.097 159.653 122.241 159.341 123.506 159.341C124.511 159.341 125.404 159.532 126.184 159.913C126.981 160.277 127.657 160.78 128.212 161.421C128.767 162.045 129.191 162.756 129.486 163.553C129.781 164.333 129.928 165.139 129.928 165.971C129.928 166.144 129.919 166.344 129.902 166.569C129.885 166.777 129.859 166.994 129.824 167.219H118.046V165.399H128.706L127.77 166.179C127.926 165.226 127.813 164.376 127.432 163.631C127.068 162.868 126.539 162.27 125.846 161.837C125.153 161.386 124.373 161.161 123.506 161.161C122.639 161.161 121.833 161.386 121.088 161.837C120.36 162.288 119.788 162.92 119.372 163.735C118.956 164.532 118.791 165.486 118.878 166.595C118.791 167.704 118.965 168.675 119.398 169.507C119.849 170.322 120.455 170.954 121.218 171.405C121.998 171.856 122.83 172.081 123.714 172.081C124.737 172.081 125.595 171.838 126.288 171.353C126.981 170.868 127.545 170.261 127.978 169.533L129.642 170.417C129.365 171.041 128.94 171.622 128.368 172.159C127.796 172.679 127.111 173.104 126.314 173.433C125.534 173.745 124.667 173.901 123.714 173.901ZM133.366 173.589V159.653H135.316V161.941L135.056 161.603C135.385 160.944 135.879 160.424 136.538 160.043C137.214 159.662 138.029 159.471 138.982 159.471H139.866V161.421H138.644C137.639 161.421 136.833 161.733 136.226 162.357C135.619 162.981 135.316 163.865 135.316 165.009V173.589H133.366ZM148.495 173.901C147.195 173.901 146.017 173.589 144.959 172.965C143.919 172.324 143.096 171.448 142.489 170.339C141.883 169.23 141.579 167.973 141.579 166.569C141.579 165.165 141.874 163.926 142.463 162.851C143.053 161.759 143.85 160.901 144.855 160.277C145.878 159.653 147.022 159.341 148.287 159.341C149.293 159.341 150.185 159.532 150.965 159.913C151.763 160.277 152.439 160.78 152.993 161.421C153.548 162.045 153.973 162.756 154.267 163.553C154.562 164.333 154.709 165.139 154.709 165.971C154.709 166.144 154.701 166.344 154.683 166.569C154.666 166.777 154.64 166.994 154.605 167.219H142.827V165.399H153.487L152.551 166.179C152.707 165.226 152.595 164.376 152.213 163.631C151.849 162.868 151.321 162.27 150.627 161.837C149.934 161.386 149.154 161.161 148.287 161.161C147.421 161.161 146.615 161.386 145.869 161.837C145.141 162.288 144.569 162.92 144.153 163.735C143.737 164.532 143.573 165.486 143.659 166.595C143.573 167.704 143.746 168.675 144.179 169.507C144.63 170.322 145.237 170.954 145.999 171.405C146.779 171.856 147.611 172.081 148.495 172.081C149.518 172.081 150.376 171.838 151.069 171.353C151.763 170.868 152.326 170.261 152.759 169.533L154.423 170.417C154.146 171.041 153.721 171.622 153.149 172.159C152.577 172.679 151.893 173.104 151.095 173.433C150.315 173.745 149.449 173.901 148.495 173.901ZM158.147 173.589V159.653H160.097V162.357L159.655 162.253C160.002 161.352 160.565 160.641 161.345 160.121C162.143 159.601 163.061 159.341 164.101 159.341C165.089 159.341 165.973 159.566 166.753 160.017C167.551 160.468 168.175 161.092 168.625 161.889C169.093 162.669 169.327 163.553 169.327 164.541V173.589H167.377V165.295C167.377 164.446 167.221 163.726 166.909 163.137C166.615 162.548 166.19 162.097 165.635 161.785C165.098 161.456 164.474 161.291 163.763 161.291C163.053 161.291 162.42 161.456 161.865 161.785C161.311 162.097 160.877 162.556 160.565 163.163C160.253 163.752 160.097 164.463 160.097 165.295V173.589H158.147ZM173.052 173.589V159.653H175.002V173.589H173.052ZM173.052 157.079V154.219H175.002V157.079H173.052ZM185.337 173.901C184.037 173.901 182.858 173.589 181.801 172.965C180.761 172.324 179.938 171.448 179.331 170.339C178.724 169.23 178.421 167.973 178.421 166.569C178.421 165.165 178.716 163.926 179.305 162.851C179.894 161.759 180.692 160.901 181.697 160.277C182.72 159.653 183.864 159.341 185.129 159.341C186.134 159.341 187.027 159.532 187.807 159.913C188.604 160.277 189.28 160.78 189.835 161.421C190.39 162.045 190.814 162.756 191.109 163.553C191.404 164.333 191.551 165.139 191.551 165.971C191.551 166.144 191.542 166.344 191.525 166.569C191.508 166.777 191.482 166.994 191.447 167.219H179.669V165.399H190.329L189.393 166.179C189.549 165.226 189.436 164.376 189.055 163.631C188.691 162.868 188.162 162.27 187.469 161.837C186.776 161.386 185.996 161.161 185.129 161.161C184.262 161.161 183.456 161.386 182.711 161.837C181.983 162.288 181.411 162.92 180.995 163.735C180.579 164.532 180.414 165.486 180.501 166.595C180.414 167.704 180.588 168.675 181.021 169.507C181.472 170.322 182.078 170.954 182.841 171.405C183.621 171.856 184.453 172.081 185.337 172.081C186.36 172.081 187.218 171.838 187.911 171.353C188.604 170.868 189.168 170.261 189.601 169.533L191.265 170.417C190.988 171.041 190.563 171.622 189.991 172.159C189.419 172.679 188.734 173.104 187.937 173.433C187.157 173.745 186.29 173.901 185.337 173.901ZM219.719 179.309C218.765 179.309 217.881 179.162 217.067 178.867C216.269 178.572 215.576 178.165 214.987 177.645C214.415 177.142 213.973 176.553 213.661 175.877L215.455 174.915C215.732 175.574 216.226 176.146 216.937 176.631C217.647 177.116 218.557 177.359 219.667 177.359C220.516 177.359 221.296 177.194 222.007 176.865C222.717 176.536 223.289 176.05 223.723 175.409C224.156 174.768 224.373 173.979 224.373 173.043V169.949L224.685 170.235C224.199 171.24 223.48 172.02 222.527 172.575C221.573 173.112 220.533 173.381 219.407 173.381C218.107 173.381 216.937 173.069 215.897 172.445C214.857 171.821 214.033 170.98 213.427 169.923C212.837 168.848 212.543 167.661 212.543 166.361C212.543 165.044 212.837 163.856 213.427 162.799C214.033 161.742 214.848 160.901 215.871 160.277C216.911 159.653 218.089 159.341 219.407 159.341C220.533 159.341 221.556 159.601 222.475 160.121C223.411 160.641 224.147 161.343 224.685 162.227L224.373 162.773V159.653H226.323V173.043C226.323 174.239 226.037 175.305 225.465 176.241C224.91 177.194 224.13 177.94 223.125 178.477C222.137 179.032 221.001 179.309 219.719 179.309ZM219.511 171.431C220.412 171.431 221.227 171.206 221.955 170.755C222.683 170.287 223.263 169.672 223.697 168.909C224.147 168.129 224.373 167.28 224.373 166.361C224.373 165.442 224.147 164.602 223.697 163.839C223.263 163.059 222.683 162.444 221.955 161.993C221.227 161.525 220.412 161.291 219.511 161.291C218.592 161.291 217.76 161.525 217.015 161.993C216.269 162.444 215.68 163.05 215.247 163.813C214.831 164.576 214.623 165.425 214.623 166.361C214.623 167.28 214.831 168.129 215.247 168.909C215.68 169.672 216.261 170.287 216.989 170.755C217.734 171.206 218.575 171.431 219.511 171.431ZM230.329 173.589V159.653H232.279V161.941L232.019 161.603C232.349 160.944 232.843 160.424 233.501 160.043C234.177 159.662 234.992 159.471 235.945 159.471H236.829V161.421H235.607C234.602 161.421 233.796 161.733 233.189 162.357C232.583 162.981 232.279 163.865 232.279 165.009V173.589H230.329ZM239.401 179.309C239.123 179.309 238.837 179.283 238.543 179.231C238.265 179.196 237.988 179.127 237.711 179.023V177.203C237.884 177.22 238.101 177.246 238.361 177.281C238.638 177.333 238.915 177.359 239.193 177.359C240.042 177.359 240.692 177.177 241.143 176.813C241.593 176.466 242.035 175.79 242.469 174.785L243.353 172.705L243.301 174.421L237.399 159.653H239.505L244.341 171.847H243.795L248.605 159.653H250.763L244.393 175.357C244.115 176.033 243.76 176.674 243.327 177.281C242.911 177.888 242.382 178.373 241.741 178.737C241.099 179.118 240.319 179.309 239.401 179.309ZM271.179 173.589V159.653H273.129V173.589H271.179ZM271.179 157.079V154.219H273.129V157.079H271.179ZM300.082 173.901C298.747 173.901 297.577 173.563 296.572 172.887C295.567 172.211 294.839 171.292 294.388 170.131L296.026 169.351C296.425 170.2 296.979 170.876 297.69 171.379C298.418 171.882 299.215 172.133 300.082 172.133C300.914 172.133 301.616 171.934 302.188 171.535C302.76 171.119 303.046 170.582 303.046 169.923C303.046 169.438 302.907 169.056 302.63 168.779C302.353 168.484 302.032 168.259 301.668 168.103C301.304 167.947 300.983 167.834 300.706 167.765L298.704 167.193C297.421 166.829 296.494 166.318 295.922 165.659C295.35 165 295.064 164.238 295.064 163.371C295.064 162.556 295.272 161.846 295.688 161.239C296.104 160.632 296.667 160.164 297.378 159.835C298.089 159.506 298.877 159.341 299.744 159.341C300.923 159.341 301.989 159.653 302.942 160.277C303.913 160.884 304.597 161.733 304.996 162.825L303.332 163.605C302.985 162.825 302.483 162.218 301.824 161.785C301.183 161.334 300.463 161.109 299.666 161.109C298.886 161.109 298.262 161.308 297.794 161.707C297.326 162.106 297.092 162.608 297.092 163.215C297.092 163.683 297.213 164.056 297.456 164.333C297.699 164.61 297.976 164.818 298.288 164.957C298.617 165.096 298.903 165.2 299.146 165.269L301.46 165.945C302.587 166.274 303.462 166.786 304.086 167.479C304.727 168.172 305.048 168.987 305.048 169.923C305.048 170.686 304.831 171.37 304.398 171.977C303.982 172.584 303.401 173.06 302.656 173.407C301.911 173.736 301.053 173.901 300.082 173.901ZM307.045 173.589V171.899L315.443 160.849L315.807 161.603H307.487V159.653H317.523V161.343L309.151 172.393L308.787 171.639H317.575V173.589H307.045ZM325.094 173.901C324.124 173.901 323.24 173.676 322.442 173.225C321.645 172.757 321.012 172.116 320.544 171.301C320.094 170.469 319.868 169.516 319.868 168.441V159.653H321.818V168.207C321.818 168.952 321.966 169.611 322.26 170.183C322.572 170.738 322.997 171.171 323.534 171.483C324.089 171.795 324.722 171.951 325.432 171.951C326.143 171.951 326.776 171.795 327.33 171.483C327.885 171.154 328.318 170.694 328.63 170.105C328.942 169.498 329.098 168.779 329.098 167.947V159.653H331.048V173.589H329.098V170.885L329.54 170.989C329.211 171.89 328.648 172.601 327.85 173.121C327.053 173.641 326.134 173.901 325.094 173.901ZM335.059 173.589V153.907H337.009V167.687L336.177 167.557L344.003 159.653H346.525L341.065 165.243L347.019 173.589H344.679L339.089 165.867L340.337 165.971L336.359 170.079L337.009 168.467V173.589H335.059ZM353.333 173.901C352.449 173.901 351.66 173.736 350.967 173.407C350.273 173.06 349.727 172.592 349.329 172.003C348.93 171.414 348.731 170.738 348.731 169.975C348.731 169.247 348.887 168.588 349.199 167.999C349.511 167.392 349.996 166.881 350.655 166.465C351.313 166.049 352.154 165.754 353.177 165.581L358.637 164.671V166.439L353.645 167.271C352.639 167.444 351.911 167.765 351.461 168.233C351.027 168.701 350.811 169.256 350.811 169.897C350.811 170.521 351.053 171.05 351.539 171.483C352.041 171.916 352.683 172.133 353.463 172.133C354.416 172.133 355.248 171.934 355.959 171.535C356.669 171.119 357.224 170.564 357.623 169.871C358.021 169.178 358.221 168.406 358.221 167.557V164.021C358.221 163.189 357.917 162.513 357.311 161.993C356.704 161.473 355.915 161.213 354.945 161.213C354.095 161.213 353.35 161.43 352.709 161.863C352.067 162.279 351.591 162.825 351.279 163.501L349.511 162.539C349.771 161.95 350.178 161.412 350.733 160.927C351.305 160.442 351.955 160.06 352.683 159.783C353.411 159.488 354.165 159.341 354.945 159.341C355.967 159.341 356.869 159.54 357.649 159.939C358.446 160.338 359.061 160.892 359.495 161.603C359.945 162.296 360.171 163.102 360.171 164.021V173.589H358.221V170.807L358.507 171.093C358.264 171.613 357.883 172.09 357.363 172.523C356.86 172.939 356.262 173.277 355.569 173.537C354.893 173.78 354.147 173.901 353.333 173.901ZM361.582 179.309C361.46 179.309 361.296 179.3 361.088 179.283C360.862 179.266 360.68 179.24 360.542 179.205V177.411C360.906 177.463 361.27 177.489 361.634 177.489C362.344 177.489 362.942 177.272 363.428 176.839C363.93 176.406 364.182 175.756 364.182 174.889V159.653H366.132V174.889C366.132 175.842 365.924 176.648 365.508 177.307C365.092 177.966 364.537 178.46 363.844 178.789C363.168 179.136 362.414 179.309 361.582 179.309ZM364.182 157.079V154.219H366.132V157.079H364.182ZM374.153 173.901C373.269 173.901 372.48 173.736 371.787 173.407C371.094 173.06 370.548 172.592 370.149 172.003C369.75 171.414 369.551 170.738 369.551 169.975C369.551 169.247 369.707 168.588 370.019 167.999C370.331 167.392 370.816 166.881 371.475 166.465C372.134 166.049 372.974 165.754 373.997 165.581L379.457 164.671V166.439L374.465 167.271C373.46 167.444 372.732 167.765 372.281 168.233C371.848 168.701 371.631 169.256 371.631 169.897C371.631 170.521 371.874 171.05 372.359 171.483C372.862 171.916 373.503 172.133 374.283 172.133C375.236 172.133 376.068 171.934 376.779 171.535C377.49 171.119 378.044 170.564 378.443 169.871C378.842 169.178 379.041 168.406 379.041 167.557V164.021C379.041 163.189 378.738 162.513 378.131 161.993C377.524 161.473 376.736 161.213 375.765 161.213C374.916 161.213 374.17 161.43 373.529 161.863C372.888 162.279 372.411 162.825 372.099 163.501L370.331 162.539C370.591 161.95 370.998 161.412 371.553 160.927C372.125 160.442 372.775 160.06 373.503 159.783C374.231 159.488 374.985 159.341 375.765 159.341C376.788 159.341 377.689 159.54 378.469 159.939C379.266 160.338 379.882 160.892 380.315 161.603C380.766 162.296 380.991 163.102 380.991 164.021V173.589H379.041V170.807L379.327 171.093C379.084 171.613 378.703 172.09 378.183 172.523C377.68 172.939 377.082 173.277 376.389 173.537C375.713 173.78 374.968 173.901 374.153 173.901ZM379.249 179.569C378.313 179.569 377.568 179.326 377.013 178.841C376.476 178.356 376.207 177.723 376.207 176.943C376.207 176.302 376.363 175.721 376.675 175.201C377.004 174.698 377.429 174.256 377.949 173.875C378.469 173.511 379.024 173.242 379.613 173.069H380.419V173.589C380.072 173.676 379.717 173.866 379.353 174.161C378.989 174.456 378.686 174.82 378.443 175.253C378.2 175.704 378.079 176.198 378.079 176.735C378.079 177.064 378.209 177.359 378.469 177.619C378.729 177.879 379.076 178.009 379.509 178.009C379.838 178.009 380.168 177.94 380.497 177.801C380.844 177.662 381.147 177.472 381.407 177.229L381.953 178.607C381.641 178.902 381.234 179.136 380.731 179.309C380.246 179.482 379.752 179.569 379.249 179.569ZM2.002 204.589V184.907H3.952V198.687L3.12 198.557L10.946 190.653H13.468L8.008 196.243L13.962 204.589H11.622L6.032 196.867L7.28 196.971L3.302 201.079L3.952 199.467V204.589H2.002ZM22.5182 204.901C21.2009 204.901 20.0049 204.589 18.9302 203.965C17.8556 203.324 16.9976 202.457 16.3562 201.365C15.7322 200.256 15.4202 198.999 15.4202 197.595C15.4202 196.208 15.7322 194.969 16.3562 193.877C16.9802 192.785 17.8209 191.927 18.8782 191.303C19.9529 190.662 21.1662 190.341 22.5182 190.341C23.8702 190.341 25.0749 190.653 26.1322 191.277C27.2069 191.901 28.0476 192.759 28.6542 193.851C29.2782 194.943 29.5902 196.191 29.5902 197.595C29.5902 199.016 29.2696 200.282 28.6282 201.391C27.9869 202.483 27.1289 203.341 26.0542 203.965C24.9969 204.589 23.8182 204.901 22.5182 204.901ZM22.5182 202.951C23.4542 202.951 24.2949 202.717 25.0402 202.249C25.8029 201.781 26.4009 201.14 26.8342 200.325C27.2849 199.51 27.5102 198.6 27.5102 197.595C27.5102 196.59 27.2849 195.688 26.8342 194.891C26.4009 194.094 25.8029 193.461 25.0402 192.993C24.2949 192.525 23.4542 192.291 22.5182 192.291C21.5822 192.291 20.7329 192.525 19.9702 192.993C19.2249 193.461 18.6269 194.094 18.1762 194.891C17.7256 195.688 17.5002 196.59 17.5002 197.595C17.5002 198.6 17.7256 199.51 18.1762 200.325C18.6269 201.14 19.2249 201.781 19.9702 202.249C20.7329 202.717 21.5822 202.951 22.5182 202.951ZM39.3213 204.901C38.0213 204.901 36.8513 204.589 35.8113 203.965C34.7713 203.324 33.948 202.457 33.3413 201.365C32.752 200.256 32.4573 199.008 32.4573 197.621C32.4573 196.217 32.752 194.969 33.3413 193.877C33.948 192.785 34.7627 191.927 35.7853 191.303C36.8253 190.662 38.004 190.341 39.3213 190.341C40.5173 190.341 41.5833 190.601 42.5193 191.121C43.4553 191.641 44.192 192.343 44.7293 193.227L44.4173 193.773V184.907H46.3673V204.589H44.4173V201.469L44.7293 201.755C44.244 202.76 43.516 203.54 42.5453 204.095C41.592 204.632 40.5173 204.901 39.3213 204.901ZM39.4253 202.951C40.3613 202.951 41.202 202.717 41.9473 202.249C42.71 201.781 43.308 201.148 43.7413 200.351C44.192 199.536 44.4173 198.626 44.4173 197.621C44.4173 196.616 44.192 195.714 43.7413 194.917C43.308 194.102 42.71 193.461 41.9473 192.993C41.202 192.525 40.3613 192.291 39.4253 192.291C38.5067 192.291 37.6747 192.525 36.9293 192.993C36.184 193.461 35.5947 194.094 35.1613 194.891C34.7453 195.688 34.5373 196.598 34.5373 197.621C34.5373 198.626 34.7453 199.536 35.1613 200.351C35.5947 201.148 36.1753 201.781 36.9033 202.249C37.6487 202.717 38.4893 202.951 39.4253 202.951ZM56.8971 204.901C55.5798 204.901 54.3838 204.589 53.3091 203.965C52.2345 203.324 51.3765 202.457 50.7351 201.365C50.1111 200.256 49.7991 198.999 49.7991 197.595C49.7991 196.208 50.1111 194.969 50.7351 193.877C51.3591 192.785 52.1998 191.927 53.2571 191.303C54.3318 190.662 55.5451 190.341 56.8971 190.341C58.2491 190.341 59.4538 190.653 60.5111 191.277C61.5858 191.901 62.4265 192.759 63.0331 193.851C63.6571 194.943 63.9691 196.191 63.9691 197.595C63.9691 199.016 63.6485 200.282 63.0071 201.391C62.3658 202.483 61.5078 203.341 60.4331 203.965C59.3758 204.589 58.1971 204.901 56.8971 204.901ZM56.8971 202.951C57.8331 202.951 58.6738 202.717 59.4191 202.249C60.1818 201.781 60.7798 201.14 61.2131 200.325C61.6638 199.51 61.8891 198.6 61.8891 197.595C61.8891 196.59 61.6638 195.688 61.2131 194.891C60.7798 194.094 60.1818 193.461 59.4191 192.993C58.6738 192.525 57.8331 192.291 56.8971 192.291C55.9611 192.291 55.1118 192.525 54.3491 192.993C53.6038 193.461 53.0058 194.094 52.5551 194.891C52.1045 195.688 51.8791 196.59 51.8791 197.595C51.8791 198.6 52.1045 199.51 52.5551 200.325C53.0058 201.14 53.6038 201.781 54.3491 202.249C55.1118 202.717 55.9611 202.951 56.8971 202.951ZM55.9091 187.949L58.1711 184.049H60.8491L57.8851 187.949H55.9091ZM70.2223 204.589L65.4383 190.653H67.6483L71.6003 202.847H70.8203L74.5383 190.653H76.4883L80.2063 202.847H79.4263L83.4043 190.653H85.5883L80.8043 204.589H78.8543L75.2403 192.655H75.7863L72.1723 204.589H70.2223ZM98.5831 204.901C97.2831 204.901 96.1131 204.589 95.0731 203.965C94.0331 203.324 93.2097 202.457 92.6031 201.365C92.0137 200.256 91.7191 199.008 91.7191 197.621C91.7191 196.217 92.0137 194.969 92.6031 193.877C93.2097 192.785 94.0244 191.927 95.0471 191.303C96.0871 190.662 97.2657 190.341 98.5831 190.341C99.7791 190.341 100.845 190.601 101.781 191.121C102.717 191.641 103.454 192.343 103.991 193.227L103.679 193.773V184.907H105.629V204.589H103.679V201.469L103.991 201.755C103.506 202.76 102.778 203.54 101.807 204.095C100.854 204.632 99.7791 204.901 98.5831 204.901ZM98.6871 202.951C99.6231 202.951 100.464 202.717 101.209 202.249C101.972 201.781 102.57 201.148 103.003 200.351C103.454 199.536 103.679 198.626 103.679 197.621C103.679 196.616 103.454 195.714 103.003 194.917C102.57 194.102 101.972 193.461 101.209 192.993C100.464 192.525 99.6231 192.291 98.6871 192.291C97.7684 192.291 96.9364 192.525 96.1911 192.993C95.4457 193.461 94.8564 194.094 94.4231 194.891C94.0071 195.688 93.7991 196.598 93.7991 197.621C93.7991 198.626 94.0071 199.536 94.4231 200.351C94.8564 201.148 95.4371 201.781 96.1651 202.249C96.9104 202.717 97.7511 202.951 98.6871 202.951ZM116.159 204.901C114.842 204.901 113.646 204.589 112.571 203.965C111.496 203.324 110.638 202.457 109.997 201.365C109.373 200.256 109.061 198.999 109.061 197.595C109.061 196.208 109.373 194.969 109.997 193.877C110.621 192.785 111.462 191.927 112.519 191.303C113.594 190.662 114.807 190.341 116.159 190.341C117.511 190.341 118.716 190.653 119.773 191.277C120.848 191.901 121.688 192.759 122.295 193.851C122.919 194.943 123.231 196.191 123.231 197.595C123.231 199.016 122.91 200.282 122.269 201.391C121.628 202.483 120.77 203.341 119.695 203.965C118.638 204.589 117.459 204.901 116.159 204.901ZM116.159 202.951C117.095 202.951 117.936 202.717 118.681 202.249C119.444 201.781 120.042 201.14 120.475 200.325C120.926 199.51 121.151 198.6 121.151 197.595C121.151 196.59 120.926 195.688 120.475 194.891C120.042 194.094 119.444 193.461 118.681 192.993C117.936 192.525 117.095 192.291 116.159 192.291C115.223 192.291 114.374 192.525 113.611 192.993C112.866 193.461 112.268 194.094 111.817 194.891C111.366 195.688 111.141 196.59 111.141 197.595C111.141 198.6 111.366 199.51 111.817 200.325C112.268 201.14 112.866 201.781 113.611 202.249C114.374 202.717 115.223 202.951 116.159 202.951ZM129.658 204.589V202.899L138.056 191.849L138.42 192.603H130.1V190.653H140.136V192.343L131.764 203.393L131.4 202.639H140.188V204.589H129.658ZM149.112 204.901C147.812 204.901 146.633 204.589 145.576 203.965C144.536 203.324 143.712 202.448 143.106 201.339C142.499 200.23 142.196 198.973 142.196 197.569C142.196 196.165 142.49 194.926 143.08 193.851C143.669 192.759 144.466 191.901 145.472 191.277C146.494 190.653 147.638 190.341 148.904 190.341C149.909 190.341 150.802 190.532 151.582 190.913C152.379 191.277 153.055 191.78 153.61 192.421C154.164 193.045 154.589 193.756 154.884 194.553C155.178 195.333 155.326 196.139 155.326 196.971C155.326 197.144 155.317 197.344 155.3 197.569C155.282 197.777 155.256 197.994 155.222 198.219H143.444V196.399H154.104L153.168 197.179C153.324 196.226 153.211 195.376 152.83 194.631C152.466 193.868 151.937 193.27 151.244 192.837C150.55 192.386 149.77 192.161 148.904 192.161C148.037 192.161 147.231 192.386 146.486 192.837C145.758 193.288 145.186 193.92 144.77 194.735C144.354 195.532 144.189 196.486 144.276 197.595C144.189 198.704 144.362 199.675 144.796 200.507C145.246 201.322 145.853 201.954 146.616 202.405C147.396 202.856 148.228 203.081 149.112 203.081C150.134 203.081 150.992 202.838 151.686 202.353C152.379 201.868 152.942 201.261 153.376 200.533L155.04 201.417C154.762 202.041 154.338 202.622 153.766 203.159C153.194 203.679 152.509 204.104 151.712 204.433C150.932 204.745 150.065 204.901 149.112 204.901ZM163.6 204.901C162.265 204.901 161.095 204.563 160.09 203.887C159.084 203.211 158.356 202.292 157.906 201.131L159.544 200.351C159.942 201.2 160.497 201.876 161.208 202.379C161.936 202.882 162.733 203.133 163.6 203.133C164.432 203.133 165.134 202.934 165.706 202.535C166.278 202.119 166.564 201.582 166.564 200.923C166.564 200.438 166.425 200.056 166.148 199.779C165.87 199.484 165.55 199.259 165.186 199.103C164.822 198.947 164.501 198.834 164.224 198.765L162.222 198.193C160.939 197.829 160.012 197.318 159.44 196.659C158.868 196 158.582 195.238 158.582 194.371C158.582 193.556 158.79 192.846 159.206 192.239C159.622 191.632 160.185 191.164 160.896 190.835C161.606 190.506 162.395 190.341 163.262 190.341C164.44 190.341 165.506 190.653 166.46 191.277C167.43 191.884 168.115 192.733 168.514 193.825L166.85 194.605C166.503 193.825 166 193.218 165.342 192.785C164.7 192.334 163.981 192.109 163.184 192.109C162.404 192.109 161.78 192.308 161.312 192.707C160.844 193.106 160.61 193.608 160.61 194.215C160.61 194.683 160.731 195.056 160.974 195.333C161.216 195.61 161.494 195.818 161.806 195.957C162.135 196.096 162.421 196.2 162.664 196.269L164.978 196.945C166.104 197.274 166.98 197.786 167.604 198.479C168.245 199.172 168.566 199.987 168.566 200.923C168.566 201.686 168.349 202.37 167.916 202.977C167.5 203.584 166.919 204.06 166.174 204.407C165.428 204.736 164.57 204.901 163.6 204.901ZM171.992 204.589V184.907H173.942V198.687L173.11 198.557L180.936 190.653H183.458L177.998 196.243L183.952 204.589H181.612L176.022 196.867L177.27 196.971L173.292 201.079L173.942 199.467V204.589H171.992ZM190.266 204.901C189.382 204.901 188.594 204.736 187.9 204.407C187.207 204.06 186.661 203.592 186.262 203.003C185.864 202.414 185.664 201.738 185.664 200.975C185.664 200.247 185.82 199.588 186.132 198.999C186.444 198.392 186.93 197.881 187.588 197.465C188.247 197.049 189.088 196.754 190.11 196.581L195.57 195.671V197.439L190.578 198.271C189.573 198.444 188.845 198.765 188.394 199.233C187.961 199.701 187.744 200.256 187.744 200.897C187.744 201.521 187.987 202.05 188.472 202.483C188.975 202.916 189.616 203.133 190.396 203.133C191.35 203.133 192.182 202.934 192.892 202.535C193.603 202.119 194.158 201.564 194.556 200.871C194.955 200.178 195.154 199.406 195.154 198.557V195.021C195.154 194.189 194.851 193.513 194.244 192.993C193.638 192.473 192.849 192.213 191.878 192.213C191.029 192.213 190.284 192.43 189.642 192.863C189.001 193.279 188.524 193.825 188.212 194.501L186.444 193.539C186.704 192.95 187.112 192.412 187.666 191.927C188.238 191.442 188.888 191.06 189.616 190.783C190.344 190.488 191.098 190.341 191.878 190.341C192.901 190.341 193.802 190.54 194.582 190.939C195.38 191.338 195.995 191.892 196.428 192.603C196.879 193.296 197.104 194.102 197.104 195.021V204.589H195.154V201.807L195.44 202.093C195.198 202.613 194.816 203.09 194.296 203.523C193.794 203.939 193.196 204.277 192.502 204.537C191.826 204.78 191.081 204.901 190.266 204.901ZM201.115 204.589V190.653H203.065V193.357L202.623 193.253C202.97 192.352 203.533 191.641 204.313 191.121C205.111 190.601 206.029 190.341 207.069 190.341C208.057 190.341 208.941 190.566 209.721 191.017C210.519 191.468 211.143 192.092 211.593 192.889C212.061 193.669 212.295 194.553 212.295 195.541V204.589H210.345V196.295C210.345 195.446 210.189 194.726 209.877 194.137C209.583 193.548 209.158 193.097 208.603 192.785C208.066 192.456 207.442 192.291 206.731 192.291C206.021 192.291 205.388 192.456 204.833 192.785C204.279 193.097 203.845 193.556 203.533 194.163C203.221 194.752 203.065 195.463 203.065 196.295V204.589H201.115ZM222.546 204.901C221.228 204.901 220.032 204.589 218.958 203.965C217.883 203.324 217.025 202.457 216.384 201.365C215.76 200.256 215.448 198.999 215.448 197.595C215.448 196.208 215.76 194.969 216.384 193.877C217.008 192.785 217.848 191.927 218.906 191.303C219.98 190.662 221.194 190.341 222.546 190.341C223.898 190.341 225.102 190.653 226.16 191.277C227.234 191.901 228.075 192.759 228.682 193.851C229.306 194.943 229.618 196.191 229.618 197.595C229.618 199.016 229.297 200.282 228.656 201.391C228.014 202.483 227.156 203.341 226.082 203.965C225.024 204.589 223.846 204.901 222.546 204.901ZM222.546 202.951C223.482 202.951 224.322 202.717 225.068 202.249C225.83 201.781 226.428 201.14 226.862 200.325C227.312 199.51 227.538 198.6 227.538 197.595C227.538 196.59 227.312 195.688 226.862 194.891C226.428 194.094 225.83 193.461 225.068 192.993C224.322 192.525 223.482 192.291 222.546 192.291C221.61 192.291 220.76 192.525 219.998 192.993C219.252 193.461 218.654 194.094 218.204 194.891C217.753 195.688 217.528 196.59 217.528 197.595C217.528 198.6 217.753 199.51 218.204 200.325C218.654 201.14 219.252 201.781 219.998 202.249C220.76 202.717 221.61 202.951 222.546 202.951ZM235.871 204.589L231.087 190.653H233.297L237.249 202.847H236.469L240.187 190.653H242.137L245.855 202.847H245.075L249.053 190.653H251.237L246.453 204.589H244.503L240.889 192.655H241.435L237.821 204.589H235.871ZM257.044 204.901C256.16 204.901 255.371 204.736 254.678 204.407C253.984 204.06 253.438 203.592 253.04 203.003C252.641 202.414 252.442 201.738 252.442 200.975C252.442 200.247 252.598 199.588 252.91 198.999C253.222 198.392 253.707 197.881 254.366 197.465C255.024 197.049 255.865 196.754 256.888 196.581L262.348 195.671V197.439L257.356 198.271C256.35 198.444 255.622 198.765 255.172 199.233C254.738 199.701 254.522 200.256 254.522 200.897C254.522 201.521 254.764 202.05 255.25 202.483C255.752 202.916 256.394 203.133 257.174 203.133C258.127 203.133 258.959 202.934 259.67 202.535C260.38 202.119 260.935 201.564 261.334 200.871C261.732 200.178 261.932 199.406 261.932 198.557V195.021C261.932 194.189 261.628 193.513 261.022 192.993C260.415 192.473 259.626 192.213 258.656 192.213C257.806 192.213 257.061 192.43 256.42 192.863C255.778 193.279 255.302 193.825 254.99 194.501L253.222 193.539C253.482 192.95 253.889 192.412 254.444 191.927C255.016 191.442 255.666 191.06 256.394 190.783C257.122 190.488 257.876 190.341 258.656 190.341C259.678 190.341 260.58 190.54 261.36 190.939C262.157 191.338 262.772 191.892 263.206 192.603C263.656 193.296 263.882 194.102 263.882 195.021V204.589H261.932V201.807L262.218 202.093C261.975 202.613 261.594 203.09 261.074 203.523C260.571 203.939 259.973 204.277 259.28 204.537C258.604 204.78 257.858 204.901 257.044 204.901ZM267.893 204.589V190.653H269.843V193.357L269.401 193.253C269.747 192.352 270.311 191.641 271.091 191.121C271.888 190.601 272.807 190.341 273.847 190.341C274.835 190.341 275.719 190.566 276.499 191.017C277.296 191.468 277.92 192.092 278.371 192.889C278.839 193.669 279.073 194.553 279.073 195.541V204.589H277.123V196.295C277.123 195.446 276.967 194.726 276.655 194.137C276.36 193.548 275.935 193.097 275.381 192.785C274.843 192.456 274.219 192.291 273.509 192.291C272.798 192.291 272.165 192.456 271.611 192.785C271.056 193.097 270.623 193.556 270.311 194.163C269.999 194.752 269.843 195.463 269.843 196.295V204.589H267.893ZM282.797 204.589V190.653H284.747V204.589H282.797ZM282.797 188.079V185.219H284.747V188.079H282.797ZM292.768 204.901C291.884 204.901 291.096 204.736 290.402 204.407C289.709 204.06 289.163 203.592 288.764 203.003C288.366 202.414 288.166 201.738 288.166 200.975C288.166 200.247 288.322 199.588 288.634 198.999C288.946 198.392 289.432 197.881 290.09 197.465C290.749 197.049 291.59 196.754 292.612 196.581L298.072 195.671V197.439L293.08 198.271C292.075 198.444 291.347 198.765 290.896 199.233C290.463 199.701 290.246 200.256 290.246 200.897C290.246 201.521 290.489 202.05 290.974 202.483C291.477 202.916 292.118 203.133 292.898 203.133C293.852 203.133 294.684 202.934 295.394 202.535C296.105 202.119 296.66 201.564 297.058 200.871C297.457 200.178 297.656 199.406 297.656 198.557V195.021C297.656 194.189 297.353 193.513 296.746 192.993C296.14 192.473 295.351 192.213 294.38 192.213C293.531 192.213 292.786 192.43 292.144 192.863C291.503 193.279 291.026 193.825 290.714 194.501L288.946 193.539C289.206 192.95 289.614 192.412 290.168 191.927C290.74 191.442 291.39 191.06 292.118 190.783C292.846 190.488 293.6 190.341 294.38 190.341C295.403 190.341 296.304 190.54 297.084 190.939C297.882 191.338 298.497 191.892 298.93 192.603C299.381 193.296 299.606 194.102 299.606 195.021V204.589H297.656V201.807L297.942 202.093C297.7 202.613 297.318 203.09 296.798 203.523C296.296 203.939 295.698 204.277 295.004 204.537C294.328 204.78 293.583 204.901 292.768 204.901ZM304.293 204.589V201.729H306.373V204.589H304.293Z" fill="black"/>
</svg>
