<svg width="414" height="242" viewBox="0 0 414 242" fill="none" xmlns="http://www.w3.org/2000/svg">
<path d="M94 70.5889C103.494 70.5889 111.222 62.7364 111.222 53.0889C111.222 43.4414 103.494 35.5889 94 35.5889C84.5031 35.5889 76.7777 43.4414 76.7777 53.0889C76.7777 62.7364 84.5031 70.5889 94 70.5889ZM94 40.5889C100.783 40.5889 106.302 46.1964 106.302 53.0889C106.302 59.9814 100.783 65.5889 94 65.5889C87.2169 65.5889 81.6983 59.9814 81.6983 53.0889C81.6983 46.1964 87.2169 40.5889 94 40.5889ZM91.5397 20.5889H81.6983V34.3839C84.6426 32.3819 88.0184 31.1307 91.5397 30.7364V20.5889ZM106.302 20.5889H96.4603V30.7364C99.9816 31.1307 103.357 32.3819 106.302 34.3839V20.5889Z" fill="#00742E"/>
<path d="M89.7202 54.749L88.6662 60.9167L94.1817 58.0048L99.6973 60.9167L98.6432 54.749L103.107 50.3777L96.9406 49.4773L94.1817 43.8639L91.4229 49.4773L85.2565 50.3777L89.7202 54.749Z" fill="#00742E"/>
<path d="M139.862 60.5889L131.662 30.7889H136.662L143.302 56.5889H142.062L148.942 30.7889H153.862L160.742 56.5889H159.462L166.142 30.7889H171.102L162.942 60.5889H157.622L150.702 35.1889H152.102L145.142 60.5889H139.862ZM175.704 69.4289C175.171 69.4289 174.638 69.3755 174.104 69.2689C173.598 69.1889 173.131 69.0555 172.704 68.8689V64.9889C173.024 65.0689 173.411 65.1355 173.864 65.1889C174.318 65.2689 174.758 65.3089 175.184 65.3089C176.438 65.3089 177.358 65.0289 177.944 64.4689C178.558 63.9355 179.104 63.0955 179.584 61.9489L181.024 58.6689L180.944 62.4689L171.584 38.9489H176.424L183.344 56.9889H181.704L188.584 38.9489H193.464L183.904 62.9489C183.398 64.2289 182.758 65.3489 181.984 66.3089C181.238 67.2955 180.344 68.0555 179.304 68.5889C178.291 69.1489 177.091 69.4289 175.704 69.4289ZM206.607 69.3889C205.034 69.3889 203.58 69.1355 202.247 68.6289C200.914 68.1222 199.767 67.4155 198.807 66.5089C197.847 65.6289 197.127 64.5889 196.647 63.3889L200.807 61.6689C201.18 62.6822 201.86 63.5222 202.847 64.1889C203.86 64.8555 205.1 65.1889 206.567 65.1889C207.714 65.1889 208.74 64.9622 209.647 64.5089C210.554 64.0822 211.274 63.4422 211.807 62.5889C212.34 61.7622 212.607 60.7622 212.607 59.5889V54.7089L213.407 55.6289C212.66 57.0155 211.62 58.0689 210.287 58.7889C208.98 59.5089 207.5 59.8689 205.847 59.8689C203.847 59.8689 202.047 59.4022 200.447 58.4689C198.847 57.5355 197.58 56.2555 196.647 54.6289C195.74 53.0022 195.287 51.1755 195.287 49.1489C195.287 47.0955 195.74 45.2689 196.647 43.6689C197.58 42.0689 198.834 40.8022 200.407 39.8689C201.98 38.9355 203.78 38.4689 205.807 38.4689C207.46 38.4689 208.927 38.8289 210.207 39.5489C211.514 40.2422 212.58 41.2555 213.407 42.5889L212.807 43.7089V38.9489H217.087V59.5889C217.087 61.4555 216.634 63.1222 215.727 64.5889C214.847 66.0822 213.62 67.2555 212.047 68.1089C210.474 68.9622 208.66 69.3889 206.607 69.3889ZM206.367 55.6689C207.567 55.6689 208.634 55.3889 209.567 54.8289C210.5 54.2422 211.234 53.4689 211.767 52.5089C212.327 51.5222 212.607 50.4155 212.607 49.1889C212.607 47.9622 212.327 46.8555 211.767 45.8689C211.207 44.8822 210.46 44.1089 209.527 43.5489C208.594 42.9622 207.54 42.6689 206.367 42.6689C205.14 42.6689 204.047 42.9622 203.087 43.5489C202.127 44.1089 201.367 44.8822 200.807 45.8689C200.274 46.8289 200.007 47.9355 200.007 49.1889C200.007 50.3889 200.274 51.4822 200.807 52.4689C201.367 53.4555 202.127 54.2422 203.087 54.8289C204.047 55.3889 205.14 55.6689 206.367 55.6689ZM222.378 60.5889V38.9489H226.698V43.3089L226.298 42.6689C226.778 41.2555 227.551 40.2422 228.618 39.6289C229.685 38.9889 230.965 38.6689 232.458 38.6689H233.778V42.7889H231.898C230.405 42.7889 229.191 43.2555 228.258 44.1889C227.351 45.0955 226.898 46.4022 226.898 48.1089V60.5889H222.378ZM238.79 69.4289C238.257 69.4289 237.723 69.3755 237.19 69.2689C236.683 69.1889 236.217 69.0555 235.79 68.8689V64.9889C236.11 65.0689 236.497 65.1355 236.95 65.1889C237.403 65.2689 237.843 65.3089 238.27 65.3089C239.523 65.3089 240.443 65.0289 241.03 64.4689C241.643 63.9355 242.19 63.0955 242.67 61.9489L244.11 58.6689L244.03 62.4689L234.67 38.9489H239.51L246.43 56.9889H244.79L251.67 38.9489H256.55L246.99 62.9489C246.483 64.2289 245.843 65.3489 245.07 66.3089C244.323 67.2955 243.43 68.0555 242.39 68.5889C241.377 69.1489 240.177 69.4289 238.79 69.4289ZM264.884 60.5889L257.444 38.9489H262.244L267.924 56.1889H266.244L272.044 38.9489H276.164L281.924 56.1889H280.244L285.964 38.9489H290.764L283.284 60.5889H279.204L273.364 42.9489H274.844L269.004 60.5889H264.884ZM299.561 61.0689C298.094 61.0689 296.801 60.8155 295.681 60.3089C294.588 59.7755 293.734 59.0555 293.121 58.1489C292.508 57.2155 292.201 56.1222 292.201 54.8689C292.201 53.6955 292.454 52.6422 292.961 51.7089C293.494 50.7755 294.308 49.9889 295.401 49.3489C296.494 48.7089 297.868 48.2555 299.521 47.9889L307.041 46.7489V50.3089L300.401 51.4689C299.201 51.6822 298.321 52.0689 297.761 52.6289C297.201 53.1622 296.921 53.8555 296.921 54.7089C296.921 55.5355 297.228 56.2155 297.841 56.7489C298.481 57.2555 299.294 57.5089 300.281 57.5089C301.508 57.5089 302.574 57.2422 303.481 56.7089C304.414 56.1755 305.134 55.4689 305.641 54.5889C306.148 53.6822 306.401 52.6822 306.401 51.5889V46.0289C306.401 44.9622 306.001 44.0955 305.201 43.4289C304.428 42.7355 303.388 42.3889 302.081 42.3889C300.881 42.3889 299.828 42.7089 298.921 43.3489C298.041 43.9622 297.388 44.7622 296.961 45.7489L293.201 43.8689C293.601 42.8022 294.254 41.8689 295.161 41.0689C296.068 40.2422 297.121 39.6022 298.321 39.1489C299.548 38.6955 300.841 38.4689 302.201 38.4689C303.908 38.4689 305.414 38.7889 306.721 39.4289C308.054 40.0689 309.081 40.9622 309.801 42.1089C310.548 43.2289 310.921 44.5355 310.921 46.0289V60.5889H306.601V56.6689L307.521 56.7889C307.014 57.6689 306.361 58.4289 305.561 59.0689C304.788 59.7089 303.894 60.2022 302.881 60.5489C301.894 60.8955 300.788 61.0689 299.561 61.0689ZM312.886 69.4289C312.593 69.4289 312.273 69.4022 311.926 69.3489C311.553 69.3222 311.246 69.2822 311.006 69.2289V65.3089C311.513 65.3889 312.019 65.4289 312.526 65.4289C313.646 65.4289 314.539 65.1355 315.206 64.5489C315.873 63.9889 316.206 63.1355 316.206 61.9889V38.9489H320.726V61.9889C320.726 63.5622 320.393 64.9089 319.726 66.0289C319.059 67.1489 318.139 67.9889 316.966 68.5489C315.793 69.1355 314.433 69.4289 312.886 69.4289ZM316.206 35.9889V30.7889H320.726V35.9889H316.206ZM328.211 51.7089L327.891 30.7889H332.491L332.211 51.7089H328.211ZM327.891 60.5889V55.3889H332.491V60.5889H327.891Z" fill="#00742E"/>
<rect x="1.5" y="2.08887" width="411" height="87" rx="43.5" stroke="#2ECA3E" stroke-width="3"/>
<path d="M2.288 142.589V123.219H8.658C10.582 123.219 12.2547 123.618 13.676 124.415C15.0973 125.195 16.198 126.313 16.978 127.769C17.758 129.208 18.148 130.915 18.148 132.891C18.148 134.85 17.758 136.557 16.978 138.013C16.198 139.469 15.0973 140.596 13.676 141.393C12.2547 142.19 10.582 142.589 8.658 142.589H2.288ZM4.368 140.639H8.658C10.1487 140.639 11.44 140.327 12.532 139.703C13.624 139.062 14.4647 138.16 15.054 136.999C15.6607 135.838 15.964 134.468 15.964 132.891C15.964 131.314 15.6607 129.953 15.054 128.809C14.4473 127.648 13.598 126.755 12.506 126.131C11.414 125.49 10.1313 125.169 8.658 125.169H4.368V140.639ZM21.2989 142.589V128.653H23.2489V130.941L22.9889 130.603C23.3182 129.944 23.8122 129.424 24.4709 129.043C25.1469 128.662 25.9615 128.471 26.9149 128.471H27.7989V130.421H26.5769C25.5715 130.421 24.7655 130.733 24.1589 131.357C23.5522 131.981 23.2489 132.865 23.2489 134.009V142.589H21.2989ZM35.024 142.901C34.0534 142.901 33.1694 142.676 32.372 142.225C31.5747 141.757 30.942 141.116 30.474 140.301C30.0234 139.469 29.798 138.516 29.798 137.441V128.653H31.748V137.207C31.748 137.952 31.8954 138.611 32.19 139.183C32.502 139.738 32.9267 140.171 33.464 140.483C34.0187 140.795 34.6514 140.951 35.362 140.951C36.0727 140.951 36.7054 140.795 37.26 140.483C37.8147 140.154 38.248 139.694 38.56 139.105C38.872 138.498 39.028 137.779 39.028 136.947V128.653H40.978V142.589H39.028V139.885L39.47 139.989C39.1407 140.89 38.5774 141.601 37.78 142.121C36.9827 142.641 36.064 142.901 35.024 142.901ZM43.5583 142.589V140.899L51.9563 129.849L52.3203 130.603H44.0003V128.653H54.0363V130.343L45.6643 141.393L45.3003 140.639H54.0883V142.589H43.5583ZM47.3803 125.949V123.349H49.9803V125.949H47.3803ZM56.954 148.309C56.6767 148.309 56.3907 148.283 56.096 148.231C55.8187 148.196 55.5413 148.127 55.264 148.023V146.203C55.4373 146.22 55.654 146.246 55.914 146.281C56.1913 146.333 56.4687 146.359 56.746 146.359C57.5953 146.359 58.2453 146.177 58.696 145.813C59.1467 145.466 59.5887 144.79 60.022 143.785L60.906 141.705L60.854 143.421L54.952 128.653H57.058L61.894 140.847H61.348L66.158 128.653H68.316L61.946 144.357C61.6687 145.033 61.3133 145.674 60.88 146.281C60.464 146.888 59.9353 147.373 59.294 147.737C58.6527 148.118 57.8727 148.309 56.954 148.309ZM70.6075 142.589V128.653H72.5575V131.357L72.1155 131.253C72.4621 130.352 73.0255 129.641 73.8055 129.121C74.6028 128.601 75.5215 128.341 76.5615 128.341C77.5495 128.341 78.4335 128.566 79.2135 129.017C80.0108 129.468 80.6348 130.092 81.0855 130.889C81.5535 131.669 81.7875 132.553 81.7875 133.541V142.589H79.8375V134.295C79.8375 133.446 79.6815 132.726 79.3695 132.137C79.0748 131.548 78.6501 131.097 78.0955 130.785C77.5581 130.456 76.9341 130.291 76.2235 130.291C75.5128 130.291 74.8801 130.456 74.3255 130.785C73.7708 131.097 73.3375 131.556 73.0255 132.163C72.7135 132.752 72.5575 133.463 72.5575 134.295V142.589H70.6075ZM85.5439 148.309C85.2665 148.309 84.9805 148.283 84.6859 148.231C84.4085 148.196 84.1312 148.127 83.8539 148.023V146.203C84.0272 146.22 84.2439 146.246 84.5039 146.281C84.7812 146.333 85.0585 146.359 85.3359 146.359C86.1852 146.359 86.8352 146.177 87.2859 145.813C87.7365 145.466 88.1785 144.79 88.6119 143.785L89.4959 141.705L89.4439 143.421L83.5419 128.653H85.6479L90.4839 140.847H89.9379L94.7479 128.653H96.9059L90.5359 144.357C90.2585 145.033 89.9032 145.674 89.4699 146.281C89.0539 146.888 88.5252 147.373 87.8839 147.737C87.2425 148.118 86.4625 148.309 85.5439 148.309ZM127.857 147.789V128.653H129.807V131.773L129.495 131.227C130.049 130.343 130.786 129.641 131.705 129.121C132.641 128.601 133.707 128.341 134.903 128.341C136.22 128.341 137.39 128.662 138.413 129.303C139.453 129.927 140.267 130.785 140.857 131.877C141.463 132.969 141.767 134.217 141.767 135.621C141.767 137.008 141.463 138.256 140.857 139.365C140.267 140.457 139.453 141.324 138.413 141.965C137.39 142.589 136.22 142.901 134.903 142.901C133.707 142.901 132.623 142.632 131.653 142.095C130.699 141.54 129.98 140.76 129.495 139.755L129.807 139.469V147.789H127.857ZM134.799 140.951C135.735 140.951 136.567 140.717 137.295 140.249C138.04 139.781 138.621 139.148 139.037 138.351C139.47 137.536 139.687 136.626 139.687 135.621C139.687 134.598 139.47 133.688 139.037 132.891C138.621 132.094 138.04 131.461 137.295 130.993C136.567 130.525 135.735 130.291 134.799 130.291C133.863 130.291 133.013 130.525 132.251 130.993C131.505 131.461 130.907 132.102 130.457 132.917C130.023 133.714 129.807 134.616 129.807 135.621C129.807 136.626 130.023 137.536 130.457 138.351C130.907 139.148 131.505 139.781 132.251 140.249C133.013 140.717 133.863 140.951 134.799 140.951ZM151.725 142.901C150.407 142.901 149.211 142.589 148.137 141.965C147.062 141.324 146.204 140.457 145.563 139.365C144.939 138.256 144.627 136.999 144.627 135.595C144.627 134.208 144.939 132.969 145.563 131.877C146.187 130.785 147.027 129.927 148.085 129.303C149.159 128.662 150.373 128.341 151.725 128.341C153.077 128.341 154.281 128.653 155.339 129.277C156.413 129.901 157.254 130.759 157.861 131.851C158.485 132.943 158.797 134.191 158.797 135.595C158.797 137.016 158.476 138.282 157.835 139.391C157.193 140.483 156.335 141.341 155.261 141.965C154.203 142.589 153.025 142.901 151.725 142.901ZM151.725 140.951C152.661 140.951 153.501 140.717 154.247 140.249C155.009 139.781 155.607 139.14 156.041 138.325C156.491 137.51 156.717 136.6 156.717 135.595C156.717 134.59 156.491 133.688 156.041 132.891C155.607 132.094 155.009 131.461 154.247 130.993C153.501 130.525 152.661 130.291 151.725 130.291C150.789 130.291 149.939 130.525 149.177 130.993C148.431 131.461 147.833 132.094 147.383 132.891C146.932 133.688 146.707 134.59 146.707 135.595C146.707 136.6 146.932 137.51 147.383 138.325C147.833 139.14 148.431 139.781 149.177 140.249C149.939 140.717 150.789 140.951 151.725 140.951ZM168.528 142.901C167.228 142.901 166.058 142.589 165.018 141.965C163.978 141.324 163.154 140.457 162.548 139.365C161.958 138.256 161.664 137.008 161.664 135.621C161.664 134.217 161.958 132.969 162.548 131.877C163.154 130.785 163.969 129.927 164.992 129.303C166.032 128.662 167.21 128.341 168.528 128.341C169.724 128.341 170.79 128.601 171.726 129.121C172.662 129.641 173.398 130.343 173.936 131.227L173.624 131.773V122.907H175.574V142.589H173.624V139.469L173.936 139.755C173.45 140.76 172.722 141.54 171.752 142.095C170.798 142.632 169.724 142.901 168.528 142.901ZM168.632 140.951C169.568 140.951 170.408 140.717 171.154 140.249C171.916 139.781 172.514 139.148 172.948 138.351C173.398 137.536 173.624 136.626 173.624 135.621C173.624 134.616 173.398 133.714 172.948 132.917C172.514 132.102 171.916 131.461 171.154 130.993C170.408 130.525 169.568 130.291 168.632 130.291C167.713 130.291 166.881 130.525 166.136 130.993C165.39 131.461 164.801 132.094 164.368 132.891C163.952 133.688 163.744 134.598 163.744 135.621C163.744 136.626 163.952 137.536 164.368 138.351C164.801 139.148 165.382 139.781 166.11 140.249C166.855 140.717 167.696 140.951 168.632 140.951ZM183.608 142.901C182.724 142.901 181.935 142.736 181.242 142.407C180.548 142.06 180.002 141.592 179.604 141.003C179.205 140.414 179.006 139.738 179.006 138.975C179.006 138.247 179.162 137.588 179.474 136.999C179.786 136.392 180.271 135.881 180.93 135.465C181.588 135.049 182.429 134.754 183.452 134.581L188.912 133.671V135.439L183.92 136.271C182.914 136.444 182.186 136.765 181.736 137.233C181.302 137.701 181.086 138.256 181.086 138.897C181.086 139.521 181.328 140.05 181.814 140.483C182.316 140.916 182.958 141.133 183.738 141.133C184.691 141.133 185.523 140.934 186.234 140.535C186.944 140.119 187.499 139.564 187.898 138.871C188.296 138.178 188.496 137.406 188.496 136.557V133.021C188.496 132.189 188.192 131.513 187.586 130.993C186.979 130.473 186.19 130.213 185.22 130.213C184.37 130.213 183.625 130.43 182.984 130.863C182.342 131.279 181.866 131.825 181.554 132.501L179.786 131.539C180.046 130.95 180.453 130.412 181.008 129.927C181.58 129.442 182.23 129.06 182.958 128.783C183.686 128.488 184.44 128.341 185.22 128.341C186.242 128.341 187.144 128.54 187.924 128.939C188.721 129.338 189.336 129.892 189.77 130.603C190.22 131.296 190.446 132.102 190.446 133.021V142.589H188.496V139.807L188.782 140.093C188.539 140.613 188.158 141.09 187.638 141.523C187.135 141.939 186.537 142.277 185.844 142.537C185.168 142.78 184.422 142.901 183.608 142.901ZM188.704 148.569C187.768 148.569 187.022 148.326 186.468 147.841C185.93 147.356 185.662 146.723 185.662 145.943C185.662 145.302 185.818 144.721 186.13 144.201C186.459 143.698 186.884 143.256 187.404 142.875C187.924 142.511 188.478 142.242 189.068 142.069H189.874V142.589C189.527 142.676 189.172 142.866 188.808 143.161C188.444 143.456 188.14 143.82 187.898 144.253C187.655 144.704 187.534 145.198 187.534 145.735C187.534 146.064 187.664 146.359 187.924 146.619C188.184 146.879 188.53 147.009 188.964 147.009C189.293 147.009 189.622 146.94 189.952 146.801C190.298 146.662 190.602 146.472 190.862 146.229L191.408 147.607C191.096 147.902 190.688 148.136 190.186 148.309C189.7 148.482 189.206 148.569 188.704 148.569ZM193.026 142.589V140.899L201.424 129.849L201.788 130.603H193.468V128.653H203.504V130.343L195.132 141.393L194.768 140.639H203.556V142.589H193.026ZM196.848 125.949V123.349H199.448V125.949H196.848ZM210.166 142.901C209.282 142.901 208.493 142.736 207.8 142.407C207.107 142.06 206.561 141.592 206.162 141.003C205.763 140.414 205.564 139.738 205.564 138.975C205.564 138.247 205.72 137.588 206.032 136.999C206.344 136.392 206.829 135.881 207.488 135.465C208.147 135.049 208.987 134.754 210.01 134.581L215.47 133.671V135.439L210.478 136.271C209.473 136.444 208.745 136.765 208.294 137.233C207.861 137.701 207.644 138.256 207.644 138.897C207.644 139.521 207.887 140.05 208.372 140.483C208.875 140.916 209.516 141.133 210.296 141.133C211.249 141.133 212.081 140.934 212.792 140.535C213.503 140.119 214.057 139.564 214.456 138.871C214.855 138.178 215.054 137.406 215.054 136.557V133.021C215.054 132.189 214.751 131.513 214.144 130.993C213.537 130.473 212.749 130.213 211.778 130.213C210.929 130.213 210.183 130.43 209.542 130.863C208.901 131.279 208.424 131.825 208.112 132.501L206.344 131.539C206.604 130.95 207.011 130.412 207.566 129.927C208.138 129.442 208.788 129.06 209.516 128.783C210.244 128.488 210.998 128.341 211.778 128.341C212.801 128.341 213.702 128.54 214.482 128.939C215.279 129.338 215.895 129.892 216.328 130.603C216.779 131.296 217.004 132.102 217.004 133.021V142.589H215.054V139.807L215.34 140.093C215.097 140.613 214.716 141.09 214.196 141.523C213.693 141.939 213.095 142.277 212.402 142.537C211.726 142.78 210.981 142.901 210.166 142.901ZM218.415 148.309C218.294 148.309 218.129 148.3 217.921 148.283C217.696 148.266 217.514 148.24 217.375 148.205V146.411C217.739 146.463 218.103 146.489 218.467 146.489C219.178 146.489 219.776 146.272 220.261 145.839C220.764 145.406 221.015 144.756 221.015 143.889V128.653H222.965V143.889C222.965 144.842 222.757 145.648 222.341 146.307C221.925 146.966 221.37 147.46 220.677 147.789C220.001 148.136 219.247 148.309 218.415 148.309ZM221.015 126.079V123.219H222.965V126.079H221.015ZM230.986 142.901C230.102 142.901 229.314 142.736 228.62 142.407C227.927 142.06 227.381 141.592 226.982 141.003C226.584 140.414 226.384 139.738 226.384 138.975C226.384 138.247 226.54 137.588 226.852 136.999C227.164 136.392 227.65 135.881 228.308 135.465C228.967 135.049 229.808 134.754 230.83 134.581L236.29 133.671V135.439L231.298 136.271C230.293 136.444 229.565 136.765 229.114 137.233C228.681 137.701 228.464 138.256 228.464 138.897C228.464 139.521 228.707 140.05 229.192 140.483C229.695 140.916 230.336 141.133 231.116 141.133C232.07 141.133 232.902 140.934 233.612 140.535C234.323 140.119 234.878 139.564 235.276 138.871C235.675 138.178 235.874 137.406 235.874 136.557V133.021C235.874 132.189 235.571 131.513 234.964 130.993C234.358 130.473 233.569 130.213 232.598 130.213C231.749 130.213 231.004 130.43 230.362 130.863C229.721 131.279 229.244 131.825 228.932 132.501L227.164 131.539C227.424 130.95 227.832 130.412 228.386 129.927C228.958 129.442 229.608 129.06 230.336 128.783C231.064 128.488 231.818 128.341 232.598 128.341C233.621 128.341 234.522 128.54 235.302 128.939C236.1 129.338 236.715 129.892 237.148 130.603C237.599 131.296 237.824 132.102 237.824 133.021V142.589H235.874V139.807L236.16 140.093C235.918 140.613 235.536 141.09 235.016 141.523C234.514 141.939 233.916 142.277 233.222 142.537C232.546 142.78 231.801 142.901 230.986 142.901ZM236.082 148.569C235.146 148.569 234.401 148.326 233.846 147.841C233.309 147.356 233.04 146.723 233.04 145.943C233.04 145.302 233.196 144.721 233.508 144.201C233.838 143.698 234.262 143.256 234.782 142.875C235.302 142.511 235.857 142.242 236.446 142.069H237.252V142.589C236.906 142.676 236.55 142.866 236.186 143.161C235.822 143.456 235.519 143.82 235.276 144.253C235.034 144.704 234.912 145.198 234.912 145.735C234.912 146.064 235.042 146.359 235.302 146.619C235.562 146.879 235.909 147.009 236.342 147.009C236.672 147.009 237.001 146.94 237.33 146.801C237.677 146.662 237.98 146.472 238.24 146.229L238.786 147.607C238.474 147.902 238.067 148.136 237.564 148.309C237.079 148.482 236.585 148.569 236.082 148.569ZM269.065 142.589V140.899L277.463 129.849L277.827 130.603H269.507V128.653H279.543V130.343L271.171 141.393L270.807 140.639H279.595V142.589H269.065ZM286.205 142.901C285.321 142.901 284.532 142.736 283.839 142.407C283.145 142.06 282.599 141.592 282.201 141.003C281.802 140.414 281.603 139.738 281.603 138.975C281.603 138.247 281.759 137.588 282.071 136.999C282.383 136.392 282.868 135.881 283.527 135.465C284.185 135.049 285.026 134.754 286.049 134.581L291.509 133.671V135.439L286.517 136.271C285.511 136.444 284.783 136.765 284.333 137.233C283.899 137.701 283.683 138.256 283.683 138.897C283.683 139.521 283.925 140.05 284.411 140.483C284.913 140.916 285.555 141.133 286.335 141.133C287.288 141.133 288.12 140.934 288.831 140.535C289.541 140.119 290.096 139.564 290.495 138.871C290.893 138.178 291.093 137.406 291.093 136.557V133.021C291.093 132.189 290.789 131.513 290.183 130.993C289.576 130.473 288.787 130.213 287.817 130.213C286.967 130.213 286.222 130.43 285.581 130.863C284.939 131.279 284.463 131.825 284.151 132.501L282.383 131.539C282.643 130.95 283.05 130.412 283.605 129.927C284.177 129.442 284.827 129.06 285.555 128.783C286.283 128.488 287.037 128.341 287.817 128.341C288.839 128.341 289.741 128.54 290.521 128.939C291.318 129.338 291.933 129.892 292.367 130.603C292.817 131.296 293.043 132.102 293.043 133.021V142.589H291.093V139.807L291.379 140.093C291.136 140.613 290.755 141.09 290.235 141.523C289.732 141.939 289.134 142.277 288.441 142.537C287.765 142.78 287.019 142.901 286.205 142.901ZM325.713 142.589V122.907H327.663V131.357L327.221 131.253C327.568 130.352 328.131 129.641 328.911 129.121C329.708 128.601 330.627 128.341 331.667 128.341C332.655 128.341 333.539 128.566 334.319 129.017C335.116 129.468 335.74 130.092 336.191 130.889C336.659 131.669 336.893 132.553 336.893 133.541V142.589H334.943V134.295C334.943 133.446 334.787 132.726 334.475 132.137C334.163 131.548 333.73 131.097 333.175 130.785C332.638 130.456 332.022 130.291 331.329 130.291C330.636 130.291 330.012 130.456 329.457 130.785C328.902 131.097 328.46 131.556 328.131 132.163C327.819 132.752 327.663 133.463 327.663 134.295V142.589H325.713ZM340.617 142.589V128.653H342.567V142.589H340.617ZM340.617 126.079V123.219H342.567V126.079H340.617ZM351.395 142.901C350.06 142.901 348.89 142.563 347.885 141.887C346.879 141.211 346.151 140.292 345.701 139.131L347.339 138.351C347.737 139.2 348.292 139.876 349.003 140.379C349.731 140.882 350.528 141.133 351.395 141.133C352.227 141.133 352.929 140.934 353.501 140.535C354.073 140.119 354.359 139.582 354.359 138.923C354.359 138.438 354.22 138.056 353.943 137.779C353.665 137.484 353.345 137.259 352.981 137.103C352.617 136.947 352.296 136.834 352.019 136.765L350.017 136.193C348.734 135.829 347.807 135.318 347.235 134.659C346.663 134 346.377 133.238 346.377 132.371C346.377 131.556 346.585 130.846 347.001 130.239C347.417 129.632 347.98 129.164 348.691 128.835C349.401 128.506 350.19 128.341 351.057 128.341C352.235 128.341 353.301 128.653 354.255 129.277C355.225 129.884 355.91 130.733 356.309 131.825L354.645 132.605C354.298 131.825 353.795 131.218 353.137 130.785C352.495 130.334 351.776 130.109 350.979 130.109C350.199 130.109 349.575 130.308 349.107 130.707C348.639 131.106 348.405 131.608 348.405 132.215C348.405 132.683 348.526 133.056 348.769 133.333C349.011 133.61 349.289 133.818 349.601 133.957C349.93 134.096 350.216 134.2 350.459 134.269L352.773 134.945C353.899 135.274 354.775 135.786 355.399 136.479C356.04 137.172 356.361 137.987 356.361 138.923C356.361 139.686 356.144 140.37 355.711 140.977C355.295 141.584 354.714 142.06 353.969 142.407C353.223 142.736 352.365 142.901 351.395 142.901ZM365.117 142.745C363.869 142.745 362.907 142.381 362.231 141.653C361.555 140.925 361.217 139.885 361.217 138.533V130.603H358.643V128.653H359.293C359.882 128.653 360.35 128.462 360.697 128.081C361.044 127.682 361.217 127.188 361.217 126.599V125.429H363.167V128.653H366.235V130.603H363.167V138.533C363.167 139.001 363.236 139.417 363.375 139.781C363.514 140.128 363.748 140.405 364.077 140.613C364.424 140.821 364.883 140.925 365.455 140.925C365.594 140.925 365.758 140.916 365.949 140.899C366.14 140.882 366.304 140.864 366.443 140.847V142.589C366.235 142.641 366.001 142.676 365.741 142.693C365.481 142.728 365.273 142.745 365.117 142.745ZM375.885 142.901C374.568 142.901 373.372 142.589 372.297 141.965C371.223 141.324 370.365 140.457 369.723 139.365C369.099 138.256 368.787 136.999 368.787 135.595C368.787 134.208 369.099 132.969 369.723 131.877C370.347 130.785 371.188 129.927 372.245 129.303C373.32 128.662 374.533 128.341 375.885 128.341C377.237 128.341 378.442 128.653 379.499 129.277C380.574 129.901 381.415 130.759 382.021 131.851C382.645 132.943 382.957 134.191 382.957 135.595C382.957 137.016 382.637 138.282 381.995 139.391C381.354 140.483 380.496 141.341 379.421 141.965C378.364 142.589 377.185 142.901 375.885 142.901ZM375.885 140.951C376.821 140.951 377.662 140.717 378.407 140.249C379.17 139.781 379.768 139.14 380.201 138.325C380.652 137.51 380.877 136.6 380.877 135.595C380.877 134.59 380.652 133.688 380.201 132.891C379.768 132.094 379.17 131.461 378.407 130.993C377.662 130.525 376.821 130.291 375.885 130.291C374.949 130.291 374.1 130.525 373.337 130.993C372.592 131.461 371.994 132.094 371.543 132.891C371.093 133.688 370.867 134.59 370.867 135.595C370.867 136.6 371.093 137.51 371.543 138.325C371.994 139.14 372.592 139.781 373.337 140.249C374.1 140.717 374.949 140.951 375.885 140.951ZM386.397 142.589V128.653H388.347V130.941L388.087 130.603C388.416 129.944 388.91 129.424 389.569 129.043C390.245 128.662 391.059 128.471 392.013 128.471H392.897V130.421H391.675C390.669 130.421 389.863 130.733 389.257 131.357C388.65 131.981 388.347 132.865 388.347 134.009V142.589H386.397ZM395.182 142.589V128.653H397.132V142.589H395.182ZM395.182 126.079V123.219H397.132V126.079H395.182ZM405.153 142.901C404.269 142.901 403.48 142.736 402.787 142.407C402.094 142.06 401.548 141.592 401.149 141.003C400.75 140.414 400.551 139.738 400.551 138.975C400.551 138.247 400.707 137.588 401.019 136.999C401.331 136.392 401.816 135.881 402.475 135.465C403.134 135.049 403.974 134.754 404.997 134.581L410.457 133.671V135.439L405.465 136.271C404.46 136.444 403.732 136.765 403.281 137.233C402.848 137.701 402.631 138.256 402.631 138.897C402.631 139.521 402.874 140.05 403.359 140.483C403.862 140.916 404.503 141.133 405.283 141.133C406.236 141.133 407.068 140.934 407.779 140.535C408.49 140.119 409.044 139.564 409.443 138.871C409.842 138.178 410.041 137.406 410.041 136.557V133.021C410.041 132.189 409.738 131.513 409.131 130.993C408.524 130.473 407.736 130.213 406.765 130.213C405.916 130.213 405.17 130.43 404.529 130.863C403.888 131.279 403.411 131.825 403.099 132.501L401.331 131.539C401.591 130.95 401.998 130.412 402.553 129.927C403.125 129.442 403.775 129.06 404.503 128.783C405.231 128.488 405.985 128.341 406.765 128.341C407.788 128.341 408.689 128.54 409.469 128.939C410.266 129.338 410.882 129.892 411.315 130.603C411.766 131.296 411.991 132.102 411.991 133.021V142.589H410.041V139.807L410.327 140.093C410.084 140.613 409.703 141.09 409.183 141.523C408.68 141.939 408.082 142.277 407.389 142.537C406.713 142.78 405.968 142.901 405.153 142.901ZM410.249 148.569C409.313 148.569 408.568 148.326 408.013 147.841C407.476 147.356 407.207 146.723 407.207 145.943C407.207 145.302 407.363 144.721 407.675 144.201C408.004 143.698 408.429 143.256 408.949 142.875C409.469 142.511 410.024 142.242 410.613 142.069H411.419V142.589C411.072 142.676 410.717 142.866 410.353 143.161C409.989 143.456 409.686 143.82 409.443 144.253C409.2 144.704 409.079 145.198 409.079 145.735C409.079 146.064 409.209 146.359 409.469 146.619C409.729 146.879 410.076 147.009 410.509 147.009C410.838 147.009 411.168 146.94 411.497 146.801C411.844 146.662 412.147 146.472 412.407 146.229L412.953 147.607C412.641 147.902 412.234 148.136 411.731 148.309C411.246 148.482 410.752 148.569 410.249 148.569ZM9.048 173.901C7.852 173.901 6.76867 173.632 5.798 173.095C4.84467 172.54 4.12533 171.76 3.64 170.755L3.952 170.469V173.589H2.002V153.907H3.952V162.773L3.64 162.227C4.19467 161.343 4.93133 160.641 5.85 160.121C6.786 159.601 7.852 159.341 9.048 159.341C10.3653 159.341 11.5353 159.662 12.558 160.303C13.598 160.927 14.4127 161.785 15.002 162.877C15.6087 163.969 15.912 165.217 15.912 166.621C15.912 168.008 15.6087 169.256 15.002 170.365C14.4127 171.457 13.598 172.324 12.558 172.965C11.5353 173.589 10.3653 173.901 9.048 173.901ZM8.944 171.951C9.88 171.951 10.712 171.717 11.44 171.249C12.1853 170.781 12.766 170.148 13.182 169.351C13.6153 168.536 13.832 167.626 13.832 166.621C13.832 165.598 13.6153 164.688 13.182 163.891C12.766 163.094 12.1853 162.461 11.44 161.993C10.712 161.525 9.88 161.291 8.944 161.291C8.008 161.291 7.15867 161.525 6.396 161.993C5.65067 162.461 5.05267 163.102 4.602 163.917C4.16867 164.714 3.952 165.616 3.952 166.621C3.952 167.626 4.16867 168.536 4.602 169.351C5.05267 170.148 5.65067 170.781 6.396 171.249C7.15867 171.717 8.008 171.951 8.944 171.951ZM25.8698 173.901C24.5525 173.901 23.3565 173.589 22.2818 172.965C21.2071 172.324 20.3491 171.457 19.7078 170.365C19.0838 169.256 18.7718 167.999 18.7718 166.595C18.7718 165.208 19.0838 163.969 19.7078 162.877C20.3318 161.785 21.1725 160.927 22.2298 160.303C23.3045 159.662 24.5178 159.341 25.8698 159.341C27.2218 159.341 28.4265 159.653 29.4838 160.277C30.5585 160.901 31.3991 161.759 32.0058 162.851C32.6298 163.943 32.9418 165.191 32.9418 166.595C32.9418 168.016 32.6211 169.282 31.9798 170.391C31.3385 171.483 30.4805 172.341 29.4058 172.965C28.3485 173.589 27.1698 173.901 25.8698 173.901ZM25.8698 171.951C26.8058 171.951 27.6465 171.717 28.3918 171.249C29.1545 170.781 29.7525 170.14 30.1858 169.325C30.6365 168.51 30.8618 167.6 30.8618 166.595C30.8618 165.59 30.6365 164.688 30.1858 163.891C29.7525 163.094 29.1545 162.461 28.3918 161.993C27.6465 161.525 26.8058 161.291 25.8698 161.291C24.9338 161.291 24.0845 161.525 23.3218 161.993C22.5765 162.461 21.9785 163.094 21.5278 163.891C21.0771 164.688 20.8518 165.59 20.8518 166.595C20.8518 167.6 21.0771 168.51 21.5278 169.325C21.9785 170.14 22.5765 170.781 23.3218 171.249C24.0845 171.717 24.9338 171.951 25.8698 171.951ZM36.3809 173.589V153.907H38.3309V162.357L37.8889 162.253C38.2356 161.352 38.7989 160.641 39.5789 160.121C40.3762 159.601 41.2949 159.341 42.3349 159.341C43.3229 159.341 44.2069 159.566 44.9869 160.017C45.7842 160.468 46.4082 161.092 46.8589 161.889C47.3269 162.669 47.5609 163.553 47.5609 164.541V173.589H45.6109V165.295C45.6109 164.446 45.4549 163.726 45.1429 163.137C44.8309 162.548 44.3976 162.097 43.8429 161.785C43.3056 161.456 42.6902 161.291 41.9969 161.291C41.3036 161.291 40.6796 161.456 40.1249 161.785C39.5702 162.097 39.1282 162.556 38.7989 163.163C38.4869 163.752 38.3309 164.463 38.3309 165.295V173.589H36.3809ZM55.3152 173.901C54.4312 173.901 53.6425 173.736 52.9492 173.407C52.2559 173.06 51.7099 172.592 51.3112 172.003C50.9125 171.414 50.7132 170.738 50.7132 169.975C50.7132 169.247 50.8692 168.588 51.1812 167.999C51.4932 167.392 51.9785 166.881 52.6372 166.465C53.2959 166.049 54.1365 165.754 55.1592 165.581L60.6192 164.671V166.439L55.6272 167.271C54.6219 167.444 53.8939 167.765 53.4432 168.233C53.0099 168.701 52.7932 169.256 52.7932 169.897C52.7932 170.521 53.0359 171.05 53.5212 171.483C54.0239 171.916 54.6652 172.133 55.4452 172.133C56.3985 172.133 57.2305 171.934 57.9412 171.535C58.6519 171.119 59.2065 170.564 59.6052 169.871C60.0039 169.178 60.2032 168.406 60.2032 167.557V164.021C60.2032 163.189 59.8999 162.513 59.2932 161.993C58.6865 161.473 57.8979 161.213 56.9272 161.213C56.0779 161.213 55.3325 161.43 54.6912 161.863C54.0499 162.279 53.5732 162.825 53.2612 163.501L51.4932 162.539C51.7532 161.95 52.1605 161.412 52.7152 160.927C53.2872 160.442 53.9372 160.06 54.6652 159.783C55.3932 159.488 56.1472 159.341 56.9272 159.341C57.9499 159.341 58.8512 159.54 59.6312 159.939C60.4285 160.338 61.0439 160.892 61.4772 161.603C61.9279 162.296 62.1532 163.102 62.1532 164.021V173.589H60.2032V170.807L60.4892 171.093C60.2465 171.613 59.8652 172.09 59.3452 172.523C58.8425 172.939 58.2445 173.277 57.5512 173.537C56.8752 173.78 56.1299 173.901 55.3152 173.901ZM71.2402 173.745C69.9922 173.745 69.0302 173.381 68.3542 172.653C67.6782 171.925 67.3402 170.885 67.3402 169.533V161.603H64.7662V159.653H65.4162C66.0055 159.653 66.4735 159.462 66.8202 159.081C67.1669 158.682 67.3402 158.188 67.3402 157.599V156.429H69.2902V159.653H72.3582V161.603H69.2902V169.533C69.2902 170.001 69.3595 170.417 69.4982 170.781C69.6369 171.128 69.8709 171.405 70.2002 171.613C70.5469 171.821 71.0062 171.925 71.5782 171.925C71.7169 171.925 71.8815 171.916 72.0722 171.899C72.2629 171.882 72.4275 171.864 72.5662 171.847V173.589C72.3582 173.641 72.1242 173.676 71.8642 173.693C71.6042 173.728 71.3962 173.745 71.2402 173.745ZM81.8265 173.901C80.5265 173.901 79.3478 173.589 78.2905 172.965C77.2505 172.324 76.4271 171.448 75.8205 170.339C75.2138 169.23 74.9105 167.973 74.9105 166.569C74.9105 165.165 75.2051 163.926 75.7945 162.851C76.3838 161.759 77.1811 160.901 78.1865 160.277C79.2091 159.653 80.3531 159.341 81.6185 159.341C82.6238 159.341 83.5165 159.532 84.2965 159.913C85.0938 160.277 85.7698 160.78 86.3245 161.421C86.8791 162.045 87.3038 162.756 87.5985 163.553C87.8931 164.333 88.0405 165.139 88.0405 165.971C88.0405 166.144 88.0318 166.344 88.0145 166.569C87.9971 166.777 87.9711 166.994 87.9365 167.219H76.1585V165.399H86.8185L85.8825 166.179C86.0385 165.226 85.9258 164.376 85.5445 163.631C85.1805 162.868 84.6518 162.27 83.9585 161.837C83.2651 161.386 82.4851 161.161 81.6185 161.161C80.7518 161.161 79.9458 161.386 79.2005 161.837C78.4725 162.288 77.9005 162.92 77.4845 163.735C77.0685 164.532 76.9038 165.486 76.9905 166.595C76.9038 167.704 77.0771 168.675 77.5105 169.507C77.9611 170.322 78.5678 170.954 79.3305 171.405C80.1105 171.856 80.9425 172.081 81.8265 172.081C82.8491 172.081 83.7071 171.838 84.4005 171.353C85.0938 170.868 85.6571 170.261 86.0905 169.533L87.7545 170.417C87.4771 171.041 87.0525 171.622 86.4805 172.159C85.9085 172.679 85.2238 173.104 84.4265 173.433C83.6465 173.745 82.7798 173.901 81.8265 173.901ZM91.4786 173.589V159.653H93.4286V161.941L93.1686 161.603C93.4979 160.944 93.9919 160.424 94.6506 160.043C95.3266 159.662 96.1412 159.471 97.0946 159.471H97.9786V161.421H96.7566C95.7512 161.421 94.9452 161.733 94.3386 162.357C93.7319 162.981 93.4286 163.865 93.4286 165.009V173.589H91.4786ZM106.79 173.901C105.472 173.901 104.276 173.589 103.202 172.965C102.127 172.324 101.269 171.457 100.628 170.365C100.004 169.256 99.6917 167.999 99.6917 166.595C99.6917 165.208 100.004 163.969 100.628 162.877C101.252 161.785 102.092 160.927 103.15 160.303C104.224 159.662 105.438 159.341 106.79 159.341C108.142 159.341 109.346 159.653 110.404 160.277C111.478 160.901 112.319 161.759 112.926 162.851C113.55 163.943 113.862 165.191 113.862 166.595C113.862 168.016 113.541 169.282 112.9 170.391C112.258 171.483 111.4 172.341 110.326 172.965C109.268 173.589 108.09 173.901 106.79 173.901ZM106.79 171.951C107.726 171.951 108.566 171.717 109.312 171.249C110.074 170.781 110.672 170.14 111.106 169.325C111.556 168.51 111.782 167.6 111.782 166.595C111.782 165.59 111.556 164.688 111.106 163.891C110.672 163.094 110.074 162.461 109.312 161.993C108.566 161.525 107.726 161.291 106.79 161.291C105.854 161.291 105.004 161.525 104.242 161.993C103.496 162.461 102.898 163.094 102.448 163.891C101.997 164.688 101.772 165.59 101.772 166.595C101.772 167.6 101.997 168.51 102.448 169.325C102.898 170.14 103.496 170.781 104.242 171.249C105.004 171.717 105.854 171.951 106.79 171.951ZM105.802 156.949L108.064 153.049H110.742L107.778 156.949H105.802ZM120.115 173.589L115.331 159.653H117.541L121.493 171.847H120.713L124.431 159.653H126.381L130.099 171.847H129.319L133.297 159.653H135.481L130.697 173.589H128.747L125.133 161.655H125.679L122.065 173.589H120.115ZM153.738 173.589V159.653H155.688V173.589H153.738ZM153.738 157.079V154.219H155.688V157.079H153.738ZM174.222 173.589V171.899L182.62 160.849L182.984 161.603H174.664V159.653H184.7V161.343L176.328 172.393L175.964 171.639H184.752V173.589H174.222ZM193.624 173.901C192.324 173.901 191.154 173.589 190.114 172.965C189.074 172.324 188.251 171.457 187.644 170.365C187.055 169.256 186.76 168.008 186.76 166.621C186.76 165.217 187.055 163.969 187.644 162.877C188.251 161.785 189.065 160.927 190.088 160.303C191.128 159.662 192.307 159.341 193.624 159.341C194.82 159.341 195.886 159.601 196.822 160.121C197.758 160.641 198.495 161.343 199.032 162.227L198.72 162.773V153.907H200.67V173.589H198.72V170.469L199.032 170.755C198.547 171.76 197.819 172.54 196.848 173.095C195.895 173.632 194.82 173.901 193.624 173.901ZM193.728 171.951C194.664 171.951 195.505 171.717 196.25 171.249C197.013 170.781 197.611 170.148 198.044 169.351C198.495 168.536 198.72 167.626 198.72 166.621C198.72 165.616 198.495 164.714 198.044 163.917C197.611 163.102 197.013 162.461 196.25 161.993C195.505 161.525 194.664 161.291 193.728 161.291C192.809 161.291 191.977 161.525 191.232 161.993C190.487 162.461 189.897 163.094 189.464 163.891C189.048 164.688 188.84 165.598 188.84 166.621C188.84 167.626 189.048 168.536 189.464 169.351C189.897 170.148 190.478 170.781 191.206 171.249C191.951 171.717 192.792 171.951 193.728 171.951ZM211.2 173.901C209.883 173.901 208.687 173.589 207.612 172.965C206.537 172.324 205.679 171.457 205.038 170.365C204.414 169.256 204.102 167.999 204.102 166.595C204.102 165.208 204.414 163.969 205.038 162.877C205.662 161.785 206.503 160.927 207.56 160.303C208.635 159.662 209.848 159.341 211.2 159.341C212.552 159.341 213.757 159.653 214.814 160.277C215.889 160.901 216.729 161.759 217.336 162.851C217.96 163.943 218.272 165.191 218.272 166.595C218.272 168.016 217.951 169.282 217.31 170.391C216.669 171.483 215.811 172.341 214.736 172.965C213.679 173.589 212.5 173.901 211.2 173.901ZM211.2 171.951C212.136 171.951 212.977 171.717 213.722 171.249C214.485 170.781 215.083 170.14 215.516 169.325C215.967 168.51 216.192 167.6 216.192 166.595C216.192 165.59 215.967 164.688 215.516 163.891C215.083 163.094 214.485 162.461 213.722 161.993C212.977 161.525 212.136 161.291 211.2 161.291C210.264 161.291 209.415 161.525 208.652 161.993C207.907 162.461 207.309 163.094 206.858 163.891C206.407 164.688 206.182 165.59 206.182 166.595C206.182 167.6 206.407 168.51 206.858 169.325C207.309 170.14 207.907 170.781 208.652 171.249C209.415 171.717 210.264 171.951 211.2 171.951ZM228.757 173.901C227.561 173.901 226.478 173.632 225.507 173.095C224.554 172.54 223.834 171.76 223.349 170.755L223.661 170.469V173.589H221.711V153.907H223.661V162.773L223.349 162.227C223.904 161.343 224.64 160.641 225.559 160.121C226.495 159.601 227.561 159.341 228.757 159.341C230.074 159.341 231.244 159.662 232.267 160.303C233.307 160.927 234.122 161.785 234.711 162.877C235.318 163.969 235.621 165.217 235.621 166.621C235.621 168.008 235.318 169.256 234.711 170.365C234.122 171.457 233.307 172.324 232.267 172.965C231.244 173.589 230.074 173.901 228.757 173.901ZM228.653 171.951C229.589 171.951 230.421 171.717 231.149 171.249C231.894 170.781 232.475 170.148 232.891 169.351C233.324 168.536 233.541 167.626 233.541 166.621C233.541 165.598 233.324 164.688 232.891 163.891C232.475 163.094 231.894 162.461 231.149 161.993C230.421 161.525 229.589 161.291 228.653 161.291C227.717 161.291 226.868 161.525 226.105 161.993C225.36 162.461 224.762 163.102 224.311 163.917C223.878 164.714 223.661 165.616 223.661 166.621C223.661 167.626 223.878 168.536 224.311 169.351C224.762 170.148 225.36 170.781 226.105 171.249C226.868 171.717 227.717 171.951 228.653 171.951ZM239.085 179.309C238.808 179.309 238.522 179.283 238.227 179.231C237.95 179.196 237.672 179.127 237.395 179.023V177.203C237.568 177.22 237.785 177.246 238.045 177.281C238.322 177.333 238.6 177.359 238.877 177.359C239.726 177.359 240.376 177.177 240.827 176.813C241.278 176.466 241.72 175.79 242.153 174.785L243.037 172.705L242.985 174.421L237.083 159.653H239.189L244.025 171.847H243.479L248.289 159.653H250.447L244.077 175.357C243.8 176.033 243.444 176.674 243.011 177.281C242.595 177.888 242.066 178.373 241.425 178.737C240.784 179.118 240.004 179.309 239.085 179.309ZM255.806 173.589L251.022 159.653H253.232L257.184 171.847H256.404L260.122 159.653H262.072L265.79 171.847H265.01L268.988 159.653H271.172L266.388 173.589H264.438L260.824 161.655H261.37L257.756 173.589H255.806ZM276.979 173.901C276.095 173.901 275.307 173.736 274.613 173.407C273.92 173.06 273.374 172.592 272.975 172.003C272.577 171.414 272.377 170.738 272.377 169.975C272.377 169.247 272.533 168.588 272.845 167.999C273.157 167.392 273.643 166.881 274.301 166.465C274.96 166.049 275.801 165.754 276.823 165.581L282.283 164.671V166.439L277.291 167.271C276.286 167.444 275.558 167.765 275.107 168.233C274.674 168.701 274.457 169.256 274.457 169.897C274.457 170.521 274.7 171.05 275.185 171.483C275.688 171.916 276.329 172.133 277.109 172.133C278.063 172.133 278.895 171.934 279.605 171.535C280.316 171.119 280.871 170.564 281.269 169.871C281.668 169.178 281.867 168.406 281.867 167.557V164.021C281.867 163.189 281.564 162.513 280.957 161.993C280.351 161.473 279.562 161.213 278.591 161.213C277.742 161.213 276.997 161.43 276.355 161.863C275.714 162.279 275.237 162.825 274.925 163.501L273.157 162.539C273.417 161.95 273.825 161.412 274.379 160.927C274.951 160.442 275.601 160.06 276.329 159.783C277.057 159.488 277.811 159.341 278.591 159.341C279.614 159.341 280.515 159.54 281.295 159.939C282.093 160.338 282.708 160.892 283.141 161.603C283.592 162.296 283.817 163.102 283.817 164.021V173.589H281.867V170.807L282.153 171.093C281.911 171.613 281.529 172.09 281.009 172.523C280.507 172.939 279.909 173.277 279.215 173.537C278.539 173.78 277.794 173.901 276.979 173.901ZM285.228 179.309C285.107 179.309 284.942 179.3 284.734 179.283C284.509 179.266 284.327 179.24 284.188 179.205V177.411C284.552 177.463 284.916 177.489 285.28 177.489C285.991 177.489 286.589 177.272 287.074 176.839C287.577 176.406 287.828 175.756 287.828 174.889V159.653H289.778V174.889C289.778 175.842 289.57 176.648 289.154 177.307C288.738 177.966 288.184 178.46 287.49 178.789C286.814 179.136 286.06 179.309 285.228 179.309ZM287.828 157.079V154.219H289.778V157.079H287.828ZM297.8 173.901C296.916 173.901 296.127 173.736 295.434 173.407C294.74 173.06 294.194 172.592 293.796 172.003C293.397 171.414 293.198 170.738 293.198 169.975C293.198 169.247 293.354 168.588 293.666 167.999C293.978 167.392 294.463 166.881 295.122 166.465C295.78 166.049 296.621 165.754 297.644 165.581L303.104 164.671V166.439L298.112 167.271C297.106 167.444 296.378 167.765 295.928 168.233C295.494 168.701 295.278 169.256 295.278 169.897C295.278 170.521 295.52 171.05 296.006 171.483C296.508 171.916 297.15 172.133 297.93 172.133C298.883 172.133 299.715 171.934 300.426 171.535C301.136 171.119 301.691 170.564 302.09 169.871C302.488 169.178 302.688 168.406 302.688 167.557V164.021C302.688 163.189 302.384 162.513 301.778 161.993C301.171 161.473 300.382 161.213 299.412 161.213C298.562 161.213 297.817 161.43 297.176 161.863C296.534 162.279 296.058 162.825 295.746 163.501L293.978 162.539C294.238 161.95 294.645 161.412 295.2 160.927C295.772 160.442 296.422 160.06 297.15 159.783C297.878 159.488 298.632 159.341 299.412 159.341C300.434 159.341 301.336 159.54 302.116 159.939C302.913 160.338 303.528 160.892 303.962 161.603C304.412 162.296 304.638 163.102 304.638 164.021V173.589H302.688V170.807L302.974 171.093C302.731 171.613 302.35 172.09 301.83 172.523C301.327 172.939 300.729 173.277 300.036 173.537C299.36 173.78 298.614 173.901 297.8 173.901ZM302.896 179.569C301.96 179.569 301.214 179.326 300.66 178.841C300.122 178.356 299.854 177.723 299.854 176.943C299.854 176.302 300.01 175.721 300.322 175.201C300.651 174.698 301.076 174.256 301.596 173.875C302.116 173.511 302.67 173.242 303.26 173.069H304.066V173.589C303.719 173.676 303.364 173.866 303 174.161C302.636 174.456 302.332 174.82 302.09 175.253C301.847 175.704 301.726 176.198 301.726 176.735C301.726 177.064 301.856 177.359 302.116 177.619C302.376 177.879 302.722 178.009 303.156 178.009C303.485 178.009 303.814 177.94 304.144 177.801C304.49 177.662 304.794 177.472 305.054 177.229L305.6 178.607C305.288 178.902 304.88 179.136 304.378 179.309C303.892 179.482 303.398 179.569 302.896 179.569ZM324.621 178.789V159.653H326.571V162.773L326.259 162.227C326.814 161.343 327.55 160.641 328.469 160.121C329.405 159.601 330.471 159.341 331.667 159.341C332.984 159.341 334.154 159.662 335.177 160.303C336.217 160.927 337.032 161.785 337.621 162.877C338.228 163.969 338.531 165.217 338.531 166.621C338.531 168.008 338.228 169.256 337.621 170.365C337.032 171.457 336.217 172.324 335.177 172.965C334.154 173.589 332.984 173.901 331.667 173.901C330.471 173.901 329.388 173.632 328.417 173.095C327.464 172.54 326.744 171.76 326.259 170.755L326.571 170.469V178.789H324.621ZM331.563 171.951C332.499 171.951 333.331 171.717 334.059 171.249C334.804 170.781 335.385 170.148 335.801 169.351C336.234 168.536 336.451 167.626 336.451 166.621C336.451 165.598 336.234 164.688 335.801 163.891C335.385 163.094 334.804 162.461 334.059 161.993C333.331 161.525 332.499 161.291 331.563 161.291C330.627 161.291 329.778 161.525 329.015 161.993C328.27 162.461 327.672 163.102 327.221 163.917C326.788 164.714 326.571 165.616 326.571 166.621C326.571 167.626 326.788 168.536 327.221 169.351C327.672 170.148 328.27 170.781 329.015 171.249C329.778 171.717 330.627 171.951 331.563 171.951ZM346.903 173.901C345.932 173.901 345.048 173.676 344.251 173.225C343.454 172.757 342.821 172.116 342.353 171.301C341.902 170.469 341.677 169.516 341.677 168.441V159.653H343.627V168.207C343.627 168.952 343.774 169.611 344.069 170.183C344.381 170.738 344.806 171.171 345.343 171.483C345.898 171.795 346.53 171.951 347.241 171.951C347.952 171.951 348.584 171.795 349.139 171.483C349.694 171.154 350.127 170.694 350.439 170.105C350.751 169.498 350.907 168.779 350.907 167.947V159.653H352.857V173.589H350.907V170.885L351.349 170.989C351.02 171.89 350.456 172.601 349.659 173.121C348.862 173.641 347.943 173.901 346.903 173.901ZM356.867 173.589V159.653H358.817V162.357L358.375 162.253C358.722 161.352 359.285 160.641 360.065 160.121C360.863 159.601 361.781 159.341 362.821 159.341C363.809 159.341 364.693 159.566 365.473 160.017C366.271 160.468 366.895 161.092 367.345 161.889C367.813 162.669 368.047 163.553 368.047 164.541V173.589H366.097V165.295C366.097 164.446 365.941 163.726 365.629 163.137C365.335 162.548 364.91 162.097 364.355 161.785C363.818 161.456 363.194 161.291 362.483 161.291C361.773 161.291 361.14 161.456 360.585 161.785C360.031 162.097 359.597 162.556 359.285 163.163C358.973 163.752 358.817 164.463 358.817 165.295V173.589H356.867ZM371.772 173.589V153.907H373.722V167.687L372.89 167.557L380.716 159.653H383.238L377.778 165.243L383.732 173.589H381.392L375.802 165.867L377.05 165.971L373.072 170.079L373.722 168.467V173.589H371.772ZM391.346 173.745C390.098 173.745 389.136 173.381 388.46 172.653C387.784 171.925 387.446 170.885 387.446 169.533V161.603H384.872V159.653H385.522C386.111 159.653 386.579 159.462 386.926 159.081C387.272 158.682 387.446 158.188 387.446 157.599V156.429H389.396V159.653H392.464V161.603H389.396V169.533C389.396 170.001 389.465 170.417 389.604 170.781C389.742 171.128 389.976 171.405 390.306 171.613C390.652 171.821 391.112 171.925 391.684 171.925C391.822 171.925 391.987 171.916 392.178 171.899C392.368 171.882 392.533 171.864 392.672 171.847V173.589C392.464 173.641 392.23 173.676 391.97 173.693C391.71 173.728 391.502 173.745 391.346 173.745ZM396.382 179.309C396.104 179.309 395.818 179.283 395.524 179.231C395.246 179.196 394.969 179.127 394.692 179.023V177.203C394.865 177.22 395.082 177.246 395.342 177.281C395.619 177.333 395.896 177.359 396.174 177.359C397.023 177.359 397.673 177.177 398.124 176.813C398.574 176.466 399.016 175.79 399.45 174.785L400.334 172.705L400.282 174.421L394.38 159.653H396.486L401.322 171.847H400.776L405.586 159.653H407.744L401.374 175.357C401.096 176.033 400.741 176.674 400.308 177.281C399.892 177.888 399.363 178.373 398.722 178.737C398.08 179.118 397.3 179.309 396.382 179.309ZM409.072 176.969V176.059C409.592 175.92 409.974 175.652 410.216 175.253C410.459 174.854 410.58 174.3 410.58 173.589H409.592V170.729H411.672V172.913C411.672 174.04 411.456 174.941 411.022 175.617C410.589 176.31 409.939 176.761 409.072 176.969ZM9.048 204.901C7.852 204.901 6.76867 204.632 5.798 204.095C4.84467 203.54 4.12533 202.76 3.64 201.755L3.952 201.469V204.589H2.002V184.907H3.952V193.773L3.64 193.227C4.19467 192.343 4.93133 191.641 5.85 191.121C6.786 190.601 7.852 190.341 9.048 190.341C10.3653 190.341 11.5353 190.662 12.558 191.303C13.598 191.927 14.4127 192.785 15.002 193.877C15.6087 194.969 15.912 196.217 15.912 197.621C15.912 199.008 15.6087 200.256 15.002 201.365C14.4127 202.457 13.598 203.324 12.558 203.965C11.5353 204.589 10.3653 204.901 9.048 204.901ZM8.944 202.951C9.88 202.951 10.712 202.717 11.44 202.249C12.1853 201.781 12.766 201.148 13.182 200.351C13.6153 199.536 13.832 198.626 13.832 197.621C13.832 196.598 13.6153 195.688 13.182 194.891C12.766 194.094 12.1853 193.461 11.44 192.993C10.712 192.525 9.88 192.291 8.944 192.291C8.008 192.291 7.15867 192.525 6.396 192.993C5.65067 193.461 5.05267 194.102 4.602 194.917C4.16867 195.714 3.952 196.616 3.952 197.621C3.952 198.626 4.16867 199.536 4.602 200.351C5.05267 201.148 5.65067 201.781 6.396 202.249C7.15867 202.717 8.008 202.951 8.944 202.951ZM19.3759 210.309C19.0986 210.309 18.8126 210.283 18.5179 210.231C18.2406 210.196 17.9632 210.127 17.6859 210.023V208.203C17.8592 208.22 18.0759 208.246 18.3359 208.281C18.6132 208.333 18.8906 208.359 19.1679 208.359C20.0172 208.359 20.6672 208.177 21.1179 207.813C21.5686 207.466 22.0106 206.79 22.4439 205.785L23.3279 203.705L23.2759 205.421L17.3739 190.653H19.4799L24.3159 202.847H23.7699L28.5799 190.653H30.7379L24.3679 206.357C24.0906 207.033 23.7352 207.674 23.3019 208.281C22.8859 208.888 22.3572 209.373 21.7159 209.737C21.0746 210.118 20.2946 210.309 19.3759 210.309ZM37.4407 204.589V202.899L45.8387 191.849L46.2027 192.603H37.8827V190.653H47.9187V192.343L39.5467 203.393L39.1827 202.639H47.9707V204.589H37.4407ZM50.5503 204.589V190.653H52.5003V193.357L52.0583 193.253C52.405 192.352 52.9683 191.641 53.7483 191.121C54.5457 190.601 55.4643 190.341 56.5043 190.341C57.4923 190.341 58.3763 190.566 59.1563 191.017C59.9537 191.468 60.5777 192.092 61.0283 192.889C61.4963 193.669 61.7303 194.553 61.7303 195.541V204.589H59.7803V196.295C59.7803 195.446 59.6243 194.726 59.3123 194.137C59.0177 193.548 58.593 193.097 58.0383 192.785C57.501 192.456 56.877 192.291 56.1663 192.291C55.4557 192.291 54.823 192.456 54.2683 192.785C53.7137 193.097 53.2803 193.556 52.9683 194.163C52.6563 194.752 52.5003 195.463 52.5003 196.295V204.589H50.5503ZM69.4846 204.901C68.6006 204.901 67.812 204.736 67.1186 204.407C66.4253 204.06 65.8793 203.592 65.4806 203.003C65.082 202.414 64.8826 201.738 64.8826 200.975C64.8826 200.247 65.0386 199.588 65.3506 198.999C65.6626 198.392 66.148 197.881 66.8066 197.465C67.4653 197.049 68.306 196.754 69.3286 196.581L74.7886 195.671V197.439L69.7966 198.271C68.7913 198.444 68.0633 198.765 67.6126 199.233C67.1793 199.701 66.9626 200.256 66.9626 200.897C66.9626 201.521 67.2053 202.05 67.6906 202.483C68.1933 202.916 68.8346 203.133 69.6146 203.133C70.568 203.133 71.4 202.934 72.1106 202.535C72.8213 202.119 73.376 201.564 73.7746 200.871C74.1733 200.178 74.3726 199.406 74.3726 198.557V195.021C74.3726 194.189 74.0693 193.513 73.4626 192.993C72.856 192.473 72.0673 192.213 71.0966 192.213C70.2473 192.213 69.502 192.43 68.8606 192.863C68.2193 193.279 67.7426 193.825 67.4306 194.501L65.6626 193.539C65.9226 192.95 66.33 192.412 66.8846 191.927C67.4566 191.442 68.1066 191.06 68.8346 190.783C69.5626 190.488 70.3166 190.341 71.0966 190.341C72.1193 190.341 73.0206 190.54 73.8006 190.939C74.598 191.338 75.2133 191.892 75.6466 192.603C76.0973 193.296 76.3226 194.102 76.3226 195.021V204.589H74.3726V201.807L74.6586 202.093C74.416 202.613 74.0346 203.09 73.5146 203.523C73.012 203.939 72.414 204.277 71.7206 204.537C71.0446 204.78 70.2993 204.901 69.4846 204.901ZM80.3335 204.589V184.907H82.2835V204.589H80.3335ZM92.6189 204.901C91.3189 204.901 90.1403 204.589 89.0829 203.965C88.0429 203.324 87.2196 202.448 86.6129 201.339C86.0063 200.23 85.7029 198.973 85.7029 197.569C85.7029 196.165 85.9976 194.926 86.5869 193.851C87.1763 192.759 87.9736 191.901 88.9789 191.277C90.0016 190.653 91.1456 190.341 92.4109 190.341C93.4163 190.341 94.3089 190.532 95.0889 190.913C95.8863 191.277 96.5623 191.78 97.1169 192.421C97.6716 193.045 98.0963 193.756 98.391 194.553C98.6856 195.333 98.8329 196.139 98.8329 196.971C98.8329 197.144 98.8243 197.344 98.8069 197.569C98.7896 197.777 98.7636 197.994 98.729 198.219H86.9509V196.399H97.6109L96.6749 197.179C96.831 196.226 96.7183 195.376 96.3369 194.631C95.9729 193.868 95.4443 193.27 94.7509 192.837C94.0576 192.386 93.2776 192.161 92.4109 192.161C91.5443 192.161 90.7383 192.386 89.9929 192.837C89.2649 193.288 88.6929 193.92 88.2769 194.735C87.8609 195.532 87.6963 196.486 87.7829 197.595C87.6963 198.704 87.8696 199.675 88.3029 200.507C88.7536 201.322 89.3603 201.954 90.1229 202.405C90.9029 202.856 91.7349 203.081 92.6189 203.081C93.6416 203.081 94.4996 202.838 95.1929 202.353C95.8863 201.868 96.4496 201.261 96.8829 200.533L98.5469 201.417C98.2696 202.041 97.845 202.622 97.2729 203.159C96.7009 203.679 96.0163 204.104 95.219 204.433C94.4389 204.745 93.5723 204.901 92.6189 204.901ZM100.841 204.589V202.899L109.239 191.849L109.603 192.603H101.283V190.653H111.319V192.343L102.947 203.393L102.583 202.639H111.371V204.589H100.841ZM104.975 187.949L107.237 184.049H109.915L106.951 187.949H104.975ZM120.321 204.901C118.951 204.901 117.747 204.58 116.707 203.939C115.667 203.298 114.852 202.431 114.263 201.339C113.673 200.23 113.379 198.982 113.379 197.595C113.379 196.208 113.673 194.969 114.263 193.877C114.852 192.785 115.667 191.927 116.707 191.303C117.747 190.662 118.951 190.341 120.321 190.341C121.187 190.341 122.002 190.497 122.765 190.809C123.527 191.121 124.203 191.546 124.793 192.083C125.382 192.603 125.824 193.21 126.119 193.903L124.351 194.813C124.004 194.068 123.475 193.461 122.765 192.993C122.054 192.525 121.239 192.291 120.321 192.291C119.402 192.291 118.57 192.525 117.825 192.993C117.097 193.444 116.516 194.076 116.083 194.891C115.667 195.688 115.459 196.598 115.459 197.621C115.459 198.626 115.667 199.536 116.083 200.351C116.516 201.148 117.097 201.781 117.825 202.249C118.57 202.717 119.402 202.951 120.321 202.951C121.239 202.951 122.045 202.717 122.739 202.249C123.449 201.781 123.987 201.157 124.351 200.377L126.119 201.339C125.824 202.015 125.382 202.622 124.793 203.159C124.203 203.696 123.527 204.121 122.765 204.433C122.002 204.745 121.187 204.901 120.321 204.901ZM119.333 187.949L121.595 184.049H124.273L121.309 187.949H119.333ZM140.218 204.901C138.883 204.901 137.713 204.563 136.708 203.887C135.703 203.211 134.975 202.292 134.524 201.131L136.162 200.351C136.561 201.2 137.115 201.876 137.826 202.379C138.554 202.882 139.351 203.133 140.218 203.133C141.05 203.133 141.752 202.934 142.324 202.535C142.896 202.119 143.182 201.582 143.182 200.923C143.182 200.438 143.043 200.056 142.766 199.779C142.489 199.484 142.168 199.259 141.804 199.103C141.44 198.947 141.119 198.834 140.842 198.765L138.84 198.193C137.557 197.829 136.63 197.318 136.058 196.659C135.486 196 135.2 195.238 135.2 194.371C135.2 193.556 135.408 192.846 135.824 192.239C136.24 191.632 136.803 191.164 137.514 190.835C138.225 190.506 139.013 190.341 139.88 190.341C141.059 190.341 142.125 190.653 143.078 191.277C144.049 191.884 144.733 192.733 145.132 193.825L143.468 194.605C143.121 193.825 142.619 193.218 141.96 192.785C141.319 192.334 140.599 192.109 139.802 192.109C139.022 192.109 138.398 192.308 137.93 192.707C137.462 193.106 137.228 193.608 137.228 194.215C137.228 194.683 137.349 195.056 137.592 195.333C137.835 195.61 138.112 195.818 138.424 195.957C138.753 196.096 139.039 196.2 139.282 196.269L141.596 196.945C142.723 197.274 143.598 197.786 144.222 198.479C144.863 199.172 145.184 199.987 145.184 200.923C145.184 201.686 144.967 202.37 144.534 202.977C144.118 203.584 143.537 204.06 142.792 204.407C142.047 204.736 141.189 204.901 140.218 204.901ZM148.61 204.589V190.653H150.56V204.589H148.61ZM148.61 188.079V185.219H150.56V188.079H148.61ZM160.896 204.901C159.596 204.901 158.417 204.589 157.36 203.965C156.32 203.324 155.496 202.448 154.89 201.339C154.283 200.23 153.98 198.973 153.98 197.569C153.98 196.165 154.274 194.926 154.864 193.851C155.453 192.759 156.25 191.901 157.256 191.277C158.278 190.653 159.422 190.341 160.688 190.341C161.693 190.341 162.586 190.532 163.366 190.913C164.163 191.277 164.839 191.78 165.394 192.421C165.948 193.045 166.373 193.756 166.668 194.553C166.962 195.333 167.11 196.139 167.11 196.971C167.11 197.144 167.101 197.344 167.084 197.569C167.066 197.777 167.04 197.994 167.006 198.219H155.228V196.399H165.888L164.952 197.179C165.108 196.226 164.995 195.376 164.614 194.631C164.25 193.868 163.721 193.27 163.028 192.837C162.334 192.386 161.554 192.161 160.688 192.161C159.821 192.161 159.015 192.386 158.27 192.837C157.542 193.288 156.97 193.92 156.554 194.735C156.138 195.532 155.973 196.486 156.06 197.595C155.973 198.704 156.146 199.675 156.58 200.507C157.03 201.322 157.637 201.954 158.4 202.405C159.18 202.856 160.012 203.081 160.896 203.081C161.918 203.081 162.776 202.838 163.47 202.353C164.163 201.868 164.726 201.261 165.16 200.533L166.824 201.417C166.546 202.041 166.122 202.622 165.55 203.159C164.978 203.679 164.293 204.104 163.496 204.433C162.716 204.745 161.849 204.901 160.896 204.901ZM160.116 210.569C159.18 210.569 158.434 210.326 157.88 209.841C157.342 209.356 157.074 208.723 157.074 207.943C157.074 207.302 157.23 206.721 157.542 206.201C157.871 205.698 158.296 205.256 158.816 204.875C159.336 204.511 159.89 204.242 160.48 204.069H161.286V204.589C160.939 204.676 160.584 204.866 160.22 205.161C159.856 205.456 159.552 205.82 159.31 206.253C159.067 206.704 158.946 207.198 158.946 207.735C158.946 208.064 159.076 208.359 159.336 208.619C159.596 208.879 159.942 209.009 160.376 209.009C160.705 209.009 161.034 208.94 161.364 208.801C161.71 208.662 162.014 208.472 162.274 208.229L162.82 209.607C162.508 209.902 162.1 210.136 161.598 210.309C161.112 210.482 160.618 210.569 160.116 210.569ZM176.389 204.589V190.653H178.339V193.357L177.897 193.253C178.244 192.352 178.807 191.641 179.587 191.121C180.385 190.601 181.303 190.341 182.343 190.341C183.331 190.341 184.215 190.566 184.995 191.017C185.793 191.468 186.417 192.092 186.867 192.889C187.335 193.669 187.569 194.553 187.569 195.541V204.589H185.619V196.295C185.619 195.446 185.463 194.726 185.151 194.137C184.857 193.548 184.432 193.097 183.877 192.785C183.34 192.456 182.716 192.291 182.005 192.291C181.295 192.291 180.662 192.456 180.107 192.785C179.553 193.097 179.119 193.556 178.807 194.163C178.495 194.752 178.339 195.463 178.339 196.295V204.589H176.389ZM195.324 204.901C194.44 204.901 193.651 204.736 192.958 204.407C192.264 204.06 191.718 203.592 191.32 203.003C190.921 202.414 190.722 201.738 190.722 200.975C190.722 200.247 190.878 199.588 191.19 198.999C191.502 198.392 191.987 197.881 192.646 197.465C193.304 197.049 194.145 196.754 195.168 196.581L200.628 195.671V197.439L195.636 198.271C194.63 198.444 193.902 198.765 193.452 199.233C193.018 199.701 192.802 200.256 192.802 200.897C192.802 201.521 193.044 202.05 193.53 202.483C194.032 202.916 194.674 203.133 195.454 203.133C196.407 203.133 197.239 202.934 197.95 202.535C198.66 202.119 199.215 201.564 199.614 200.871C200.012 200.178 200.212 199.406 200.212 198.557V195.021C200.212 194.189 199.908 193.513 199.302 192.993C198.695 192.473 197.906 192.213 196.936 192.213C196.086 192.213 195.341 192.43 194.7 192.863C194.058 193.279 193.582 193.825 193.27 194.501L191.502 193.539C191.762 192.95 192.169 192.412 192.724 191.927C193.296 191.442 193.946 191.06 194.674 190.783C195.402 190.488 196.156 190.341 196.936 190.341C197.958 190.341 198.86 190.54 199.64 190.939C200.437 191.338 201.052 191.892 201.486 192.603C201.936 193.296 202.162 194.102 202.162 195.021V204.589H200.212V201.807L200.498 202.093C200.255 202.613 199.874 203.09 199.354 203.523C198.851 203.939 198.253 204.277 197.56 204.537C196.884 204.78 196.138 204.901 195.324 204.901ZM215.426 204.901C214.092 204.901 212.922 204.563 211.916 203.887C210.911 203.211 210.183 202.292 209.732 201.131L211.37 200.351C211.769 201.2 212.324 201.876 213.034 202.379C213.762 202.882 214.56 203.133 215.426 203.133C216.258 203.133 216.96 202.934 217.532 202.535C218.104 202.119 218.39 201.582 218.39 200.923C218.39 200.438 218.252 200.056 217.974 199.779C217.697 199.484 217.376 199.259 217.012 199.103C216.648 198.947 216.328 198.834 216.05 198.765L214.048 198.193C212.766 197.829 211.838 197.318 211.266 196.659C210.694 196 210.408 195.238 210.408 194.371C210.408 193.556 210.616 192.846 211.032 192.239C211.448 191.632 212.012 191.164 212.722 190.835C213.433 190.506 214.222 190.341 215.088 190.341C216.267 190.341 217.333 190.653 218.286 191.277C219.257 191.884 219.942 192.733 220.34 193.825L218.676 194.605C218.33 193.825 217.827 193.218 217.168 192.785C216.527 192.334 215.808 192.109 215.01 192.109C214.23 192.109 213.606 192.308 213.138 192.707C212.67 193.106 212.436 193.608 212.436 194.215C212.436 194.683 212.558 195.056 212.8 195.333C213.043 195.61 213.32 195.818 213.632 195.957C213.962 196.096 214.248 196.2 214.49 196.269L216.804 196.945C217.931 197.274 218.806 197.786 219.43 198.479C220.072 199.172 220.392 199.987 220.392 200.923C220.392 201.686 220.176 202.37 219.742 202.977C219.326 203.584 218.746 204.06 218 204.407C217.255 204.736 216.397 204.901 215.426 204.901ZM222.389 204.589V202.899L230.787 191.849L231.151 192.603H222.831V190.653H232.867V192.343L224.495 203.393L224.131 202.639H232.919V204.589H222.389ZM241.869 204.901C240.499 204.901 239.295 204.58 238.255 203.939C237.215 203.298 236.4 202.431 235.811 201.339C235.221 200.23 234.927 198.982 234.927 197.595C234.927 196.208 235.221 194.969 235.811 193.877C236.4 192.785 237.215 191.927 238.255 191.303C239.295 190.662 240.499 190.341 241.869 190.341C242.735 190.341 243.55 190.497 244.313 190.809C245.075 191.121 245.751 191.546 246.341 192.083C246.93 192.603 247.372 193.21 247.667 193.903L245.899 194.813C245.552 194.068 245.023 193.461 244.313 192.993C243.602 192.525 242.787 192.291 241.869 192.291C240.95 192.291 240.118 192.525 239.373 192.993C238.645 193.444 238.064 194.076 237.631 194.891C237.215 195.688 237.007 196.598 237.007 197.621C237.007 198.626 237.215 199.536 237.631 200.351C238.064 201.148 238.645 201.781 239.373 202.249C240.118 202.717 240.95 202.951 241.869 202.951C242.787 202.951 243.593 202.717 244.287 202.249C244.997 201.781 245.535 201.157 245.899 200.377L247.667 201.339C247.372 202.015 246.93 202.622 246.341 203.159C245.751 203.696 245.075 204.121 244.313 204.433C243.55 204.745 242.735 204.901 241.869 204.901ZM249.658 204.589V202.899L258.056 191.849L258.42 192.603H250.1V190.653H260.136V192.343L251.764 203.393L251.4 202.639H260.188V204.589H249.658ZM263.054 210.309C262.777 210.309 262.491 210.283 262.196 210.231C261.919 210.196 261.641 210.127 261.364 210.023V208.203C261.537 208.22 261.754 208.246 262.014 208.281C262.291 208.333 262.569 208.359 262.846 208.359C263.695 208.359 264.345 208.177 264.796 207.813C265.247 207.466 265.689 206.79 266.122 205.785L267.006 203.705L266.954 205.421L261.052 190.653H263.158L267.994 202.847H267.448L272.258 190.653H274.416L268.046 206.357C267.769 207.033 267.413 207.674 266.98 208.281C266.564 208.888 266.035 209.373 265.394 209.737C264.753 210.118 263.973 210.309 263.054 210.309ZM282.824 204.901C281.454 204.901 280.25 204.58 279.21 203.939C278.17 203.298 277.355 202.431 276.766 201.339C276.176 200.23 275.882 198.982 275.882 197.595C275.882 196.208 276.176 194.969 276.766 193.877C277.355 192.785 278.17 191.927 279.21 191.303C280.25 190.662 281.454 190.341 282.824 190.341C283.69 190.341 284.505 190.497 285.268 190.809C286.03 191.121 286.706 191.546 287.296 192.083C287.885 192.603 288.327 193.21 288.622 193.903L286.854 194.813C286.507 194.068 285.978 193.461 285.268 192.993C284.557 192.525 283.742 192.291 282.824 192.291C281.905 192.291 281.073 192.525 280.328 192.993C279.6 193.444 279.019 194.076 278.586 194.891C278.17 195.688 277.962 196.598 277.962 197.621C277.962 198.626 278.17 199.536 278.586 200.351C279.019 201.148 279.6 201.781 280.328 202.249C281.073 202.717 281.905 202.951 282.824 202.951C283.742 202.951 284.548 202.717 285.242 202.249C285.952 201.781 286.49 201.157 286.854 200.377L288.622 201.339C288.327 202.015 287.885 202.622 287.296 203.159C286.706 203.696 286.03 204.121 285.268 204.433C284.505 204.745 283.69 204.901 282.824 204.901ZM292.044 204.589V190.653H293.994V204.589H292.044ZM292.044 188.079V185.219H293.994V188.079H292.044ZM304.329 204.901C303.029 204.901 301.85 204.589 300.793 203.965C299.753 203.324 298.93 202.448 298.323 201.339C297.716 200.23 297.413 198.973 297.413 197.569C297.413 196.165 297.708 194.926 298.297 193.851C298.886 192.759 299.684 191.901 300.689 191.277C301.712 190.653 302.856 190.341 304.121 190.341C305.126 190.341 306.019 190.532 306.799 190.913C307.596 191.277 308.272 191.78 308.827 192.421C309.382 193.045 309.806 193.756 310.101 194.553C310.396 195.333 310.543 196.139 310.543 196.971C310.543 197.144 310.534 197.344 310.517 197.569C310.5 197.777 310.474 197.994 310.439 198.219H298.661V196.399H309.321L308.385 197.179C308.541 196.226 308.428 195.376 308.047 194.631C307.683 193.868 307.154 193.27 306.461 192.837C305.768 192.386 304.988 192.161 304.121 192.161C303.254 192.161 302.448 192.386 301.703 192.837C300.975 193.288 300.403 193.92 299.987 194.735C299.571 195.532 299.406 196.486 299.493 197.595C299.406 198.704 299.58 199.675 300.013 200.507C300.464 201.322 301.07 201.954 301.833 202.405C302.613 202.856 303.445 203.081 304.329 203.081C305.352 203.081 306.21 202.838 306.903 202.353C307.596 201.868 308.16 201.261 308.593 200.533L310.257 201.417C309.98 202.041 309.555 202.622 308.983 203.159C308.411 203.679 307.726 204.104 306.929 204.433C306.149 204.745 305.282 204.901 304.329 204.901ZM319.822 209.789V190.653H321.772V193.773L321.46 193.227C322.015 192.343 322.752 191.641 323.67 191.121C324.606 190.601 325.672 190.341 326.868 190.341C328.186 190.341 329.356 190.662 330.378 191.303C331.418 191.927 332.233 192.785 332.822 193.877C333.429 194.969 333.732 196.217 333.732 197.621C333.732 199.008 333.429 200.256 332.822 201.365C332.233 202.457 331.418 203.324 330.378 203.965C329.356 204.589 328.186 204.901 326.868 204.901C325.672 204.901 324.589 204.632 323.618 204.095C322.665 203.54 321.946 202.76 321.46 201.755L321.772 201.469V209.789H319.822ZM326.764 202.951C327.7 202.951 328.532 202.717 329.26 202.249C330.006 201.781 330.586 201.148 331.002 200.351C331.436 199.536 331.652 198.626 331.652 197.621C331.652 196.598 331.436 195.688 331.002 194.891C330.586 194.094 330.006 193.461 329.26 192.993C328.532 192.525 327.7 192.291 326.764 192.291C325.828 192.291 324.979 192.525 324.216 192.993C323.471 193.461 322.873 194.102 322.422 194.917C321.989 195.714 321.772 196.616 321.772 197.621C321.772 198.626 321.989 199.536 322.422 200.351C322.873 201.148 323.471 201.781 324.216 202.249C324.979 202.717 325.828 202.951 326.764 202.951ZM343.69 204.901C342.373 204.901 341.177 204.589 340.102 203.965C339.027 203.324 338.169 202.457 337.528 201.365C336.904 200.256 336.592 198.999 336.592 197.595C336.592 196.208 336.904 194.969 337.528 193.877C338.152 192.785 338.993 191.927 340.05 191.303C341.125 190.662 342.338 190.341 343.69 190.341C345.042 190.341 346.247 190.653 347.304 191.277C348.379 191.901 349.219 192.759 349.826 193.851C350.45 194.943 350.762 196.191 350.762 197.595C350.762 199.016 350.441 200.282 349.8 201.391C349.159 202.483 348.301 203.341 347.226 203.965C346.169 204.589 344.99 204.901 343.69 204.901ZM343.69 202.951C344.626 202.951 345.467 202.717 346.212 202.249C346.975 201.781 347.573 201.14 348.006 200.325C348.457 199.51 348.682 198.6 348.682 197.595C348.682 196.59 348.457 195.688 348.006 194.891C347.573 194.094 346.975 193.461 346.212 192.993C345.467 192.525 344.626 192.291 343.69 192.291C342.754 192.291 341.905 192.525 341.142 192.993C340.397 193.461 339.799 194.094 339.348 194.891C338.897 195.688 338.672 196.59 338.672 197.595C338.672 198.6 338.897 199.51 339.348 200.325C339.799 201.14 340.397 201.781 341.142 202.249C341.905 202.717 342.754 202.951 343.69 202.951ZM360.493 204.901C359.193 204.901 358.023 204.589 356.983 203.965C355.943 203.324 355.12 202.457 354.513 201.365C353.924 200.256 353.629 199.008 353.629 197.621C353.629 196.217 353.924 194.969 354.513 193.877C355.12 192.785 355.935 191.927 356.957 191.303C357.997 190.662 359.176 190.341 360.493 190.341C361.689 190.341 362.755 190.601 363.691 191.121C364.627 191.641 365.364 192.343 365.901 193.227L365.589 193.773V184.907H367.539V204.589H365.589V201.469L365.901 201.755C365.416 202.76 364.688 203.54 363.717 204.095C362.764 204.632 361.689 204.901 360.493 204.901ZM360.597 202.951C361.533 202.951 362.374 202.717 363.119 202.249C363.882 201.781 364.48 201.148 364.913 200.351C365.364 199.536 365.589 198.626 365.589 197.621C365.589 196.616 365.364 195.714 364.913 194.917C364.48 194.102 363.882 193.461 363.119 192.993C362.374 192.525 361.533 192.291 360.597 192.291C359.679 192.291 358.847 192.525 358.101 192.993C357.356 193.461 356.767 194.094 356.333 194.891C355.917 195.688 355.709 196.598 355.709 197.621C355.709 198.626 355.917 199.536 356.333 200.351C356.767 201.148 357.347 201.781 358.075 202.249C358.821 202.717 359.661 202.951 360.597 202.951ZM371.543 204.589V190.653H373.493V204.589H371.543ZM371.543 188.079V185.219H373.493V188.079H371.543ZM382.424 204.901C381.454 204.901 380.57 204.676 379.772 204.225C378.975 203.757 378.342 203.116 377.874 202.301C377.424 201.469 377.198 200.516 377.198 199.441V190.653H379.148V199.207C379.148 199.952 379.296 200.611 379.59 201.183C379.902 201.738 380.327 202.171 380.864 202.483C381.419 202.795 382.052 202.951 382.762 202.951C383.473 202.951 384.106 202.795 384.66 202.483C385.215 202.154 385.648 201.694 385.96 201.105C386.272 200.498 386.428 199.779 386.428 198.947V190.653H388.378V204.589H386.428V201.885L386.87 201.989C386.541 202.89 385.978 203.601 385.18 204.121C384.383 204.641 383.464 204.901 382.424 204.901ZM392.389 204.589V190.653H394.339V193.305L394.027 192.915C394.408 192.1 394.971 191.468 395.717 191.017C396.479 190.566 397.311 190.341 398.213 190.341C399.287 190.341 400.258 190.644 401.125 191.251C401.991 191.858 402.607 192.646 402.971 193.617L402.425 193.643C402.771 192.568 403.369 191.754 404.219 191.199C405.085 190.627 406.039 190.341 407.079 190.341C408.015 190.341 408.873 190.566 409.653 191.017C410.45 191.468 411.083 192.092 411.551 192.889C412.036 193.669 412.279 194.553 412.279 195.541V204.589H410.329V196.295C410.329 195.446 410.173 194.726 409.861 194.137C409.566 193.548 409.159 193.097 408.639 192.785C408.119 192.456 407.521 192.291 406.845 192.291C406.186 192.291 405.588 192.456 405.051 192.785C404.513 193.097 404.089 193.556 403.777 194.163C403.465 194.752 403.309 195.463 403.309 196.295V204.589H401.359V196.295C401.359 195.446 401.203 194.726 400.891 194.137C400.596 193.548 400.189 193.097 399.669 192.785C399.149 192.456 398.551 192.291 397.875 192.291C397.199 192.291 396.592 192.456 396.055 192.785C395.535 193.097 395.119 193.556 394.807 194.163C394.495 194.752 394.339 195.463 394.339 196.295V204.589H392.389ZM8.346 235.901C7.046 235.901 5.86733 235.589 4.81 234.965C3.77 234.324 2.94667 233.448 2.34 232.339C1.73333 231.23 1.43 229.973 1.43 228.569C1.43 227.165 1.72467 225.926 2.314 224.851C2.90333 223.759 3.70067 222.901 4.706 222.277C5.72867 221.653 6.87267 221.341 8.138 221.341C9.14333 221.341 10.036 221.532 10.816 221.913C11.6133 222.277 12.2893 222.78 12.844 223.421C13.3987 224.045 13.8233 224.756 14.118 225.553C14.4127 226.333 14.56 227.139 14.56 227.971C14.56 228.144 14.5513 228.344 14.534 228.569C14.5167 228.777 14.4907 228.994 14.456 229.219H2.678V227.399H13.338L12.402 228.179C12.558 227.226 12.4453 226.376 12.064 225.631C11.7 224.868 11.1713 224.27 10.478 223.837C9.78467 223.386 9.00467 223.161 8.138 223.161C7.27133 223.161 6.46533 223.386 5.72 223.837C4.992 224.288 4.42 224.92 4.004 225.735C3.588 226.532 3.42333 227.486 3.51 228.595C3.42333 229.704 3.59667 230.675 4.03 231.507C4.48067 232.322 5.08733 232.954 5.85 233.405C6.63 233.856 7.462 234.081 8.346 234.081C9.36867 234.081 10.2267 233.838 10.92 233.353C11.6133 232.868 12.1767 232.261 12.61 231.533L14.274 232.417C13.9967 233.041 13.572 233.622 13 234.159C12.428 234.679 11.7433 235.104 10.946 235.433C10.166 235.745 9.29933 235.901 8.346 235.901ZM17.9981 235.589V215.907H19.9481V229.687L19.1161 229.557L26.9421 221.653H29.4641L24.0041 227.243L29.9581 235.589H27.6181L22.0281 227.867L23.2761 227.971L19.2981 232.079L19.9481 230.467V235.589H17.9981ZM37.0782 235.901C35.7436 235.901 34.5736 235.563 33.5682 234.887C32.5629 234.211 31.8349 233.292 31.3842 232.131L33.0222 231.351C33.4209 232.2 33.9756 232.876 34.6862 233.379C35.4142 233.882 36.2116 234.133 37.0782 234.133C37.9102 234.133 38.6122 233.934 39.1842 233.535C39.7562 233.119 40.0422 232.582 40.0422 231.923C40.0422 231.438 39.9036 231.056 39.6262 230.779C39.3489 230.484 39.0282 230.259 38.6642 230.103C38.3002 229.947 37.9796 229.834 37.7022 229.765L35.7002 229.193C34.4176 228.829 33.4902 228.318 32.9182 227.659C32.3462 227 32.0602 226.238 32.0602 225.371C32.0602 224.556 32.2682 223.846 32.6842 223.239C33.1002 222.632 33.6636 222.164 34.3742 221.835C35.0849 221.506 35.8736 221.341 36.7402 221.341C37.9189 221.341 38.9849 221.653 39.9382 222.277C40.9089 222.884 41.5936 223.733 41.9922 224.825L40.3282 225.605C39.9816 224.825 39.4789 224.218 38.8202 223.785C38.1789 223.334 37.4596 223.109 36.6622 223.109C35.8822 223.109 35.2582 223.308 34.7902 223.707C34.3222 224.106 34.0882 224.608 34.0882 225.215C34.0882 225.683 34.2096 226.056 34.4522 226.333C34.6949 226.61 34.9722 226.818 35.2842 226.957C35.6136 227.096 35.8996 227.2 36.1422 227.269L38.4562 227.945C39.5829 228.274 40.4582 228.786 41.0822 229.479C41.7236 230.172 42.0442 230.987 42.0442 231.923C42.0442 232.686 41.8276 233.37 41.3942 233.977C40.9782 234.584 40.3976 235.06 39.6522 235.407C38.9069 235.736 38.0489 235.901 37.0782 235.901ZM45.4708 240.789V221.653H47.4208V224.773L47.1088 224.227C47.6634 223.343 48.4001 222.641 49.3188 222.121C50.2548 221.601 51.3208 221.341 52.5168 221.341C53.8341 221.341 55.0041 221.662 56.0268 222.303C57.0668 222.927 57.8814 223.785 58.4708 224.877C59.0774 225.969 59.3808 227.217 59.3808 228.621C59.3808 230.008 59.0774 231.256 58.4708 232.365C57.8814 233.457 57.0668 234.324 56.0268 234.965C55.0041 235.589 53.8341 235.901 52.5168 235.901C51.3208 235.901 50.2374 235.632 49.2668 235.095C48.3134 234.54 47.5941 233.76 47.1088 232.755L47.4208 232.469V240.789H45.4708ZM52.4128 233.951C53.3488 233.951 54.1808 233.717 54.9088 233.249C55.6541 232.781 56.2348 232.148 56.6508 231.351C57.0841 230.536 57.3008 229.626 57.3008 228.621C57.3008 227.598 57.0841 226.688 56.6508 225.891C56.2348 225.094 55.6541 224.461 54.9088 223.993C54.1808 223.525 53.3488 223.291 52.4128 223.291C51.4768 223.291 50.6274 223.525 49.8648 223.993C49.1194 224.461 48.5214 225.102 48.0708 225.917C47.6374 226.714 47.4208 227.616 47.4208 228.621C47.4208 229.626 47.6374 230.536 48.0708 231.351C48.5214 232.148 49.1194 232.781 49.8648 233.249C50.6274 233.717 51.4768 233.951 52.4128 233.951ZM69.1565 235.901C67.8565 235.901 66.6779 235.589 65.6205 234.965C64.5805 234.324 63.7572 233.448 63.1505 232.339C62.5439 231.23 62.2405 229.973 62.2405 228.569C62.2405 227.165 62.5352 225.926 63.1245 224.851C63.7139 223.759 64.5112 222.901 65.5165 222.277C66.5392 221.653 67.6832 221.341 68.9485 221.341C69.9539 221.341 70.8465 221.532 71.6265 221.913C72.4239 222.277 73.0999 222.78 73.6545 223.421C74.2092 224.045 74.6339 224.756 74.9285 225.553C75.2232 226.333 75.3705 227.139 75.3705 227.971C75.3705 228.144 75.3619 228.344 75.3445 228.569C75.3272 228.777 75.3012 228.994 75.2665 229.219H63.4885V227.399H74.1485L73.2125 228.179C73.3685 227.226 73.2559 226.376 72.8745 225.631C72.5105 224.868 71.9819 224.27 71.2885 223.837C70.5952 223.386 69.8152 223.161 68.9485 223.161C68.0819 223.161 67.2759 223.386 66.5305 223.837C65.8025 224.288 65.2305 224.92 64.8145 225.735C64.3985 226.532 64.2339 227.486 64.3205 228.595C64.2339 229.704 64.4072 230.675 64.8405 231.507C65.2912 232.322 65.8979 232.954 66.6605 233.405C67.4405 233.856 68.2725 234.081 69.1565 234.081C70.1792 234.081 71.0372 233.838 71.7305 233.353C72.4239 232.868 72.9872 232.261 73.4205 231.533L75.0845 232.417C74.8072 233.041 74.3825 233.622 73.8105 234.159C73.2385 234.679 72.5539 235.104 71.7565 235.433C70.9765 235.745 70.1099 235.901 69.1565 235.901ZM78.8086 235.589V221.653H80.7586V223.941L80.4986 223.603C80.828 222.944 81.322 222.424 81.9806 222.043C82.6566 221.662 83.4713 221.471 84.4246 221.471H85.3086V223.421H84.0866C83.0813 223.421 82.2753 223.733 81.6686 224.357C81.062 224.981 80.7586 225.865 80.7586 227.009V235.589H78.8086ZM92.9238 235.745C91.6758 235.745 90.7138 235.381 90.0378 234.653C89.3618 233.925 89.0238 232.885 89.0238 231.533V223.603H86.4498V221.653H87.0998C87.6891 221.653 88.1571 221.462 88.5038 221.081C88.8505 220.682 89.0238 220.188 89.0238 219.599V218.429H90.9738V221.653H94.0418V223.603H90.9738V231.533C90.9738 232.001 91.0431 232.417 91.1818 232.781C91.3205 233.128 91.5545 233.405 91.8838 233.613C92.2305 233.821 92.6898 233.925 93.2618 233.925C93.4005 233.925 93.5651 233.916 93.7558 233.899C93.9465 233.882 94.1111 233.864 94.2498 233.847V235.589C94.0418 235.641 93.8078 235.676 93.5478 235.693C93.2878 235.728 93.0798 235.745 92.9238 235.745ZM103.692 235.901C102.375 235.901 101.179 235.589 100.104 234.965C99.0294 234.324 98.1714 233.457 97.5301 232.365C96.9061 231.256 96.5941 229.999 96.5941 228.595C96.5941 227.208 96.9061 225.969 97.5301 224.877C98.1541 223.785 98.9947 222.927 100.052 222.303C101.127 221.662 102.34 221.341 103.692 221.341C105.044 221.341 106.249 221.653 107.306 222.277C108.381 222.901 109.221 223.759 109.828 224.851C110.452 225.943 110.764 227.191 110.764 228.595C110.764 230.016 110.443 231.282 109.802 232.391C109.161 233.483 108.303 234.341 107.228 234.965C106.171 235.589 104.992 235.901 103.692 235.901ZM103.692 233.951C104.628 233.951 105.469 233.717 106.214 233.249C106.977 232.781 107.575 232.14 108.008 231.325C108.459 230.51 108.684 229.6 108.684 228.595C108.684 227.59 108.459 226.688 108.008 225.891C107.575 225.094 106.977 224.461 106.214 223.993C105.469 223.525 104.628 223.291 103.692 223.291C102.756 223.291 101.907 223.525 101.144 223.993C100.399 224.461 99.8007 225.094 99.3501 225.891C98.8994 226.688 98.6741 227.59 98.6741 228.595C98.6741 229.6 98.8994 230.51 99.3501 231.325C99.8007 232.14 100.399 232.781 101.144 233.249C101.907 233.717 102.756 233.951 103.692 233.951ZM102.704 218.949L104.966 215.049H107.644L104.68 218.949H102.704ZM117.017 235.589L112.233 221.653H114.443L118.395 233.847H117.615L121.333 221.653H123.283L127.001 233.847H126.221L130.199 221.653H132.383L127.599 235.589H125.649L122.035 223.655H122.581L118.967 235.589H117.017ZM145.43 235.901C144.13 235.901 142.951 235.589 141.894 234.965C140.854 234.324 140.031 233.448 139.424 232.339C138.817 231.23 138.514 229.973 138.514 228.569C138.514 227.165 138.809 225.926 139.398 224.851C139.987 223.759 140.785 222.901 141.79 222.277C142.813 221.653 143.957 221.341 145.222 221.341C146.227 221.341 147.12 221.532 147.9 221.913C148.697 222.277 149.373 222.78 149.928 223.421C150.483 224.045 150.907 224.756 151.202 225.553C151.497 226.333 151.644 227.139 151.644 227.971C151.644 228.144 151.635 228.344 151.618 228.569C151.601 228.777 151.575 228.994 151.54 229.219H139.762V227.399H150.422L149.486 228.179C149.642 227.226 149.529 226.376 149.148 225.631C148.784 224.868 148.255 224.27 147.562 223.837C146.869 223.386 146.089 223.161 145.222 223.161C144.355 223.161 143.549 223.386 142.804 223.837C142.076 224.288 141.504 224.92 141.088 225.735C140.672 226.532 140.507 227.486 140.594 228.595C140.507 229.704 140.681 230.675 141.114 231.507C141.565 232.322 142.171 232.954 142.934 233.405C143.714 233.856 144.546 234.081 145.43 234.081C146.453 234.081 147.311 233.838 148.004 233.353C148.697 232.868 149.261 232.261 149.694 231.533L151.358 232.417C151.081 233.041 150.656 233.622 150.084 234.159C149.512 234.679 148.827 235.104 148.03 235.433C147.25 235.745 146.383 235.901 145.43 235.901ZM155.082 235.589V215.907H157.032V229.687L156.2 229.557L164.026 221.653H166.548L161.088 227.243L167.042 235.589H164.702L159.112 227.867L160.36 227.971L156.382 232.079L157.032 230.467V235.589H155.082ZM175.598 235.901C174.281 235.901 173.085 235.589 172.01 234.965C170.936 234.324 170.078 233.457 169.436 232.365C168.812 231.256 168.5 229.999 168.5 228.595C168.5 227.208 168.812 225.969 169.436 224.877C170.06 223.785 170.901 222.927 171.958 222.303C173.033 221.662 174.246 221.341 175.598 221.341C176.95 221.341 178.155 221.653 179.212 222.277C180.287 222.901 181.128 223.759 181.734 224.851C182.358 225.943 182.67 227.191 182.67 228.595C182.67 230.016 182.35 231.282 181.708 232.391C181.067 233.483 180.209 234.341 179.134 234.965C178.077 235.589 176.898 235.901 175.598 235.901ZM175.598 233.951C176.534 233.951 177.375 233.717 178.12 233.249C178.883 232.781 179.481 232.14 179.914 231.325C180.365 230.51 180.59 229.6 180.59 228.595C180.59 227.59 180.365 226.688 179.914 225.891C179.481 225.094 178.883 224.461 178.12 223.993C177.375 223.525 176.534 223.291 175.598 223.291C174.662 223.291 173.813 223.525 173.05 223.993C172.305 224.461 171.707 225.094 171.256 225.891C170.806 226.688 170.58 227.59 170.58 228.595C170.58 229.6 170.806 230.51 171.256 231.325C171.707 232.14 172.305 232.781 173.05 233.249C173.813 233.717 174.662 233.951 175.598 233.951ZM186.109 235.589V215.907H188.059V235.589H186.109ZM198.577 235.901C197.259 235.901 196.063 235.589 194.989 234.965C193.914 234.324 193.056 233.457 192.415 232.365C191.791 231.256 191.479 229.999 191.479 228.595C191.479 227.208 191.791 225.969 192.415 224.877C193.039 223.785 193.879 222.927 194.937 222.303C196.011 221.662 197.225 221.341 198.577 221.341C199.929 221.341 201.133 221.653 202.191 222.277C203.265 222.901 204.106 223.759 204.713 224.851C205.337 225.943 205.649 227.191 205.649 228.595C205.649 230.016 205.328 231.282 204.687 232.391C204.045 233.483 203.187 234.341 202.113 234.965C201.055 235.589 199.877 235.901 198.577 235.901ZM198.577 233.951C199.513 233.951 200.353 233.717 201.099 233.249C201.861 232.781 202.459 232.14 202.893 231.325C203.343 230.51 203.569 229.6 203.569 228.595C203.569 227.59 203.343 226.688 202.893 225.891C202.459 225.094 201.861 224.461 201.099 223.993C200.353 223.525 199.513 223.291 198.577 223.291C197.641 223.291 196.791 223.525 196.029 223.993C195.283 224.461 194.685 225.094 194.235 225.891C193.784 226.688 193.559 227.59 193.559 228.595C193.559 229.6 193.784 230.51 194.235 231.325C194.685 232.14 195.283 232.781 196.029 233.249C196.791 233.717 197.641 233.951 198.577 233.951ZM215.692 241.309C214.739 241.309 213.855 241.162 213.04 240.867C212.243 240.572 211.549 240.165 210.96 239.645C210.388 239.142 209.946 238.553 209.634 237.877L211.428 236.915C211.705 237.574 212.199 238.146 212.91 238.631C213.621 239.116 214.531 239.359 215.64 239.359C216.489 239.359 217.269 239.194 217.98 238.865C218.691 238.536 219.263 238.05 219.696 237.409C220.129 236.768 220.346 235.979 220.346 235.043V231.949L220.658 232.235C220.173 233.24 219.453 234.02 218.5 234.575C217.547 235.112 216.507 235.381 215.38 235.381C214.08 235.381 212.91 235.069 211.87 234.445C210.83 233.821 210.007 232.98 209.4 231.923C208.811 230.848 208.516 229.661 208.516 228.361C208.516 227.044 208.811 225.856 209.4 224.799C210.007 223.742 210.821 222.901 211.844 222.277C212.884 221.653 214.063 221.341 215.38 221.341C216.507 221.341 217.529 221.601 218.448 222.121C219.384 222.641 220.121 223.343 220.658 224.227L220.346 224.773V221.653H222.296V235.043C222.296 236.239 222.01 237.305 221.438 238.241C220.883 239.194 220.103 239.94 219.098 240.477C218.11 241.032 216.975 241.309 215.692 241.309ZM215.484 233.431C216.385 233.431 217.2 233.206 217.928 232.755C218.656 232.287 219.237 231.672 219.67 230.909C220.121 230.129 220.346 229.28 220.346 228.361C220.346 227.442 220.121 226.602 219.67 225.839C219.237 225.059 218.656 224.444 217.928 223.993C217.2 223.525 216.385 223.291 215.484 223.291C214.565 223.291 213.733 223.525 212.988 223.993C212.243 224.444 211.653 225.05 211.22 225.813C210.804 226.576 210.596 227.425 210.596 228.361C210.596 229.28 210.804 230.129 211.22 230.909C211.653 231.672 212.234 232.287 212.962 232.755C213.707 233.206 214.548 233.431 215.484 233.431ZM226.303 235.589V221.653H228.253V235.589H226.303ZM226.303 219.079V216.219H228.253V219.079H226.303ZM232.244 235.589V221.653H234.194V235.589H232.244ZM232.244 219.079V216.219H234.194V219.079H232.244ZM238.94 230.025L238.81 216.219H240.89L240.76 230.025H238.94ZM238.81 235.589V232.729H240.89V235.589H238.81Z" fill="black"/>
</svg>
