<svg width="472" height="242" viewBox="0 0 472 242" fill="none" xmlns="http://www.w3.org/2000/svg">
<path d="M131.5 43.3889C130.28 43.3889 129.3 44.3689 129.3 45.5889C129.3 46.8089 130.28 47.7889 131.5 47.7889C132.72 47.7889 133.7 46.8089 133.7 45.5889C133.7 44.3689 132.72 43.3889 131.5 43.3889ZM131.5 25.5889C120.46 25.5889 111.5 34.5489 111.5 45.5889C111.5 56.6289 120.46 65.5889 131.5 65.5889C142.54 65.5889 151.5 56.6289 151.5 45.5889C151.5 34.5489 142.54 25.5889 131.5 25.5889ZM135.88 49.9689L119.5 57.5889L127.12 41.2089L143.5 33.5889L135.88 49.9689Z" fill="#00742E"/>
<path d="M189.06 61.0689C186.9 61.0689 184.887 60.6822 183.02 59.9089C181.18 59.1355 179.553 58.0555 178.14 56.6689C176.753 55.2822 175.66 53.6555 174.86 51.7889C174.087 49.9222 173.7 47.8822 173.7 45.6689C173.7 43.4555 174.087 41.4155 174.86 39.5489C175.66 37.6555 176.753 36.0289 178.14 34.6689C179.527 33.2822 181.153 32.2155 183.02 31.4689C184.887 30.6955 186.9 30.3089 189.06 30.3089C191.247 30.3089 193.26 30.6955 195.1 31.4689C196.967 32.2155 198.593 33.2822 199.98 34.6689C201.393 36.0555 202.487 37.6822 203.26 39.5489C204.033 41.4155 204.42 43.4555 204.42 45.6689C204.42 47.8822 204.02 49.9222 203.22 51.7889C202.447 53.6555 201.367 55.2822 199.98 56.6689C198.593 58.0555 196.967 59.1355 195.1 59.9089C193.233 60.6822 191.22 61.0689 189.06 61.0689ZM189.06 56.7489C190.607 56.7489 192.02 56.4689 193.3 55.9089C194.607 55.3489 195.74 54.5755 196.7 53.5889C197.66 52.5755 198.407 51.4022 198.94 50.0689C199.473 48.7089 199.74 47.2422 199.74 45.6689C199.74 44.0955 199.473 42.6422 198.94 41.3089C198.407 39.9755 197.66 38.8022 196.7 37.7889C195.74 36.7755 194.607 35.9889 193.3 35.4289C192.02 34.8689 190.607 34.5889 189.06 34.5889C187.513 34.5889 186.087 34.8689 184.78 35.4289C183.5 35.9889 182.38 36.7755 181.42 37.7889C180.46 38.8022 179.713 39.9755 179.18 41.3089C178.673 42.6422 178.42 44.0955 178.42 45.6689C178.42 47.2422 178.673 48.7089 179.18 50.0689C179.713 51.4022 180.46 52.5755 181.42 53.5889C182.38 54.5755 183.513 55.3489 184.82 55.9089C186.127 56.4689 187.54 56.7489 189.06 56.7489ZM219.257 61.0689C217.177 61.0689 215.311 60.5755 213.657 59.5889C212.031 58.5755 210.737 57.2155 209.777 55.5089C208.844 53.8022 208.377 51.8822 208.377 49.7489C208.377 47.6155 208.857 45.6955 209.817 43.9889C210.777 42.2822 212.071 40.9355 213.697 39.9489C215.324 38.9622 217.164 38.4689 219.217 38.4689C220.951 38.4689 222.484 38.8155 223.817 39.5089C225.151 40.2022 226.204 41.1622 226.977 42.3889L226.297 43.4289V30.3089H230.777V60.5889H226.497V56.1889L227.017 57.0289C226.271 58.3355 225.204 59.3355 223.817 60.0289C222.431 60.7222 220.911 61.0689 219.257 61.0689ZM219.697 56.8689C220.951 56.8689 222.071 56.5622 223.057 55.9489C224.071 55.3355 224.857 54.4955 225.417 53.4289C226.004 52.3355 226.297 51.1089 226.297 49.7489C226.297 48.3889 226.004 47.1755 225.417 46.1089C224.857 45.0422 224.071 44.2022 223.057 43.5889C222.071 42.9755 220.951 42.6689 219.697 42.6689C218.444 42.6689 217.311 42.9755 216.297 43.5889C215.284 44.2022 214.497 45.0422 213.937 46.1089C213.377 47.1755 213.097 48.3889 213.097 49.7489C213.097 51.1089 213.377 52.3355 213.937 53.4289C214.497 54.4955 215.271 55.3355 216.257 55.9489C217.271 56.5622 218.417 56.8689 219.697 56.8689ZM236.054 60.5889V30.3089H240.574V50.5889L238.814 50.1489L249.654 38.9489H255.294L247.134 47.6289L255.654 60.5889H250.454L242.854 49.1089L245.534 48.7489L239.134 55.5489L240.574 52.5489V60.5889H236.054ZM258.749 60.5889V38.9489H263.069V43.3089L262.669 42.6689C263.149 41.2555 263.923 40.2422 264.989 39.6289C266.056 38.9889 267.336 38.6689 268.829 38.6689H270.149V42.7889H268.269C266.776 42.7889 265.563 43.2555 264.629 44.1889C263.723 45.0955 263.269 46.4022 263.269 48.1089V60.5889H258.749ZM275.162 69.4289C274.628 69.4289 274.095 69.3755 273.562 69.2689C273.055 69.1889 272.588 69.0555 272.162 68.8689V64.9889C272.482 65.0689 272.868 65.1355 273.322 65.1889C273.775 65.2689 274.215 65.3089 274.642 65.3089C275.895 65.3089 276.815 65.0289 277.402 64.4689C278.015 63.9355 278.562 63.0955 279.042 61.9489L280.482 58.6689L280.402 62.4689L271.042 38.9489H275.882L282.802 56.9889H281.162L288.042 38.9489H292.922L283.362 62.9489C282.855 64.2289 282.215 65.3489 281.442 66.3089C280.695 67.2955 279.802 68.0555 278.762 68.5889C277.748 69.1489 276.548 69.4289 275.162 69.4289ZM301.255 60.5889L293.815 38.9489H298.615L304.295 56.1889H302.615L308.415 38.9489H312.535L318.295 56.1889H316.615L322.335 38.9489H327.135L319.655 60.5889H315.575L309.735 42.9489H311.215L305.375 60.5889H301.255ZM335.933 61.0689C334.466 61.0689 333.173 60.8155 332.053 60.3089C330.959 59.7755 330.106 59.0555 329.493 58.1489C328.879 57.2155 328.573 56.1222 328.573 54.8689C328.573 53.6955 328.826 52.6422 329.333 51.7089C329.866 50.7755 330.679 49.9889 331.773 49.3489C332.866 48.7089 334.239 48.2555 335.893 47.9889L343.413 46.7489V50.3089L336.773 51.4689C335.573 51.6822 334.693 52.0689 334.133 52.6289C333.573 53.1622 333.293 53.8555 333.293 54.7089C333.293 55.5355 333.599 56.2155 334.213 56.7489C334.853 57.2555 335.666 57.5089 336.653 57.5089C337.879 57.5089 338.946 57.2422 339.853 56.7089C340.786 56.1755 341.506 55.4689 342.013 54.5889C342.519 53.6822 342.773 52.6822 342.773 51.5889V46.0289C342.773 44.9622 342.373 44.0955 341.573 43.4289C340.799 42.7355 339.759 42.3889 338.453 42.3889C337.253 42.3889 336.199 42.7089 335.293 43.3489C334.413 43.9622 333.759 44.7622 333.333 45.7489L329.573 43.8689C329.973 42.8022 330.626 41.8689 331.533 41.0689C332.439 40.2422 333.493 39.6022 334.693 39.1489C335.919 38.6955 337.213 38.4689 338.573 38.4689C340.279 38.4689 341.786 38.7889 343.093 39.4289C344.426 40.0689 345.453 40.9622 346.173 42.1089C346.919 43.2289 347.293 44.5355 347.293 46.0289V60.5889H342.973V56.6689L343.893 56.7889C343.386 57.6689 342.733 58.4289 341.933 59.0689C341.159 59.7089 340.266 60.2022 339.253 60.5489C338.266 60.8955 337.159 61.0689 335.933 61.0689ZM349.258 69.4289C348.964 69.4289 348.644 69.4022 348.298 69.3489C347.924 69.3222 347.618 69.2822 347.378 69.2289V65.3089C347.884 65.3889 348.391 65.4289 348.898 65.4289C350.018 65.4289 350.911 65.1355 351.578 64.5489C352.244 63.9889 352.578 63.1355 352.578 61.9889V38.9489H357.098V61.9889C357.098 63.5622 356.764 64.9089 356.098 66.0289C355.431 67.1489 354.511 67.9889 353.338 68.5489C352.164 69.1355 350.804 69.4289 349.258 69.4289ZM352.578 35.9889V30.7889H357.098V35.9889H352.578Z" fill="#00742E"/>
<rect x="1.5" y="2.08887" width="469" height="87" rx="43.5" stroke="#2ECA3E" stroke-width="3"/>
<path d="M2.288 142.589V123.219H4.368V134.529L3.9 134.295L13.65 123.219H16.25L8.424 132.111L8.528 130.629L16.718 142.589H14.222L7.618 133.047L4.368 136.739V142.589H2.288ZM22.7898 142.901C21.9058 142.901 21.1171 142.736 20.4238 142.407C19.7305 142.06 19.1845 141.592 18.7858 141.003C18.3871 140.414 18.1878 139.738 18.1878 138.975C18.1878 138.247 18.3438 137.588 18.6558 136.999C18.9678 136.392 19.4531 135.881 20.1118 135.465C20.7705 135.049 21.6111 134.754 22.6338 134.581L28.0938 133.671V135.439L23.1018 136.271C22.0965 136.444 21.3685 136.765 20.9178 137.233C20.4845 137.701 20.2678 138.256 20.2678 138.897C20.2678 139.521 20.5105 140.05 20.9958 140.483C21.4985 140.916 22.1398 141.133 22.9198 141.133C23.8731 141.133 24.7051 140.934 25.4158 140.535C26.1265 140.119 26.6811 139.564 27.0798 138.871C27.4785 138.178 27.6778 137.406 27.6778 136.557V133.021C27.6778 132.189 27.3745 131.513 26.7678 130.993C26.1611 130.473 25.3725 130.213 24.4018 130.213C23.5525 130.213 22.8071 130.43 22.1658 130.863C21.5245 131.279 21.0478 131.825 20.7358 132.501L18.9678 131.539C19.2278 130.95 19.6351 130.412 20.1898 129.927C20.7618 129.442 21.4118 129.06 22.1398 128.783C22.8678 128.488 23.6218 128.341 24.4018 128.341C25.4245 128.341 26.3258 128.54 27.1058 128.939C27.9031 129.338 28.5185 129.892 28.9518 130.603C29.4025 131.296 29.6278 132.102 29.6278 133.021V142.589H27.6778V139.807L27.9638 140.093C27.7211 140.613 27.3398 141.09 26.8198 141.523C26.3171 141.939 25.7191 142.277 25.0258 142.537C24.3498 142.78 23.6045 142.901 22.7898 142.901ZM32.2087 142.589V140.899L40.6067 129.849L40.9707 130.603H32.6507V128.653H42.6867V130.343L34.3147 141.393L33.9507 140.639H42.7387V142.589H32.2087ZM36.0307 125.949V123.349H38.6307V125.949H36.0307ZM51.6104 142.901C50.3104 142.901 49.1404 142.589 48.1004 141.965C47.0604 141.324 46.2371 140.457 45.6304 139.365C45.0411 138.256 44.7464 137.008 44.7464 135.621C44.7464 134.217 45.0411 132.969 45.6304 131.877C46.2371 130.785 47.0517 129.927 48.0744 129.303C49.1144 128.662 50.2931 128.341 51.6104 128.341C52.8064 128.341 53.8724 128.601 54.8084 129.121C55.7444 129.641 56.4811 130.343 57.0184 131.227L56.7064 131.773V122.907H58.6564V142.589H56.7064V139.469L57.0184 139.755C56.5331 140.76 55.8051 141.54 54.8344 142.095C53.8811 142.632 52.8064 142.901 51.6104 142.901ZM51.7144 140.951C52.6504 140.951 53.4911 140.717 54.2364 140.249C54.9991 139.781 55.5971 139.148 56.0304 138.351C56.4811 137.536 56.7064 136.626 56.7064 135.621C56.7064 134.616 56.4811 133.714 56.0304 132.917C55.5971 132.102 54.9991 131.461 54.2364 130.993C53.4911 130.525 52.6504 130.291 51.7144 130.291C50.7957 130.291 49.9637 130.525 49.2184 130.993C48.4731 131.461 47.8837 132.094 47.4504 132.891C47.0344 133.688 46.8264 134.598 46.8264 135.621C46.8264 136.626 47.0344 137.536 47.4504 138.351C47.8837 139.148 48.4644 139.781 49.1924 140.249C49.9377 140.717 50.7784 140.951 51.7144 140.951ZM62.9462 148.309C62.6689 148.309 62.3829 148.283 62.0882 148.231C61.8109 148.196 61.5335 148.127 61.2562 148.023V146.203C61.4295 146.22 61.6462 146.246 61.9062 146.281C62.1835 146.333 62.4609 146.359 62.7382 146.359C63.5875 146.359 64.2375 146.177 64.6882 145.813C65.1389 145.466 65.5809 144.79 66.0142 143.785L66.8982 141.705L66.8462 143.421L60.9442 128.653H63.0502L67.8862 140.847H67.3402L72.1502 128.653H74.3082L67.9382 144.357C67.6609 145.033 67.3055 145.674 66.8722 146.281C66.4562 146.888 65.9275 147.373 65.2862 147.737C64.6449 148.118 63.8649 148.309 62.9462 148.309ZM85.7419 142.589V140.899L94.1399 129.849L94.5039 130.603H86.1839V128.653H96.2199V130.343L87.8479 141.393L87.4839 140.639H96.2719V142.589H85.7419ZM105.196 142.901C103.896 142.901 102.717 142.589 101.66 141.965C100.62 141.324 99.7963 140.448 99.1896 139.339C98.5829 138.23 98.2796 136.973 98.2796 135.569C98.2796 134.165 98.5743 132.926 99.1636 131.851C99.7529 130.759 100.55 129.901 101.556 129.277C102.578 128.653 103.722 128.341 104.988 128.341C105.993 128.341 106.886 128.532 107.666 128.913C108.463 129.277 109.139 129.78 109.694 130.421C110.248 131.045 110.673 131.756 110.968 132.553C111.262 133.333 111.41 134.139 111.41 134.971C111.41 135.144 111.401 135.344 111.384 135.569C111.366 135.777 111.34 135.994 111.306 136.219H99.5276V134.399H110.188L109.252 135.179C109.408 134.226 109.295 133.376 108.914 132.631C108.55 131.868 108.021 131.27 107.328 130.837C106.634 130.386 105.854 130.161 104.988 130.161C104.121 130.161 103.315 130.386 102.57 130.837C101.842 131.288 101.27 131.92 100.854 132.735C100.438 133.532 100.273 134.486 100.36 135.595C100.273 136.704 100.446 137.675 100.88 138.507C101.33 139.322 101.937 139.954 102.7 140.405C103.48 140.856 104.312 141.081 105.196 141.081C106.218 141.081 107.076 140.838 107.77 140.353C108.463 139.868 109.026 139.261 109.46 138.533L111.124 139.417C110.846 140.041 110.422 140.622 109.85 141.159C109.278 141.679 108.593 142.104 107.796 142.433C107.016 142.745 106.149 142.901 105.196 142.901ZM119.684 142.901C118.349 142.901 117.179 142.563 116.174 141.887C115.168 141.211 114.44 140.292 113.99 139.131L115.628 138.351C116.026 139.2 116.581 139.876 117.292 140.379C118.02 140.882 118.817 141.133 119.684 141.133C120.516 141.133 121.218 140.934 121.79 140.535C122.362 140.119 122.648 139.582 122.648 138.923C122.648 138.438 122.509 138.056 122.232 137.779C121.954 137.484 121.634 137.259 121.27 137.103C120.906 136.947 120.585 136.834 120.308 136.765L118.306 136.193C117.023 135.829 116.096 135.318 115.524 134.659C114.952 134 114.666 133.238 114.666 132.371C114.666 131.556 114.874 130.846 115.29 130.239C115.706 129.632 116.269 129.164 116.98 128.835C117.69 128.506 118.479 128.341 119.346 128.341C120.524 128.341 121.59 128.653 122.544 129.277C123.514 129.884 124.199 130.733 124.598 131.825L122.934 132.605C122.587 131.825 122.084 131.218 121.426 130.785C120.784 130.334 120.065 130.109 119.268 130.109C118.488 130.109 117.864 130.308 117.396 130.707C116.928 131.106 116.694 131.608 116.694 132.215C116.694 132.683 116.815 133.056 117.058 133.333C117.3 133.61 117.578 133.818 117.89 133.957C118.219 134.096 118.505 134.2 118.748 134.269L121.062 134.945C122.188 135.274 123.064 135.786 123.688 136.479C124.329 137.172 124.65 137.987 124.65 138.923C124.65 139.686 124.433 140.37 124 140.977C123.584 141.584 123.003 142.06 122.258 142.407C121.512 142.736 120.654 142.901 119.684 142.901ZM128.076 142.589V122.907H130.026V136.687L129.194 136.557L137.02 128.653H139.542L134.082 134.243L140.036 142.589H137.696L132.106 134.867L133.354 134.971L129.376 139.079L130.026 137.467V142.589H128.076ZM146.35 142.901C145.466 142.901 144.678 142.736 143.984 142.407C143.291 142.06 142.745 141.592 142.346 141.003C141.948 140.414 141.748 139.738 141.748 138.975C141.748 138.247 141.904 137.588 142.216 136.999C142.528 136.392 143.014 135.881 143.672 135.465C144.331 135.049 145.172 134.754 146.194 134.581L151.654 133.671V135.439L146.662 136.271C145.657 136.444 144.929 136.765 144.478 137.233C144.045 137.701 143.828 138.256 143.828 138.897C143.828 139.521 144.071 140.05 144.556 140.483C145.059 140.916 145.7 141.133 146.48 141.133C147.434 141.133 148.266 140.934 148.976 140.535C149.687 140.119 150.242 139.564 150.64 138.871C151.039 138.178 151.238 137.406 151.238 136.557V133.021C151.238 132.189 150.935 131.513 150.328 130.993C149.722 130.473 148.933 130.213 147.962 130.213C147.113 130.213 146.368 130.43 145.726 130.863C145.085 131.279 144.608 131.825 144.296 132.501L142.528 131.539C142.788 130.95 143.196 130.412 143.75 129.927C144.322 129.442 144.972 129.06 145.7 128.783C146.428 128.488 147.182 128.341 147.962 128.341C148.985 128.341 149.886 128.54 150.666 128.939C151.464 129.338 152.079 129.892 152.512 130.603C152.963 131.296 153.188 132.102 153.188 133.021V142.589H151.238V139.807L151.524 140.093C151.282 140.613 150.9 141.09 150.38 141.523C149.878 141.939 149.28 142.277 148.586 142.537C147.91 142.78 147.165 142.901 146.35 142.901ZM157.199 142.589V128.653H159.149V131.357L158.707 131.253C159.054 130.352 159.617 129.641 160.397 129.121C161.195 128.601 162.113 128.341 163.153 128.341C164.141 128.341 165.025 128.566 165.805 129.017C166.603 129.468 167.227 130.092 167.677 130.889C168.145 131.669 168.379 132.553 168.379 133.541V142.589H166.429V134.295C166.429 133.446 166.273 132.726 165.961 132.137C165.667 131.548 165.242 131.097 164.687 130.785C164.15 130.456 163.526 130.291 162.815 130.291C162.105 130.291 161.472 130.456 160.917 130.785C160.363 131.097 159.929 131.556 159.617 132.163C159.305 132.752 159.149 133.463 159.149 134.295V142.589H157.199ZM178.63 142.901C177.312 142.901 176.116 142.589 175.042 141.965C173.967 141.324 173.109 140.457 172.468 139.365C171.844 138.256 171.532 136.999 171.532 135.595C171.532 134.208 171.844 132.969 172.468 131.877C173.092 130.785 173.932 129.927 174.99 129.303C176.064 128.662 177.278 128.341 178.63 128.341C179.982 128.341 181.186 128.653 182.244 129.277C183.318 129.901 184.159 130.759 184.766 131.851C185.39 132.943 185.702 134.191 185.702 135.595C185.702 137.016 185.381 138.282 184.74 139.391C184.098 140.483 183.24 141.341 182.166 141.965C181.108 142.589 179.93 142.901 178.63 142.901ZM178.63 140.951C179.566 140.951 180.406 140.717 181.152 140.249C181.914 139.781 182.512 139.14 182.946 138.325C183.396 137.51 183.622 136.6 183.622 135.595C183.622 134.59 183.396 133.688 182.946 132.891C182.512 132.094 181.914 131.461 181.152 130.993C180.406 130.525 179.566 130.291 178.63 130.291C177.694 130.291 176.844 130.525 176.082 130.993C175.336 131.461 174.738 132.094 174.288 132.891C173.837 133.688 173.612 134.59 173.612 135.595C173.612 136.6 173.837 137.51 174.288 138.325C174.738 139.14 175.336 139.781 176.082 140.249C176.844 140.717 177.694 140.951 178.63 140.951ZM191.955 142.589L187.171 128.653H189.381L193.333 140.847H192.553L196.271 128.653H198.221L201.939 140.847H201.159L205.137 128.653H207.321L202.537 142.589H200.587L196.973 130.655H197.519L193.905 142.589H191.955ZM213.128 142.901C212.244 142.901 211.455 142.736 210.762 142.407C210.068 142.06 209.522 141.592 209.124 141.003C208.725 140.414 208.526 139.738 208.526 138.975C208.526 138.247 208.682 137.588 208.994 136.999C209.306 136.392 209.791 135.881 210.45 135.465C211.108 135.049 211.949 134.754 212.972 134.581L218.432 133.671V135.439L213.44 136.271C212.434 136.444 211.706 136.765 211.256 137.233C210.822 137.701 210.606 138.256 210.606 138.897C210.606 139.521 210.848 140.05 211.334 140.483C211.836 140.916 212.478 141.133 213.258 141.133C214.211 141.133 215.043 140.934 215.754 140.535C216.464 140.119 217.019 139.564 217.418 138.871C217.816 138.178 218.016 137.406 218.016 136.557V133.021C218.016 132.189 217.712 131.513 217.106 130.993C216.499 130.473 215.71 130.213 214.74 130.213C213.89 130.213 213.145 130.43 212.504 130.863C211.862 131.279 211.386 131.825 211.074 132.501L209.306 131.539C209.566 130.95 209.973 130.412 210.528 129.927C211.1 129.442 211.75 129.06 212.478 128.783C213.206 128.488 213.96 128.341 214.74 128.341C215.762 128.341 216.664 128.54 217.444 128.939C218.241 129.338 218.856 129.892 219.29 130.603C219.74 131.296 219.966 132.102 219.966 133.021V142.589H218.016V139.807L218.302 140.093C218.059 140.613 217.678 141.09 217.158 141.523C216.655 141.939 216.057 142.277 215.364 142.537C214.688 142.78 213.942 142.901 213.128 142.901ZM223.977 142.589V128.653H225.927V131.357L225.485 131.253C225.831 130.352 226.395 129.641 227.175 129.121C227.972 128.601 228.891 128.341 229.931 128.341C230.919 128.341 231.803 128.566 232.583 129.017C233.38 129.468 234.004 130.092 234.455 130.889C234.923 131.669 235.157 132.553 235.157 133.541V142.589H233.207V134.295C233.207 133.446 233.051 132.726 232.739 132.137C232.444 131.548 232.019 131.097 231.465 130.785C230.927 130.456 230.303 130.291 229.593 130.291C228.882 130.291 228.249 130.456 227.695 130.785C227.14 131.097 226.707 131.556 226.395 132.163C226.083 132.752 225.927 133.463 225.927 134.295V142.589H223.977ZM238.913 148.309C238.636 148.309 238.35 148.283 238.055 148.231C237.778 148.196 237.5 148.127 237.223 148.023V146.203C237.396 146.22 237.613 146.246 237.873 146.281C238.15 146.333 238.428 146.359 238.705 146.359C239.554 146.359 240.204 146.177 240.655 145.813C241.106 145.466 241.548 144.79 241.981 143.785L242.865 141.705L242.813 143.421L236.911 128.653H239.017L243.853 140.847H243.307L248.117 128.653H250.275L243.905 144.357C243.628 145.033 243.272 145.674 242.839 146.281C242.423 146.888 241.894 147.373 241.253 147.737C240.612 148.118 239.832 148.309 238.913 148.309ZM263.139 142.589V122.907H265.089V136.687L264.257 136.557L272.083 128.653H274.605L269.145 134.243L275.099 142.589H272.759L267.169 134.867L268.417 134.971L264.439 139.079L265.089 137.467V142.589H263.139ZM283.655 142.901C282.338 142.901 281.142 142.589 280.067 141.965C278.992 141.324 278.134 140.457 277.493 139.365C276.869 138.256 276.557 136.999 276.557 135.595C276.557 134.208 276.869 132.969 277.493 131.877C278.117 130.785 278.958 129.927 280.015 129.303C281.09 128.662 282.303 128.341 283.655 128.341C285.007 128.341 286.212 128.653 287.269 129.277C288.344 129.901 289.184 130.759 289.791 131.851C290.415 132.943 290.727 134.191 290.727 135.595C290.727 137.016 290.406 138.282 289.765 139.391C289.124 140.483 288.266 141.341 287.191 141.965C286.134 142.589 284.955 142.901 283.655 142.901ZM283.655 140.951C284.591 140.951 285.432 140.717 286.177 140.249C286.94 139.781 287.538 139.14 287.971 138.325C288.422 137.51 288.647 136.6 288.647 135.595C288.647 134.59 288.422 133.688 287.971 132.891C287.538 132.094 286.94 131.461 286.177 130.993C285.432 130.525 284.591 130.291 283.655 130.291C282.719 130.291 281.87 130.525 281.107 130.993C280.362 131.461 279.764 132.094 279.313 132.891C278.862 133.688 278.637 134.59 278.637 135.595C278.637 136.6 278.862 137.51 279.313 138.325C279.764 139.14 280.362 139.781 281.107 140.249C281.87 140.717 282.719 140.951 283.655 140.951ZM300.458 142.901C299.158 142.901 297.988 142.589 296.948 141.965C295.908 141.324 295.085 140.457 294.478 139.365C293.889 138.256 293.594 137.008 293.594 135.621C293.594 134.217 293.889 132.969 294.478 131.877C295.085 130.785 295.899 129.927 296.922 129.303C297.962 128.662 299.141 128.341 300.458 128.341C301.654 128.341 302.72 128.601 303.656 129.121C304.592 129.641 305.329 130.343 305.866 131.227L305.554 131.773V122.907H307.504V142.589H305.554V139.469L305.866 139.755C305.381 140.76 304.653 141.54 303.682 142.095C302.729 142.632 301.654 142.901 300.458 142.901ZM300.562 140.951C301.498 140.951 302.339 140.717 303.084 140.249C303.847 139.781 304.445 139.148 304.878 138.351C305.329 137.536 305.554 136.626 305.554 135.621C305.554 134.616 305.329 133.714 304.878 132.917C304.445 132.102 303.847 131.461 303.084 130.993C302.339 130.525 301.498 130.291 300.562 130.291C299.643 130.291 298.811 130.525 298.066 130.993C297.321 131.461 296.731 132.094 296.298 132.891C295.882 133.688 295.674 134.598 295.674 135.621C295.674 136.626 295.882 137.536 296.298 138.351C296.731 139.148 297.312 139.781 298.04 140.249C298.785 140.717 299.626 140.951 300.562 140.951ZM322.08 147.789V128.653H324.03V131.773L323.718 131.227C324.273 130.343 325.009 129.641 325.928 129.121C326.864 128.601 327.93 128.341 329.126 128.341C330.443 128.341 331.613 128.662 332.636 129.303C333.676 129.927 334.491 130.785 335.08 131.877C335.687 132.969 335.99 134.217 335.99 135.621C335.99 137.008 335.687 138.256 335.08 139.365C334.491 140.457 333.676 141.324 332.636 141.965C331.613 142.589 330.443 142.901 329.126 142.901C327.93 142.901 326.847 142.632 325.876 142.095C324.923 141.54 324.203 140.76 323.718 139.755L324.03 139.469V147.789H322.08ZM329.022 140.951C329.958 140.951 330.79 140.717 331.518 140.249C332.263 139.781 332.844 139.148 333.26 138.351C333.693 137.536 333.91 136.626 333.91 135.621C333.91 134.598 333.693 133.688 333.26 132.891C332.844 132.094 332.263 131.461 331.518 130.993C330.79 130.525 329.958 130.291 329.022 130.291C328.086 130.291 327.237 130.525 326.474 130.993C325.729 131.461 325.131 132.102 324.68 132.917C324.247 133.714 324.03 134.616 324.03 135.621C324.03 136.626 324.247 137.536 324.68 138.351C325.131 139.148 325.729 139.781 326.474 140.249C327.237 140.717 328.086 140.951 329.022 140.951ZM339.422 142.589V128.653H341.372V130.941L341.112 130.603C341.441 129.944 341.935 129.424 342.594 129.043C343.27 128.662 344.085 128.471 345.038 128.471H345.922V130.421H344.7C343.695 130.421 342.889 130.733 342.282 131.357C341.675 131.981 341.372 132.865 341.372 134.009V142.589H339.422ZM346.777 142.589V140.899L355.175 129.849L355.539 130.603H347.219V128.653H357.255V130.343L348.883 141.393L348.519 140.639H357.307V142.589H346.777ZM366.231 142.901C364.931 142.901 363.752 142.589 362.695 141.965C361.655 141.324 360.831 140.448 360.225 139.339C359.618 138.23 359.315 136.973 359.315 135.569C359.315 134.165 359.609 132.926 360.199 131.851C360.788 130.759 361.585 129.901 362.591 129.277C363.613 128.653 364.757 128.341 366.023 128.341C367.028 128.341 367.921 128.532 368.701 128.913C369.498 129.277 370.174 129.78 370.729 130.421C371.283 131.045 371.708 131.756 372.003 132.553C372.297 133.333 372.445 134.139 372.445 134.971C372.445 135.144 372.436 135.344 372.419 135.569C372.401 135.777 372.375 135.994 372.341 136.219H360.563V134.399H371.223L370.287 135.179C370.443 134.226 370.33 133.376 369.949 132.631C369.585 131.868 369.056 131.27 368.363 130.837C367.669 130.386 366.889 130.161 366.023 130.161C365.156 130.161 364.35 130.386 363.605 130.837C362.877 131.288 362.305 131.92 361.889 132.735C361.473 133.532 361.308 134.486 361.395 135.595C361.308 136.704 361.481 137.675 361.915 138.507C362.365 139.322 362.972 139.954 363.735 140.405C364.515 140.856 365.347 141.081 366.231 141.081C367.253 141.081 368.111 140.838 368.805 140.353C369.498 139.868 370.061 139.261 370.495 138.533L372.159 139.417C371.881 140.041 371.457 140.622 370.885 141.159C370.313 141.679 369.628 142.104 368.831 142.433C368.051 142.745 367.184 142.901 366.231 142.901ZM375.883 142.589V128.653H377.833V131.357L377.391 131.253C377.738 130.352 378.301 129.641 379.081 129.121C379.878 128.601 380.797 128.341 381.837 128.341C382.825 128.341 383.709 128.566 384.489 129.017C385.286 129.468 385.91 130.092 386.361 130.889C386.829 131.669 387.063 132.553 387.063 133.541V142.589H385.113V134.295C385.113 133.446 384.957 132.726 384.645 132.137C384.35 131.548 383.926 131.097 383.371 130.785C382.834 130.456 382.21 130.291 381.499 130.291C380.788 130.291 380.156 130.456 379.601 130.785C379.046 131.097 378.613 131.556 378.301 132.163C377.989 132.752 377.833 133.463 377.833 134.295V142.589H375.883ZM397.313 142.901C395.996 142.901 394.8 142.589 393.725 141.965C392.65 141.324 391.792 140.457 391.151 139.365C390.527 138.256 390.215 136.999 390.215 135.595C390.215 134.208 390.527 132.969 391.151 131.877C391.775 130.785 392.616 129.927 393.673 129.303C394.748 128.662 395.961 128.341 397.313 128.341C398.665 128.341 399.87 128.653 400.927 129.277C402.002 129.901 402.842 130.759 403.449 131.851C404.073 132.943 404.385 134.191 404.385 135.595C404.385 137.016 404.064 138.282 403.423 139.391C402.782 140.483 401.924 141.341 400.849 141.965C399.792 142.589 398.613 142.901 397.313 142.901ZM397.313 140.951C398.249 140.951 399.09 140.717 399.835 140.249C400.598 139.781 401.196 139.14 401.629 138.325C402.08 137.51 402.305 136.6 402.305 135.595C402.305 134.59 402.08 133.688 401.629 132.891C401.196 132.094 400.598 131.461 399.835 130.993C399.09 130.525 398.249 130.291 397.313 130.291C396.377 130.291 395.528 130.525 394.765 130.993C394.02 131.461 393.422 132.094 392.971 132.891C392.52 133.688 392.295 134.59 392.295 135.595C392.295 136.6 392.52 137.51 392.971 138.325C393.422 139.14 394.02 139.781 394.765 140.249C395.528 140.717 396.377 140.951 397.313 140.951ZM412.66 142.901C411.326 142.901 410.156 142.563 409.15 141.887C408.145 141.211 407.417 140.292 406.966 139.131L408.604 138.351C409.003 139.2 409.558 139.876 410.268 140.379C410.996 140.882 411.794 141.133 412.66 141.133C413.492 141.133 414.194 140.934 414.766 140.535C415.338 140.119 415.624 139.582 415.624 138.923C415.624 138.438 415.486 138.056 415.208 137.779C414.931 137.484 414.61 137.259 414.246 137.103C413.882 136.947 413.562 136.834 413.284 136.765L411.282 136.193C410 135.829 409.072 135.318 408.5 134.659C407.928 134 407.642 133.238 407.642 132.371C407.642 131.556 407.85 130.846 408.266 130.239C408.682 129.632 409.246 129.164 409.956 128.835C410.667 128.506 411.456 128.341 412.322 128.341C413.501 128.341 414.567 128.653 415.52 129.277C416.491 129.884 417.176 130.733 417.574 131.825L415.91 132.605C415.564 131.825 415.061 131.218 414.402 130.785C413.761 130.334 413.042 130.109 412.244 130.109C411.464 130.109 410.84 130.308 410.372 130.707C409.904 131.106 409.67 131.608 409.67 132.215C409.67 132.683 409.792 133.056 410.034 133.333C410.277 133.61 410.554 133.818 410.866 133.957C411.196 134.096 411.482 134.2 411.724 134.269L414.038 134.945C415.165 135.274 416.04 135.786 416.664 136.479C417.306 137.172 417.626 137.987 417.626 138.923C417.626 139.686 417.41 140.37 416.976 140.977C416.56 141.584 415.98 142.06 415.234 142.407C414.489 142.736 413.631 142.901 412.66 142.901ZM421.053 142.589V128.653H423.003V142.589H421.053ZM421.053 126.079V123.219H423.003V126.079H421.053ZM437.566 142.589V128.653H439.516V142.589H437.566ZM437.566 126.079V123.219H439.516V126.079H437.566ZM449.878 142.901C448.509 142.901 447.304 142.58 446.264 141.939C445.224 141.298 444.409 140.431 443.82 139.339C443.231 138.23 442.936 136.982 442.936 135.595C442.936 134.208 443.231 132.969 443.82 131.877C444.409 130.785 445.224 129.927 446.264 129.303C447.304 128.662 448.509 128.341 449.878 128.341C450.745 128.341 451.559 128.497 452.322 128.809C453.085 129.121 453.761 129.546 454.35 130.083C454.939 130.603 455.381 131.21 455.676 131.903L453.908 132.813C453.561 132.068 453.033 131.461 452.322 130.993C451.611 130.525 450.797 130.291 449.878 130.291C448.959 130.291 448.127 130.525 447.382 130.993C446.654 131.444 446.073 132.076 445.64 132.891C445.224 133.688 445.016 134.598 445.016 135.621C445.016 136.626 445.224 137.536 445.64 138.351C446.073 139.148 446.654 139.781 447.382 140.249C448.127 140.717 448.959 140.951 449.878 140.951C450.797 140.951 451.603 140.717 452.296 140.249C453.007 139.781 453.544 139.157 453.908 138.377L455.676 139.339C455.381 140.015 454.939 140.622 454.35 141.159C453.761 141.696 453.085 142.121 452.322 142.433C451.559 142.745 450.745 142.901 449.878 142.901ZM459.098 142.589V122.907H461.048V131.357L460.606 131.253C460.952 130.352 461.516 129.641 462.296 129.121C463.093 128.601 464.012 128.341 465.052 128.341C466.04 128.341 466.924 128.566 467.704 129.017C468.501 129.468 469.125 130.092 469.576 130.889C470.044 131.669 470.278 132.553 470.278 133.541V142.589H468.328V134.295C468.328 133.446 468.172 132.726 467.86 132.137C467.548 131.548 467.114 131.097 466.56 130.785C466.022 130.456 465.407 130.291 464.714 130.291C464.02 130.291 463.396 130.456 462.842 130.785C462.287 131.097 461.845 131.556 461.516 132.163C461.204 132.752 461.048 133.463 461.048 134.295V142.589H459.098ZM8.294 173.901C6.994 173.901 5.824 173.589 4.784 172.965C3.744 172.324 2.92067 171.457 2.314 170.365C1.72467 169.256 1.43 168.008 1.43 166.621C1.43 165.217 1.72467 163.969 2.314 162.877C2.92067 161.785 3.73533 160.927 4.758 160.303C5.798 159.662 6.97667 159.341 8.294 159.341C9.49 159.341 10.556 159.601 11.492 160.121C12.428 160.641 13.1647 161.343 13.702 162.227L13.39 162.773V153.907H15.34V173.589H13.39V170.469L13.702 170.755C13.2167 171.76 12.4887 172.54 11.518 173.095C10.5647 173.632 9.49 173.901 8.294 173.901ZM8.398 171.951C9.334 171.951 10.1747 171.717 10.92 171.249C11.6827 170.781 12.2807 170.148 12.714 169.351C13.1647 168.536 13.39 167.626 13.39 166.621C13.39 165.616 13.1647 164.714 12.714 163.917C12.2807 163.102 11.6827 162.461 10.92 161.993C10.1747 161.525 9.334 161.291 8.398 161.291C7.47933 161.291 6.64733 161.525 5.902 161.993C5.15667 162.461 4.56733 163.094 4.134 163.891C3.718 164.688 3.51 165.598 3.51 166.621C3.51 167.626 3.718 168.536 4.134 169.351C4.56733 170.148 5.148 170.781 5.876 171.249C6.62133 171.717 7.462 171.951 8.398 171.951ZM25.8698 173.901C24.5525 173.901 23.3565 173.589 22.2818 172.965C21.2071 172.324 20.3491 171.457 19.7078 170.365C19.0838 169.256 18.7718 167.999 18.7718 166.595C18.7718 165.208 19.0838 163.969 19.7078 162.877C20.3318 161.785 21.1725 160.927 22.2298 160.303C23.3045 159.662 24.5178 159.341 25.8698 159.341C27.2218 159.341 28.4265 159.653 29.4838 160.277C30.5585 160.901 31.3991 161.759 32.0058 162.851C32.6298 163.943 32.9418 165.191 32.9418 166.595C32.9418 168.016 32.6211 169.282 31.9798 170.391C31.3385 171.483 30.4805 172.341 29.4058 172.965C28.3485 173.589 27.1698 173.901 25.8698 173.901ZM25.8698 171.951C26.8058 171.951 27.6465 171.717 28.3918 171.249C29.1545 170.781 29.7525 170.14 30.1858 169.325C30.6365 168.51 30.8618 167.6 30.8618 166.595C30.8618 165.59 30.6365 164.688 30.1858 163.891C29.7525 163.094 29.1545 162.461 28.3918 161.993C27.6465 161.525 26.8058 161.291 25.8698 161.291C24.9338 161.291 24.0845 161.525 23.3218 161.993C22.5765 162.461 21.9785 163.094 21.5278 163.891C21.0771 164.688 20.8518 165.59 20.8518 166.595C20.8518 167.6 21.0771 168.51 21.5278 169.325C21.9785 170.14 22.5765 170.781 23.3218 171.249C24.0845 171.717 24.9338 171.951 25.8698 171.951ZM46.9541 173.589V159.653H48.9041V162.357L48.4621 162.253C48.8088 161.352 49.3721 160.641 50.1521 160.121C50.9495 159.601 51.8681 159.341 52.9081 159.341C53.8961 159.341 54.7801 159.566 55.5601 160.017C56.3575 160.468 56.9815 161.092 57.4321 161.889C57.9001 162.669 58.1341 163.553 58.1341 164.541V173.589H56.1841V165.295C56.1841 164.446 56.0281 163.726 55.7161 163.137C55.4215 162.548 54.9968 162.097 54.4421 161.785C53.9048 161.456 53.2808 161.291 52.5701 161.291C51.8595 161.291 51.2268 161.456 50.6721 161.785C50.1175 162.097 49.6841 162.556 49.3721 163.163C49.0601 163.752 48.9041 164.463 48.9041 165.295V173.589H46.9541ZM68.3844 173.901C67.0671 173.901 65.8711 173.589 64.7964 172.965C63.7218 172.324 62.8638 171.457 62.2224 170.365C61.5984 169.256 61.2864 167.999 61.2864 166.595C61.2864 165.208 61.5984 163.969 62.2224 162.877C62.8464 161.785 63.6871 160.927 64.7444 160.303C65.8191 159.662 67.0324 159.341 68.3844 159.341C69.7364 159.341 70.9411 159.653 71.9984 160.277C73.0731 160.901 73.9138 161.759 74.5204 162.851C75.1444 163.943 75.4564 165.191 75.4564 166.595C75.4564 168.016 75.1358 169.282 74.4944 170.391C73.8531 171.483 72.9951 172.341 71.9204 172.965C70.8631 173.589 69.6844 173.901 68.3844 173.901ZM68.3844 171.951C69.3204 171.951 70.1611 171.717 70.9064 171.249C71.6691 170.781 72.2671 170.14 72.7004 169.325C73.1511 168.51 73.3764 167.6 73.3764 166.595C73.3764 165.59 73.1511 164.688 72.7004 163.891C72.2671 163.094 71.6691 162.461 70.9064 161.993C70.1611 161.525 69.3204 161.291 68.3844 161.291C67.4484 161.291 66.5991 161.525 65.8364 161.993C65.0911 162.461 64.4931 163.094 64.0424 163.891C63.5918 164.688 63.3664 165.59 63.3664 166.595C63.3664 167.6 63.5918 168.51 64.0424 169.325C64.4931 170.14 65.0911 170.781 65.8364 171.249C66.5991 171.717 67.4484 171.951 68.3844 171.951ZM81.7096 173.589L76.9256 159.653H79.1356L83.0876 171.847H82.3076L86.0256 159.653H87.9756L91.6936 171.847H90.9136L94.8916 159.653H97.0756L92.2916 173.589H90.3416L86.7276 161.655H87.2736L83.6596 173.589H81.7096ZM105.45 173.901C104.15 173.901 102.972 173.589 101.914 172.965C100.874 172.324 100.051 171.448 99.4445 170.339C98.8378 169.23 98.5345 167.973 98.5345 166.569C98.5345 165.165 98.8292 163.926 99.4185 162.851C100.008 161.759 100.805 160.901 101.81 160.277C102.833 159.653 103.977 159.341 105.242 159.341C106.248 159.341 107.14 159.532 107.92 159.913C108.718 160.277 109.394 160.78 109.948 161.421C110.503 162.045 110.928 162.756 111.222 163.553C111.517 164.333 111.664 165.139 111.664 165.971C111.664 166.144 111.656 166.344 111.638 166.569C111.621 166.777 111.595 166.994 111.56 167.219H99.7825V165.399H110.442L109.506 166.179C109.662 165.226 109.55 164.376 109.168 163.631C108.804 162.868 108.276 162.27 107.582 161.837C106.889 161.386 106.109 161.161 105.242 161.161C104.376 161.161 103.57 161.386 102.824 161.837C102.096 162.288 101.524 162.92 101.108 163.735C100.692 164.532 100.528 165.486 100.614 166.595C100.528 167.704 100.701 168.675 101.134 169.507C101.585 170.322 102.192 170.954 102.954 171.405C103.734 171.856 104.566 172.081 105.45 172.081C106.473 172.081 107.331 171.838 108.024 171.353C108.718 170.868 109.281 170.261 109.714 169.533L111.378 170.417C111.101 171.041 110.676 171.622 110.104 172.159C109.532 172.679 108.848 173.104 108.05 173.433C107.27 173.745 106.404 173.901 105.45 173.901ZM112.503 179.309C112.381 179.309 112.217 179.3 112.009 179.283C111.783 179.266 111.601 179.24 111.463 179.205V177.411C111.827 177.463 112.191 177.489 112.555 177.489C113.265 177.489 113.863 177.272 114.349 176.839C114.851 176.406 115.103 175.756 115.103 174.889V159.653H117.053V174.889C117.053 175.842 116.845 176.648 116.429 177.307C116.013 177.966 115.458 178.46 114.765 178.789C114.089 179.136 113.335 179.309 112.503 179.309ZM115.103 157.079V154.219H117.053V157.079H115.103ZM131.617 173.589V153.907H133.567V167.687L132.735 167.557L140.561 159.653H143.083L137.623 165.243L143.577 173.589H141.237L135.647 165.867L136.895 165.971L132.917 170.079L133.567 168.467V173.589H131.617ZM145.861 173.589V159.653H147.811V161.941L147.551 161.603C147.881 160.944 148.375 160.424 149.033 160.043C149.709 159.662 150.524 159.471 151.477 159.471H152.361V161.421H151.139C150.134 161.421 149.328 161.733 148.721 162.357C148.115 162.981 147.811 163.865 147.811 165.009V173.589H145.861ZM158.677 173.901C157.793 173.901 157.004 173.736 156.311 173.407C155.617 173.06 155.071 172.592 154.673 172.003C154.274 171.414 154.075 170.738 154.075 169.975C154.075 169.247 154.231 168.588 154.543 167.999C154.855 167.392 155.34 166.881 155.999 166.465C156.657 166.049 157.498 165.754 158.521 165.581L163.981 164.671V166.439L158.989 167.271C157.983 167.444 157.255 167.765 156.805 168.233C156.371 168.701 156.155 169.256 156.155 169.897C156.155 170.521 156.397 171.05 156.883 171.483C157.385 171.916 158.027 172.133 158.807 172.133C159.76 172.133 160.592 171.934 161.303 171.535C162.013 171.119 162.568 170.564 162.967 169.871C163.365 169.178 163.565 168.406 163.565 167.557V164.021C163.565 163.189 163.261 162.513 162.655 161.993C162.048 161.473 161.259 161.213 160.289 161.213C159.439 161.213 158.694 161.43 158.053 161.863C157.411 162.279 156.935 162.825 156.623 163.501L154.855 162.539C155.115 161.95 155.522 161.412 156.077 160.927C156.649 160.442 157.299 160.06 158.027 159.783C158.755 159.488 159.509 159.341 160.289 159.341C161.311 159.341 162.213 159.54 162.993 159.939C163.79 160.338 164.405 160.892 164.839 161.603C165.289 162.296 165.515 163.102 165.515 164.021V173.589H163.565V170.807L163.851 171.093C163.608 171.613 163.227 172.09 162.707 172.523C162.204 172.939 161.606 173.277 160.913 173.537C160.237 173.78 159.491 173.901 158.677 173.901ZM169.525 173.589V159.653H171.475V173.589H169.525ZM169.525 157.079V154.219H171.475V157.079H169.525ZM175.467 173.589V159.653H177.417V162.357L176.975 162.253C177.322 161.352 177.885 160.641 178.665 160.121C179.462 159.601 180.381 159.341 181.421 159.341C182.409 159.341 183.293 159.566 184.073 160.017C184.87 160.468 185.494 161.092 185.945 161.889C186.413 162.669 186.647 163.553 186.647 164.541V173.589H184.697V165.295C184.697 164.446 184.541 163.726 184.229 163.137C183.934 162.548 183.51 162.097 182.955 161.785C182.418 161.456 181.794 161.291 181.083 161.291C180.372 161.291 179.74 161.456 179.185 161.785C178.63 162.097 178.197 162.556 177.885 163.163C177.573 163.752 177.417 164.463 177.417 165.295V173.589H175.467ZM190.403 179.309C190.126 179.309 189.84 179.283 189.545 179.231C189.268 179.196 188.991 179.127 188.713 179.023V177.203C188.887 177.22 189.103 177.246 189.363 177.281C189.641 177.333 189.918 177.359 190.195 177.359C191.045 177.359 191.695 177.177 192.145 176.813C192.596 176.466 193.038 175.79 193.471 174.785L194.355 172.705L194.303 174.421L188.401 159.653H190.507L195.343 171.847H194.797L199.607 159.653H201.765L195.395 175.357C195.118 176.033 194.763 176.674 194.329 177.281C193.913 177.888 193.385 178.373 192.743 178.737C192.102 179.118 191.322 179.309 190.403 179.309ZM203.094 176.969V176.059C203.614 175.92 203.995 175.652 204.238 175.253C204.48 174.854 204.602 174.3 204.602 173.589H203.614V170.729H205.694V172.913C205.694 174.04 205.477 174.941 205.044 175.617C204.61 176.31 203.96 176.761 203.094 176.969ZM227.201 179.309C226.247 179.309 225.363 179.162 224.549 178.867C223.751 178.572 223.058 178.165 222.469 177.645C221.897 177.142 221.455 176.553 221.143 175.877L222.937 174.915C223.214 175.574 223.708 176.146 224.419 176.631C225.129 177.116 226.039 177.359 227.149 177.359C227.998 177.359 228.778 177.194 229.489 176.865C230.199 176.536 230.771 176.05 231.205 175.409C231.638 174.768 231.855 173.979 231.855 173.043V169.949L232.167 170.235C231.681 171.24 230.962 172.02 230.009 172.575C229.055 173.112 228.015 173.381 226.889 173.381C225.589 173.381 224.419 173.069 223.379 172.445C222.339 171.821 221.515 170.98 220.909 169.923C220.319 168.848 220.025 167.661 220.025 166.361C220.025 165.044 220.319 163.856 220.909 162.799C221.515 161.742 222.33 160.901 223.353 160.277C224.393 159.653 225.571 159.341 226.889 159.341C228.015 159.341 229.038 159.601 229.957 160.121C230.893 160.641 231.629 161.343 232.167 162.227L231.855 162.773V159.653H233.805V173.043C233.805 174.239 233.519 175.305 232.947 176.241C232.392 177.194 231.612 177.94 230.607 178.477C229.619 179.032 228.483 179.309 227.201 179.309ZM226.993 171.431C227.894 171.431 228.709 171.206 229.437 170.755C230.165 170.287 230.745 169.672 231.179 168.909C231.629 168.129 231.855 167.28 231.855 166.361C231.855 165.442 231.629 164.602 231.179 163.839C230.745 163.059 230.165 162.444 229.437 161.993C228.709 161.525 227.894 161.291 226.993 161.291C226.074 161.291 225.242 161.525 224.497 161.993C223.751 162.444 223.162 163.05 222.729 163.813C222.313 164.576 222.105 165.425 222.105 166.361C222.105 167.28 222.313 168.129 222.729 168.909C223.162 169.672 223.743 170.287 224.471 170.755C225.216 171.206 226.057 171.431 226.993 171.431ZM244.104 173.901C242.804 173.901 241.634 173.589 240.594 172.965C239.554 172.324 238.73 171.457 238.124 170.365C237.534 169.256 237.24 168.008 237.24 166.621C237.24 165.217 237.534 163.969 238.124 162.877C238.73 161.785 239.545 160.927 240.568 160.303C241.608 159.662 242.786 159.341 244.104 159.341C245.3 159.341 246.366 159.601 247.302 160.121C248.238 160.641 248.974 161.343 249.512 162.227L249.2 162.773V153.907H251.15V173.589H249.2V170.469L249.512 170.755C249.026 171.76 248.298 172.54 247.328 173.095C246.374 173.632 245.3 173.901 244.104 173.901ZM244.208 171.951C245.144 171.951 245.984 171.717 246.73 171.249C247.492 170.781 248.09 170.148 248.524 169.351C248.974 168.536 249.2 167.626 249.2 166.621C249.2 165.616 248.974 164.714 248.524 163.917C248.09 163.102 247.492 162.461 246.73 161.993C245.984 161.525 245.144 161.291 244.208 161.291C243.289 161.291 242.457 161.525 241.712 161.993C240.966 162.461 240.377 163.094 239.944 163.891C239.528 164.688 239.32 165.598 239.32 166.621C239.32 167.626 239.528 168.536 239.944 169.351C240.377 170.148 240.958 170.781 241.686 171.249C242.431 171.717 243.272 171.951 244.208 171.951ZM253.723 173.589V171.899L262.121 160.849L262.485 161.603H254.165V159.653H264.201V161.343L255.829 172.393L255.465 171.639H264.253V173.589H253.723ZM266.833 173.589V159.653H268.783V173.589H266.833ZM266.833 157.079V154.219H268.783V157.079H266.833ZM279.118 173.901C277.818 173.901 276.64 173.589 275.582 172.965C274.542 172.324 273.719 171.448 273.112 170.339C272.506 169.23 272.202 167.973 272.202 166.569C272.202 165.165 272.497 163.926 273.086 162.851C273.676 161.759 274.473 160.901 275.478 160.277C276.501 159.653 277.645 159.341 278.91 159.341C279.916 159.341 280.808 159.532 281.588 159.913C282.386 160.277 283.062 160.78 283.616 161.421C284.171 162.045 284.596 162.756 284.89 163.553C285.185 164.333 285.332 165.139 285.332 165.971C285.332 166.144 285.324 166.344 285.306 166.569C285.289 166.777 285.263 166.994 285.228 167.219H273.45V165.399H284.11L283.174 166.179C283.33 165.226 283.218 164.376 282.836 163.631C282.472 162.868 281.944 162.27 281.25 161.837C280.557 161.386 279.777 161.161 278.91 161.161C278.044 161.161 277.238 161.386 276.492 161.837C275.764 162.288 275.192 162.92 274.776 163.735C274.36 164.532 274.196 165.486 274.282 166.595C274.196 167.704 274.369 168.675 274.802 169.507C275.253 170.322 275.86 170.954 276.622 171.405C277.402 171.856 278.234 172.081 279.118 172.081C280.141 172.081 280.999 171.838 281.692 171.353C282.386 170.868 282.949 170.261 283.382 169.533L285.046 170.417C284.769 171.041 284.344 171.622 283.772 172.159C283.2 172.679 282.516 173.104 281.718 173.433C280.938 173.745 280.072 173.901 279.118 173.901ZM305.714 173.901C304.344 173.901 303.14 173.58 302.1 172.939C301.06 172.298 300.245 171.431 299.656 170.339C299.066 169.23 298.772 167.982 298.772 166.595C298.772 165.208 299.066 163.969 299.656 162.877C300.245 161.785 301.06 160.927 302.1 160.303C303.14 159.662 304.344 159.341 305.714 159.341C306.58 159.341 307.395 159.497 308.158 159.809C308.92 160.121 309.596 160.546 310.186 161.083C310.775 161.603 311.217 162.21 311.512 162.903L309.744 163.813C309.397 163.068 308.868 162.461 308.158 161.993C307.447 161.525 306.632 161.291 305.714 161.291C304.795 161.291 303.963 161.525 303.218 161.993C302.49 162.444 301.909 163.076 301.476 163.891C301.06 164.688 300.852 165.598 300.852 166.621C300.852 167.626 301.06 168.536 301.476 169.351C301.909 170.148 302.49 170.781 303.218 171.249C303.963 171.717 304.795 171.951 305.714 171.951C306.632 171.951 307.438 171.717 308.132 171.249C308.842 170.781 309.38 170.157 309.744 169.377L311.512 170.339C311.217 171.015 310.775 171.622 310.186 172.159C309.596 172.696 308.92 173.121 308.158 173.433C307.395 173.745 306.58 173.901 305.714 173.901ZM313.504 173.589V171.899L321.902 160.849L322.266 161.603H313.946V159.653H323.982V161.343L315.61 172.393L315.246 171.639H324.034V173.589H313.504ZM332.957 173.901C331.657 173.901 330.479 173.589 329.421 172.965C328.381 172.324 327.558 171.448 326.951 170.339C326.345 169.23 326.041 167.973 326.041 166.569C326.041 165.165 326.336 163.926 326.925 162.851C327.515 161.759 328.312 160.901 329.317 160.277C330.34 159.653 331.484 159.341 332.749 159.341C333.755 159.341 334.647 159.532 335.427 159.913C336.225 160.277 336.901 160.78 337.455 161.421C338.01 162.045 338.435 162.756 338.729 163.553C339.024 164.333 339.171 165.139 339.171 165.971C339.171 166.144 339.163 166.344 339.145 166.569C339.128 166.777 339.102 166.994 339.067 167.219H327.289V165.399H337.949L337.013 166.179C337.169 165.226 337.057 164.376 336.675 163.631C336.311 162.868 335.783 162.27 335.089 161.837C334.396 161.386 333.616 161.161 332.749 161.161C331.883 161.161 331.077 161.386 330.331 161.837C329.603 162.288 329.031 162.92 328.615 163.735C328.199 164.532 328.035 165.486 328.121 166.595C328.035 167.704 328.208 168.675 328.641 169.507C329.092 170.322 329.699 170.954 330.461 171.405C331.241 171.856 332.073 172.081 332.957 172.081C333.98 172.081 334.838 171.838 335.531 171.353C336.225 170.868 336.788 170.261 337.221 169.533L338.885 170.417C338.608 171.041 338.183 171.622 337.611 172.159C337.039 172.679 336.355 173.104 335.557 173.433C334.777 173.745 333.911 173.901 332.957 173.901ZM342.609 173.589V153.907H344.559V167.687L343.727 167.557L351.553 159.653H354.075L348.615 165.243L354.569 173.589H352.229L346.639 165.867L347.887 165.971L343.909 170.079L344.559 168.467V173.589H342.609ZM360.884 173.901C360 173.901 359.211 173.736 358.518 173.407C357.824 173.06 357.278 172.592 356.88 172.003C356.481 171.414 356.282 170.738 356.282 169.975C356.282 169.247 356.438 168.588 356.75 167.999C357.062 167.392 357.547 166.881 358.206 166.465C358.864 166.049 359.705 165.754 360.728 165.581L366.188 164.671V166.439L361.196 167.271C360.19 167.444 359.462 167.765 359.012 168.233C358.578 168.701 358.362 169.256 358.362 169.897C358.362 170.521 358.604 171.05 359.09 171.483C359.592 171.916 360.234 172.133 361.014 172.133C361.967 172.133 362.799 171.934 363.51 171.535C364.22 171.119 364.775 170.564 365.174 169.871C365.572 169.178 365.772 168.406 365.772 167.557V164.021C365.772 163.189 365.468 162.513 364.862 161.993C364.255 161.473 363.466 161.213 362.496 161.213C361.646 161.213 360.901 161.43 360.26 161.863C359.618 162.279 359.142 162.825 358.83 163.501L357.062 162.539C357.322 161.95 357.729 161.412 358.284 160.927C358.856 160.442 359.506 160.06 360.234 159.783C360.962 159.488 361.716 159.341 362.496 159.341C363.518 159.341 364.42 159.54 365.2 159.939C365.997 160.338 366.612 160.892 367.046 161.603C367.496 162.296 367.722 163.102 367.722 164.021V173.589H365.772V170.807L366.058 171.093C365.815 171.613 365.434 172.09 364.914 172.523C364.411 172.939 363.813 173.277 363.12 173.537C362.444 173.78 361.698 173.901 360.884 173.901ZM382.306 173.589V159.653H384.256V162.357L383.814 162.253C384.16 161.352 384.724 160.641 385.504 160.121C386.301 159.601 387.22 159.341 388.26 159.341C389.248 159.341 390.132 159.566 390.912 160.017C391.709 160.468 392.333 161.092 392.784 161.889C393.252 162.669 393.486 163.553 393.486 164.541V173.589H391.536V165.295C391.536 164.446 391.38 163.726 391.068 163.137C390.773 162.548 390.348 162.097 389.794 161.785C389.256 161.456 388.632 161.291 387.922 161.291C387.211 161.291 386.578 161.456 386.024 161.785C385.469 162.097 385.036 162.556 384.724 163.163C384.412 163.752 384.256 164.463 384.256 165.295V173.589H382.306ZM401.24 173.901C400.356 173.901 399.567 173.736 398.874 173.407C398.181 173.06 397.635 172.592 397.236 172.003C396.837 171.414 396.638 170.738 396.638 169.975C396.638 169.247 396.794 168.588 397.106 167.999C397.418 167.392 397.903 166.881 398.562 166.465C399.221 166.049 400.061 165.754 401.084 165.581L406.544 164.671V166.439L401.552 167.271C400.547 167.444 399.819 167.765 399.368 168.233C398.935 168.701 398.718 169.256 398.718 169.897C398.718 170.521 398.961 171.05 399.446 171.483C399.949 171.916 400.59 172.133 401.37 172.133C402.323 172.133 403.155 171.934 403.866 171.535C404.577 171.119 405.131 170.564 405.53 169.871C405.929 169.178 406.128 168.406 406.128 167.557V164.021C406.128 163.189 405.825 162.513 405.218 161.993C404.611 161.473 403.823 161.213 402.852 161.213C402.003 161.213 401.257 161.43 400.616 161.863C399.975 162.279 399.498 162.825 399.186 163.501L397.418 162.539C397.678 161.95 398.085 161.412 398.64 160.927C399.212 160.442 399.862 160.06 400.59 159.783C401.318 159.488 402.072 159.341 402.852 159.341C403.875 159.341 404.776 159.54 405.556 159.939C406.353 160.338 406.969 160.892 407.402 161.603C407.853 162.296 408.078 163.102 408.078 164.021V173.589H406.128V170.807L406.414 171.093C406.171 171.613 405.79 172.09 405.27 172.523C404.767 172.939 404.169 173.277 403.476 173.537C402.8 173.78 402.055 173.901 401.24 173.901ZM422.662 173.589V159.653H424.612V162.357L424.17 162.253C424.517 161.352 425.08 160.641 425.86 160.121C426.657 159.601 427.576 159.341 428.616 159.341C429.604 159.341 430.488 159.566 431.268 160.017C432.065 160.468 432.689 161.092 433.14 161.889C433.608 162.669 433.842 163.553 433.842 164.541V173.589H431.892V165.295C431.892 164.446 431.736 163.726 431.424 163.137C431.129 162.548 430.705 162.097 430.15 161.785C429.613 161.456 428.989 161.291 428.278 161.291C427.567 161.291 426.935 161.456 426.38 161.785C425.825 162.097 425.392 162.556 425.08 163.163C424.768 163.752 424.612 164.463 424.612 165.295V173.589H422.662ZM437.566 173.589V159.653H439.516V173.589H437.566ZM437.566 157.079V154.219H439.516V157.079H437.566ZM449.878 173.901C448.509 173.901 447.304 173.58 446.264 172.939C445.224 172.298 444.409 171.431 443.82 170.339C443.231 169.23 442.936 167.982 442.936 166.595C442.936 165.208 443.231 163.969 443.82 162.877C444.409 161.785 445.224 160.927 446.264 160.303C447.304 159.662 448.509 159.341 449.878 159.341C450.745 159.341 451.559 159.497 452.322 159.809C453.085 160.121 453.761 160.546 454.35 161.083C454.939 161.603 455.381 162.21 455.676 162.903L453.908 163.813C453.561 163.068 453.033 162.461 452.322 161.993C451.611 161.525 450.797 161.291 449.878 161.291C448.959 161.291 448.127 161.525 447.382 161.993C446.654 162.444 446.073 163.076 445.64 163.891C445.224 164.688 445.016 165.598 445.016 166.621C445.016 167.626 445.224 168.536 445.64 169.351C446.073 170.148 446.654 170.781 447.382 171.249C448.127 171.717 448.959 171.951 449.878 171.951C450.797 171.951 451.603 171.717 452.296 171.249C453.007 170.781 453.544 170.157 453.908 169.377L455.676 170.339C455.381 171.015 454.939 171.622 454.35 172.159C453.761 172.696 453.085 173.121 452.322 173.433C451.559 173.745 450.745 173.901 449.878 173.901ZM459.098 173.589V153.907H461.048V162.357L460.606 162.253C460.952 161.352 461.516 160.641 462.296 160.121C463.093 159.601 464.012 159.341 465.052 159.341C466.04 159.341 466.924 159.566 467.704 160.017C468.501 160.468 469.125 161.092 469.576 161.889C470.044 162.669 470.278 163.553 470.278 164.541V173.589H468.328V165.295C468.328 164.446 468.172 163.726 467.86 163.137C467.548 162.548 467.114 162.097 466.56 161.785C466.022 161.456 465.407 161.291 464.714 161.291C464.02 161.291 463.396 161.456 462.842 161.785C462.287 162.097 461.845 162.556 461.516 163.163C461.204 163.752 461.048 164.463 461.048 165.295V173.589H459.098ZM5.07 204.589L0.286 190.653H2.496L6.448 202.847H5.668L9.386 190.653H11.336L15.054 202.847H14.274L18.252 190.653H20.436L15.652 204.589H13.702L10.088 192.655H10.634L7.02 204.589H5.07ZM22.7208 209.789V190.653H24.6708V193.773L24.3588 193.227C24.9134 192.343 25.6501 191.641 26.5688 191.121C27.5048 190.601 28.5708 190.341 29.7668 190.341C31.0841 190.341 32.2541 190.662 33.2768 191.303C34.3168 191.927 35.1314 192.785 35.7208 193.877C36.3274 194.969 36.6308 196.217 36.6308 197.621C36.6308 199.008 36.3274 200.256 35.7208 201.365C35.1314 202.457 34.3168 203.324 33.2768 203.965C32.2541 204.589 31.0841 204.901 29.7668 204.901C28.5708 204.901 27.4874 204.632 26.5168 204.095C25.5634 203.54 24.8441 202.76 24.3588 201.755L24.6708 201.469V209.789H22.7208ZM29.6628 202.951C30.5988 202.951 31.4308 202.717 32.1588 202.249C32.9041 201.781 33.4848 201.148 33.9008 200.351C34.3341 199.536 34.5508 198.626 34.5508 197.621C34.5508 196.598 34.3341 195.688 33.9008 194.891C33.4848 194.094 32.9041 193.461 32.1588 192.993C31.4308 192.525 30.5988 192.291 29.6628 192.291C28.7268 192.291 27.8774 192.525 27.1148 192.993C26.3694 193.461 25.7714 194.102 25.3208 194.917C24.8874 195.714 24.6708 196.616 24.6708 197.621C24.6708 198.626 24.8874 199.536 25.3208 200.351C25.7714 201.148 26.3694 201.781 27.1148 202.249C27.8774 202.717 28.7268 202.951 29.6628 202.951ZM40.0625 204.589V190.653H42.0125V192.941L41.7525 192.603C42.0819 191.944 42.5759 191.424 43.2345 191.043C43.9105 190.662 44.7252 190.471 45.6785 190.471H46.5625V192.421H45.3405C44.3352 192.421 43.5292 192.733 42.9225 193.357C42.3159 193.981 42.0125 194.865 42.0125 196.009V204.589H40.0625ZM55.3737 204.901C54.0564 204.901 52.8604 204.589 51.7857 203.965C50.711 203.324 49.853 202.457 49.2117 201.365C48.5877 200.256 48.2757 198.999 48.2757 197.595C48.2757 196.208 48.5877 194.969 49.2117 193.877C49.8357 192.785 50.6764 191.927 51.7337 191.303C52.8084 190.662 54.0217 190.341 55.3737 190.341C56.7257 190.341 57.9304 190.653 58.9877 191.277C60.0624 191.901 60.903 192.759 61.5097 193.851C62.1337 194.943 62.4457 196.191 62.4457 197.595C62.4457 199.016 62.125 200.282 61.4837 201.391C60.8424 202.483 59.9844 203.341 58.9097 203.965C57.8524 204.589 56.6737 204.901 55.3737 204.901ZM55.3737 202.951C56.3097 202.951 57.1504 202.717 57.8957 202.249C58.6584 201.781 59.2564 201.14 59.6897 200.325C60.1404 199.51 60.3657 198.6 60.3657 197.595C60.3657 196.59 60.1404 195.688 59.6897 194.891C59.2564 194.094 58.6584 193.461 57.8957 192.993C57.1504 192.525 56.3097 192.291 55.3737 192.291C54.4377 192.291 53.5884 192.525 52.8257 192.993C52.0804 193.461 51.4824 194.094 51.0317 194.891C50.581 195.688 50.3557 196.59 50.3557 197.595C50.3557 198.6 50.581 199.51 51.0317 200.325C51.4824 201.14 52.0804 201.781 52.8257 202.249C53.5884 202.717 54.4377 202.951 55.3737 202.951ZM68.6989 204.589L63.9149 190.653H66.1249L70.0769 202.847H69.2969L73.0149 190.653H74.9649L78.6829 202.847H77.9029L81.8809 190.653H84.0649L79.2809 204.589H77.3309L73.7169 192.655H74.2629L70.6489 204.589H68.6989ZM89.8718 204.901C88.9878 204.901 88.1992 204.736 87.5058 204.407C86.8125 204.06 86.2665 203.592 85.8678 203.003C85.4692 202.414 85.2698 201.738 85.2698 200.975C85.2698 200.247 85.4258 199.588 85.7378 198.999C86.0498 198.392 86.5352 197.881 87.1938 197.465C87.8525 197.049 88.6932 196.754 89.7158 196.581L95.1758 195.671V197.439L90.1838 198.271C89.1785 198.444 88.4505 198.765 87.9998 199.233C87.5665 199.701 87.3498 200.256 87.3498 200.897C87.3498 201.521 87.5925 202.05 88.0778 202.483C88.5805 202.916 89.2218 203.133 90.0018 203.133C90.9552 203.133 91.7872 202.934 92.4978 202.535C93.2085 202.119 93.7632 201.564 94.1618 200.871C94.5605 200.178 94.7598 199.406 94.7598 198.557V195.021C94.7598 194.189 94.4565 193.513 93.8498 192.993C93.2432 192.473 92.4545 192.213 91.4838 192.213C90.6345 192.213 89.8892 192.43 89.2478 192.863C88.6065 193.279 88.1298 193.825 87.8178 194.501L86.0498 193.539C86.3098 192.95 86.7172 192.412 87.2718 191.927C87.8438 191.442 88.4938 191.06 89.2218 190.783C89.9498 190.488 90.7038 190.341 91.4838 190.341C92.5065 190.341 93.4078 190.54 94.1878 190.939C94.9852 191.338 95.6005 191.892 96.0338 192.603C96.4845 193.296 96.7098 194.102 96.7098 195.021V204.589H94.7598V201.807L95.0458 202.093C94.8032 202.613 94.4218 203.09 93.9018 203.523C93.3992 203.939 92.8012 204.277 92.1078 204.537C91.4318 204.78 90.6865 204.901 89.8718 204.901ZM107.013 204.901C105.713 204.901 104.543 204.589 103.503 203.965C102.463 203.324 101.639 202.457 101.033 201.365C100.443 200.256 100.149 199.008 100.149 197.621C100.149 196.217 100.443 194.969 101.033 193.877C101.639 192.785 102.454 191.927 103.477 191.303C104.517 190.662 105.695 190.341 107.013 190.341C108.209 190.341 109.275 190.601 110.211 191.121C111.147 191.641 111.883 192.343 112.421 193.227L112.109 193.773V184.907H114.059V204.589H112.109V201.469L112.421 201.755C111.935 202.76 111.207 203.54 110.237 204.095C109.283 204.632 108.209 204.901 107.013 204.901ZM107.117 202.951C108.053 202.951 108.893 202.717 109.639 202.249C110.401 201.781 110.999 201.148 111.433 200.351C111.883 199.536 112.109 198.626 112.109 197.621C112.109 196.616 111.883 195.714 111.433 194.917C110.999 194.102 110.401 193.461 109.639 192.993C108.893 192.525 108.053 192.291 107.117 192.291C106.198 192.291 105.366 192.525 104.621 192.993C103.875 193.461 103.286 194.094 102.853 194.891C102.437 195.688 102.229 196.598 102.229 197.621C102.229 198.626 102.437 199.536 102.853 200.351C103.286 201.148 103.867 201.781 104.595 202.249C105.34 202.717 106.181 202.951 107.117 202.951ZM116.633 204.589V202.899L125.031 191.849L125.395 192.603H117.075V190.653H127.111V192.343L118.739 203.393L118.375 202.639H127.163V204.589H116.633ZM136.086 204.901C134.786 204.901 133.608 204.589 132.55 203.965C131.51 203.324 130.687 202.448 130.08 201.339C129.474 200.23 129.17 198.973 129.17 197.569C129.17 196.165 129.465 194.926 130.054 193.851C130.644 192.759 131.441 191.901 132.446 191.277C133.469 190.653 134.613 190.341 135.878 190.341C136.884 190.341 137.776 190.532 138.556 190.913C139.354 191.277 140.03 191.78 140.584 192.421C141.139 193.045 141.564 193.756 141.858 194.553C142.153 195.333 142.3 196.139 142.3 196.971C142.3 197.144 142.292 197.344 142.274 197.569C142.257 197.777 142.231 197.994 142.196 198.219H130.418V196.399H141.078L140.142 197.179C140.298 196.226 140.186 195.376 139.804 194.631C139.44 193.868 138.912 193.27 138.218 192.837C137.525 192.386 136.745 192.161 135.878 192.161C135.012 192.161 134.206 192.386 133.46 192.837C132.732 193.288 132.16 193.92 131.744 194.735C131.328 195.532 131.164 196.486 131.25 197.595C131.164 198.704 131.337 199.675 131.77 200.507C132.221 201.322 132.828 201.954 133.59 202.405C134.37 202.856 135.202 203.081 136.086 203.081C137.109 203.081 137.967 202.838 138.66 202.353C139.354 201.868 139.917 201.261 140.35 200.533L142.014 201.417C141.737 202.041 141.312 202.622 140.74 203.159C140.168 203.679 139.484 204.104 138.686 204.433C137.906 204.745 137.04 204.901 136.086 204.901ZM145.738 204.589V190.653H147.688V193.357L147.246 193.253C147.593 192.352 148.156 191.641 148.936 191.121C149.734 190.601 150.652 190.341 151.692 190.341C152.68 190.341 153.564 190.566 154.344 191.017C155.142 191.468 155.766 192.092 156.216 192.889C156.684 193.669 156.918 194.553 156.918 195.541V204.589H154.968V196.295C154.968 195.446 154.812 194.726 154.5 194.137C154.206 193.548 153.781 193.097 153.226 192.785C152.689 192.456 152.065 192.291 151.354 192.291C150.644 192.291 150.011 192.456 149.456 192.785C148.902 193.097 148.468 193.556 148.156 194.163C147.844 194.752 147.688 195.463 147.688 196.295V204.589H145.738ZM160.643 204.589V190.653H162.593V204.589H160.643ZM160.643 188.079V185.219H162.593V188.079H160.643ZM172.928 204.901C171.628 204.901 170.449 204.589 169.392 203.965C168.352 203.324 167.529 202.448 166.922 201.339C166.315 200.23 166.012 198.973 166.012 197.569C166.012 196.165 166.307 194.926 166.896 193.851C167.485 192.759 168.283 191.901 169.288 191.277C170.311 190.653 171.455 190.341 172.72 190.341C173.725 190.341 174.618 190.532 175.398 190.913C176.195 191.277 176.871 191.78 177.426 192.421C177.981 193.045 178.405 193.756 178.7 194.553C178.995 195.333 179.142 196.139 179.142 196.971C179.142 197.144 179.133 197.344 179.116 197.569C179.099 197.777 179.073 197.994 179.038 198.219H167.26V196.399H177.92L176.984 197.179C177.14 196.226 177.027 195.376 176.646 194.631C176.282 193.868 175.753 193.27 175.06 192.837C174.367 192.386 173.587 192.161 172.72 192.161C171.853 192.161 171.047 192.386 170.302 192.837C169.574 193.288 169.002 193.92 168.586 194.735C168.17 195.532 168.005 196.486 168.092 197.595C168.005 198.704 168.179 199.675 168.612 200.507C169.063 201.322 169.669 201.954 170.432 202.405C171.212 202.856 172.044 203.081 172.928 203.081C173.951 203.081 174.809 202.838 175.502 202.353C176.195 201.868 176.759 201.261 177.192 200.533L178.856 201.417C178.579 202.041 178.154 202.622 177.582 203.159C177.01 203.679 176.325 204.104 175.528 204.433C174.748 204.745 173.881 204.901 172.928 204.901ZM197.04 204.589V192.603H194.258V190.653H197.04V189.405C197.04 188.434 197.257 187.62 197.69 186.961C198.123 186.285 198.695 185.774 199.406 185.427C200.117 185.08 200.879 184.907 201.694 184.907C201.867 184.907 202.067 184.924 202.292 184.959C202.517 184.976 202.699 185.002 202.838 185.037V186.805C202.717 186.77 202.552 186.753 202.344 186.753C202.136 186.736 201.989 186.727 201.902 186.727C201.07 186.727 200.377 186.926 199.822 187.325C199.267 187.724 198.99 188.417 198.99 189.405V190.653H202.396V192.603H198.99V204.589H197.04ZM209.06 204.901C208.176 204.901 207.387 204.736 206.694 204.407C206.001 204.06 205.455 203.592 205.056 203.003C204.657 202.414 204.458 201.738 204.458 200.975C204.458 200.247 204.614 199.588 204.926 198.999C205.238 198.392 205.723 197.881 206.382 197.465C207.041 197.049 207.881 196.754 208.904 196.581L214.364 195.671V197.439L209.372 198.271C208.367 198.444 207.639 198.765 207.188 199.233C206.755 199.701 206.538 200.256 206.538 200.897C206.538 201.521 206.781 202.05 207.266 202.483C207.769 202.916 208.41 203.133 209.19 203.133C210.143 203.133 210.975 202.934 211.686 202.535C212.397 202.119 212.951 201.564 213.35 200.871C213.749 200.178 213.948 199.406 213.948 198.557V195.021C213.948 194.189 213.645 193.513 213.038 192.993C212.431 192.473 211.643 192.213 210.672 192.213C209.823 192.213 209.077 192.43 208.436 192.863C207.795 193.279 207.318 193.825 207.006 194.501L205.238 193.539C205.498 192.95 205.905 192.412 206.46 191.927C207.032 191.442 207.682 191.06 208.41 190.783C209.138 190.488 209.892 190.341 210.672 190.341C211.695 190.341 212.596 190.54 213.376 190.939C214.173 191.338 214.789 191.892 215.222 192.603C215.673 193.296 215.898 194.102 215.898 195.021V204.589H213.948V201.807L214.234 202.093C213.991 202.613 213.61 203.09 213.09 203.523C212.587 203.939 211.989 204.277 211.296 204.537C210.62 204.78 209.875 204.901 209.06 204.901ZM226.955 204.901C225.759 204.901 224.676 204.632 223.705 204.095C222.752 203.54 222.032 202.76 221.547 201.755L221.859 201.469V204.589H219.909V184.907H221.859V193.773L221.547 193.227C222.102 192.343 222.838 191.641 223.757 191.121C224.693 190.601 225.759 190.341 226.955 190.341C228.272 190.341 229.442 190.662 230.465 191.303C231.505 191.927 232.32 192.785 232.909 193.877C233.516 194.969 233.819 196.217 233.819 197.621C233.819 199.008 233.516 200.256 232.909 201.365C232.32 202.457 231.505 203.324 230.465 203.965C229.442 204.589 228.272 204.901 226.955 204.901ZM226.851 202.951C227.787 202.951 228.619 202.717 229.347 202.249C230.092 201.781 230.673 201.148 231.089 200.351C231.522 199.536 231.739 198.626 231.739 197.621C231.739 196.598 231.522 195.688 231.089 194.891C230.673 194.094 230.092 193.461 229.347 192.993C228.619 192.525 227.787 192.291 226.851 192.291C225.915 192.291 225.066 192.525 224.303 192.993C223.558 193.461 222.96 194.102 222.509 194.917C222.076 195.714 221.859 196.616 221.859 197.621C221.859 198.626 222.076 199.536 222.509 200.351C222.96 201.148 223.558 201.781 224.303 202.249C225.066 202.717 225.915 202.951 226.851 202.951ZM242.191 204.901C241.22 204.901 240.336 204.676 239.539 204.225C238.741 203.757 238.109 203.116 237.641 202.301C237.19 201.469 236.965 200.516 236.965 199.441V190.653H238.915V199.207C238.915 199.952 239.062 200.611 239.357 201.183C239.669 201.738 240.093 202.171 240.631 202.483C241.185 202.795 241.818 202.951 242.529 202.951C243.239 202.951 243.872 202.795 244.427 202.483C244.981 202.154 245.415 201.694 245.727 201.105C246.039 200.498 246.195 199.779 246.195 198.947V190.653H248.145V204.589H246.195V201.885L246.637 201.989C246.307 202.89 245.744 203.601 244.947 204.121C244.149 204.641 243.231 204.901 242.191 204.901ZM252.155 204.589V184.907H254.105V204.589H252.155ZM262.126 204.901C261.242 204.901 260.454 204.736 259.76 204.407C259.067 204.06 258.521 203.592 258.122 203.003C257.724 202.414 257.524 201.738 257.524 200.975C257.524 200.247 257.68 199.588 257.992 198.999C258.304 198.392 258.79 197.881 259.448 197.465C260.107 197.049 260.948 196.754 261.97 196.581L267.43 195.671V197.439L262.438 198.271C261.433 198.444 260.705 198.765 260.254 199.233C259.821 199.701 259.604 200.256 259.604 200.897C259.604 201.521 259.847 202.05 260.332 202.483C260.835 202.916 261.476 203.133 262.256 203.133C263.21 203.133 264.042 202.934 264.752 202.535C265.463 202.119 266.018 201.564 266.416 200.871C266.815 200.178 267.014 199.406 267.014 198.557V195.021C267.014 194.189 266.711 193.513 266.104 192.993C265.498 192.473 264.709 192.213 263.738 192.213C262.889 192.213 262.144 192.43 261.502 192.863C260.861 193.279 260.384 193.825 260.072 194.501L258.304 193.539C258.564 192.95 258.972 192.412 259.526 191.927C260.098 191.442 260.748 191.06 261.476 190.783C262.204 190.488 262.958 190.341 263.738 190.341C264.761 190.341 265.662 190.54 266.442 190.939C267.24 191.338 267.855 191.892 268.288 192.603C268.739 193.296 268.964 194.102 268.964 195.021V204.589H267.014V201.807L267.3 202.093C267.058 202.613 266.676 203.09 266.156 203.523C265.654 203.939 265.056 204.277 264.362 204.537C263.686 204.78 262.941 204.901 262.126 204.901ZM272.975 204.589V190.653H274.925V192.941L274.665 192.603C274.995 191.944 275.489 191.424 276.147 191.043C276.823 190.662 277.638 190.471 278.591 190.471H279.475V192.421H278.253C277.248 192.421 276.442 192.733 275.835 193.357C275.229 193.981 274.925 194.865 274.925 196.009V204.589H272.975ZM281.76 204.589V190.653H283.71V193.357L283.268 193.253C283.615 192.352 284.178 191.641 284.958 191.121C285.756 190.601 286.674 190.341 287.714 190.341C288.702 190.341 289.586 190.566 290.366 191.017C291.164 191.468 291.788 192.092 292.238 192.889C292.706 193.669 292.94 194.553 292.94 195.541V204.589H290.99V196.295C290.99 195.446 290.834 194.726 290.522 194.137C290.228 193.548 289.803 193.097 289.248 192.785C288.711 192.456 288.087 192.291 287.376 192.291C286.666 192.291 286.033 192.456 285.478 192.785C284.924 193.097 284.49 193.556 284.178 194.163C283.866 194.752 283.71 195.463 283.71 196.295V204.589H281.76ZM303.009 204.901C301.709 204.901 300.53 204.589 299.473 203.965C298.433 203.324 297.609 202.448 297.003 201.339C296.396 200.23 296.093 198.973 296.093 197.569C296.093 196.165 296.387 194.926 296.977 193.851C297.566 192.759 298.363 191.901 299.369 191.277C300.391 190.653 301.535 190.341 302.801 190.341C303.806 190.341 304.699 190.532 305.479 190.913C306.276 191.277 306.952 191.78 307.507 192.421C308.061 193.045 308.486 193.756 308.781 194.553C309.075 195.333 309.223 196.139 309.223 196.971C309.223 197.144 309.214 197.344 309.197 197.569C309.179 197.777 309.153 197.994 309.119 198.219H297.341V196.399H308.001L307.065 197.179C307.221 196.226 307.108 195.376 306.727 194.631C306.363 193.868 305.834 193.27 305.141 192.837C304.447 192.386 303.667 192.161 302.801 192.161C301.934 192.161 301.128 192.386 300.383 192.837C299.655 193.288 299.083 193.92 298.667 194.735C298.251 195.532 298.086 196.486 298.173 197.595C298.086 198.704 298.259 199.675 298.693 200.507C299.143 201.322 299.75 201.954 300.513 202.405C301.293 202.856 302.125 203.081 303.009 203.081C304.031 203.081 304.889 202.838 305.583 202.353C306.276 201.868 306.839 201.261 307.273 200.533L308.937 201.417C308.659 202.041 308.235 202.622 307.663 203.159C307.091 203.679 306.406 204.104 305.609 204.433C304.829 204.745 303.962 204.901 303.009 204.901ZM332.217 204.901C330.899 204.901 329.703 204.589 328.629 203.965C327.554 203.324 326.696 202.457 326.055 201.365C325.431 200.256 325.119 198.999 325.119 197.595C325.119 196.208 325.431 194.969 326.055 193.877C326.679 192.785 327.519 191.927 328.577 191.303C329.651 190.662 330.865 190.341 332.217 190.341C333.569 190.341 334.773 190.653 335.831 191.277C336.905 191.901 337.746 192.759 338.353 193.851C338.977 194.943 339.289 196.191 339.289 197.595C339.289 199.016 338.968 200.282 338.327 201.391C337.685 202.483 336.827 203.341 335.753 203.965C334.695 204.589 333.517 204.901 332.217 204.901ZM332.217 202.951C333.153 202.951 333.993 202.717 334.739 202.249C335.501 201.781 336.099 201.14 336.533 200.325C336.983 199.51 337.209 198.6 337.209 197.595C337.209 196.59 336.983 195.688 336.533 194.891C336.099 194.094 335.501 193.461 334.739 192.993C333.993 192.525 333.153 192.291 332.217 192.291C331.281 192.291 330.431 192.525 329.669 192.993C328.923 193.461 328.325 194.094 327.875 194.891C327.424 195.688 327.199 196.59 327.199 197.595C327.199 198.6 327.424 199.51 327.875 200.325C328.325 201.14 328.923 201.781 329.669 202.249C330.431 202.717 331.281 202.951 332.217 202.951ZM342.728 204.589V190.653H344.678V192.941L344.418 192.603C344.747 191.944 345.241 191.424 345.9 191.043C346.576 190.662 347.391 190.471 348.344 190.471H349.228V192.421H348.006C347.001 192.421 346.195 192.733 345.588 193.357C344.981 193.981 344.678 194.865 344.678 196.009V204.589H342.728ZM355.543 204.901C354.659 204.901 353.87 204.736 353.177 204.407C352.484 204.06 351.938 203.592 351.539 203.003C351.14 202.414 350.941 201.738 350.941 200.975C350.941 200.247 351.097 199.588 351.409 198.999C351.721 198.392 352.206 197.881 352.865 197.465C353.524 197.049 354.364 196.754 355.387 196.581L360.847 195.671V197.439L355.855 198.271C354.85 198.444 354.122 198.765 353.671 199.233C353.238 199.701 353.021 200.256 353.021 200.897C353.021 201.521 353.264 202.05 353.749 202.483C354.252 202.916 354.893 203.133 355.673 203.133C356.626 203.133 357.458 202.934 358.169 202.535C358.88 202.119 359.434 201.564 359.833 200.871C360.232 200.178 360.431 199.406 360.431 198.557V195.021C360.431 194.189 360.128 193.513 359.521 192.993C358.914 192.473 358.126 192.213 357.155 192.213C356.306 192.213 355.56 192.43 354.919 192.863C354.278 193.279 353.801 193.825 353.489 194.501L351.721 193.539C351.981 192.95 352.388 192.412 352.943 191.927C353.515 191.442 354.165 191.06 354.893 190.783C355.621 190.488 356.375 190.341 357.155 190.341C358.178 190.341 359.079 190.54 359.859 190.939C360.656 191.338 361.272 191.892 361.705 192.603C362.156 193.296 362.381 194.102 362.381 195.021V204.589H360.431V201.807L360.717 202.093C360.474 202.613 360.093 203.09 359.573 203.523C359.07 203.939 358.472 204.277 357.779 204.537C357.103 204.78 356.358 204.901 355.543 204.901ZM364.962 204.589V202.899L373.36 191.849L373.724 192.603H365.404V190.653H375.44V192.343L367.068 203.393L366.704 202.639H375.492V204.589H364.962ZM395.938 204.901C394.603 204.901 393.433 204.563 392.428 203.887C391.422 203.211 390.694 202.292 390.244 201.131L391.882 200.351C392.28 201.2 392.835 201.876 393.546 202.379C394.274 202.882 395.071 203.133 395.938 203.133C396.77 203.133 397.472 202.934 398.044 202.535C398.616 202.119 398.902 201.582 398.902 200.923C398.902 200.438 398.763 200.056 398.486 199.779C398.208 199.484 397.888 199.259 397.524 199.103C397.16 198.947 396.839 198.834 396.562 198.765L394.56 198.193C393.277 197.829 392.35 197.318 391.778 196.659C391.206 196 390.92 195.238 390.92 194.371C390.92 193.556 391.128 192.846 391.544 192.239C391.96 191.632 392.523 191.164 393.234 190.835C393.944 190.506 394.733 190.341 395.6 190.341C396.778 190.341 397.844 190.653 398.798 191.277C399.768 191.884 400.453 192.733 400.852 193.825L399.188 194.605C398.841 193.825 398.338 193.218 397.68 192.785C397.038 192.334 396.319 192.109 395.522 192.109C394.742 192.109 394.118 192.308 393.65 192.707C393.182 193.106 392.948 193.608 392.948 194.215C392.948 194.683 393.069 195.056 393.312 195.333C393.554 195.61 393.832 195.818 394.144 195.957C394.473 196.096 394.759 196.2 395.002 196.269L397.316 196.945C398.442 197.274 399.318 197.786 399.942 198.479C400.583 199.172 400.904 199.987 400.904 200.923C400.904 201.686 400.687 202.37 400.254 202.977C399.838 203.584 399.257 204.06 398.512 204.407C397.766 204.736 396.908 204.901 395.938 204.901ZM402.9 204.589V202.899L411.298 191.849L411.662 192.603H403.342V190.653H413.378V192.343L405.006 203.393L404.642 202.639H413.43V204.589H402.9ZM422.354 204.901C421.054 204.901 419.875 204.589 418.818 203.965C417.778 203.324 416.954 202.448 416.348 201.339C415.741 200.23 415.438 198.973 415.438 197.569C415.438 196.165 415.732 194.926 416.322 193.851C416.911 192.759 417.708 191.901 418.714 191.277C419.736 190.653 420.88 190.341 422.146 190.341C423.151 190.341 424.044 190.532 424.824 190.913C425.621 191.277 426.297 191.78 426.852 192.421C427.406 193.045 427.831 193.756 428.126 194.553C428.42 195.333 428.568 196.139 428.568 196.971C428.568 197.144 428.559 197.344 428.542 197.569C428.524 197.777 428.498 197.994 428.464 198.219H416.686V196.399H427.346L426.41 197.179C426.566 196.226 426.453 195.376 426.072 194.631C425.708 193.868 425.179 193.27 424.486 192.837C423.792 192.386 423.012 192.161 422.146 192.161C421.279 192.161 420.473 192.386 419.728 192.837C419 193.288 418.428 193.92 418.012 194.735C417.596 195.532 417.431 196.486 417.518 197.595C417.431 198.704 417.604 199.675 418.038 200.507C418.488 201.322 419.095 201.954 419.858 202.405C420.638 202.856 421.47 203.081 422.354 203.081C423.376 203.081 424.234 202.838 424.928 202.353C425.621 201.868 426.184 201.261 426.618 200.533L428.282 201.417C428.004 202.041 427.58 202.622 427.008 203.159C426.436 203.679 425.751 204.104 424.954 204.433C424.174 204.745 423.307 204.901 422.354 204.901ZM432.006 204.589V190.653H433.956V192.941L433.696 192.603C434.025 191.944 434.519 191.424 435.178 191.043C435.854 190.662 436.669 190.471 437.622 190.471H438.506V192.421H437.284C436.279 192.421 435.473 192.733 434.866 193.357C434.259 193.981 433.956 194.865 433.956 196.009V204.589H432.006ZM447.135 204.901C445.835 204.901 444.656 204.589 443.599 203.965C442.559 203.324 441.736 202.448 441.129 201.339C440.522 200.23 440.219 198.973 440.219 197.569C440.219 196.165 440.514 194.926 441.103 193.851C441.692 192.759 442.49 191.901 443.495 191.277C444.518 190.653 445.662 190.341 446.927 190.341C447.932 190.341 448.825 190.532 449.605 190.913C450.402 191.277 451.078 191.78 451.633 192.421C452.188 193.045 452.612 193.756 452.907 194.553C453.202 195.333 453.349 196.139 453.349 196.971C453.349 197.144 453.34 197.344 453.323 197.569C453.306 197.777 453.28 197.994 453.245 198.219H441.467V196.399H452.127L451.191 197.179C451.347 196.226 451.234 195.376 450.853 194.631C450.489 193.868 449.96 193.27 449.267 192.837C448.574 192.386 447.794 192.161 446.927 192.161C446.06 192.161 445.254 192.386 444.509 192.837C443.781 193.288 443.209 193.92 442.793 194.735C442.377 195.532 442.212 196.486 442.299 197.595C442.212 198.704 442.386 199.675 442.819 200.507C443.27 201.322 443.876 201.954 444.639 202.405C445.419 202.856 446.251 203.081 447.135 203.081C448.158 203.081 449.016 202.838 449.709 202.353C450.402 201.868 450.966 201.261 451.399 200.533L453.063 201.417C452.786 202.041 452.361 202.622 451.789 203.159C451.217 203.679 450.532 204.104 449.735 204.433C448.955 204.745 448.088 204.901 447.135 204.901ZM463.391 210.309C462.438 210.309 461.554 210.162 460.739 209.867C459.942 209.572 459.248 209.165 458.659 208.645C458.087 208.142 457.645 207.553 457.333 206.877L459.127 205.915C459.404 206.574 459.898 207.146 460.609 207.631C461.32 208.116 462.23 208.359 463.339 208.359C464.188 208.359 464.968 208.194 465.679 207.865C466.39 207.536 466.962 207.05 467.395 206.409C467.828 205.768 468.045 204.979 468.045 204.043V200.949L468.357 201.235C467.872 202.24 467.152 203.02 466.199 203.575C465.246 204.112 464.206 204.381 463.079 204.381C461.779 204.381 460.609 204.069 459.569 203.445C458.529 202.821 457.706 201.98 457.099 200.923C456.51 199.848 456.215 198.661 456.215 197.361C456.215 196.044 456.51 194.856 457.099 193.799C457.706 192.742 458.52 191.901 459.543 191.277C460.583 190.653 461.762 190.341 463.079 190.341C464.206 190.341 465.228 190.601 466.147 191.121C467.083 191.641 467.82 192.343 468.357 193.227L468.045 193.773V190.653H469.995V204.043C469.995 205.239 469.709 206.305 469.137 207.241C468.582 208.194 467.802 208.94 466.797 209.477C465.809 210.032 464.674 210.309 463.391 210.309ZM463.183 202.431C464.084 202.431 464.899 202.206 465.627 201.755C466.355 201.287 466.936 200.672 467.369 199.909C467.82 199.129 468.045 198.28 468.045 197.361C468.045 196.442 467.82 195.602 467.369 194.839C466.936 194.059 466.355 193.444 465.627 192.993C464.899 192.525 464.084 192.291 463.183 192.291C462.264 192.291 461.432 192.525 460.687 192.993C459.942 193.444 459.352 194.05 458.919 194.813C458.503 195.576 458.295 196.425 458.295 197.361C458.295 198.28 458.503 199.129 458.919 199.909C459.352 200.672 459.933 201.287 460.661 201.755C461.406 202.206 462.247 202.431 463.183 202.431ZM2.002 235.589V221.653H3.952V235.589H2.002ZM2.002 219.079V216.219H3.952V219.079H2.002ZM7.94341 235.589V221.653H9.89341V224.357L9.45141 224.253C9.79807 223.352 10.3614 222.641 11.1414 222.121C11.9387 221.601 12.8574 221.341 13.8974 221.341C14.8854 221.341 15.7694 221.566 16.5494 222.017C17.3467 222.468 17.9707 223.092 18.4214 223.889C18.8894 224.669 19.1234 225.553 19.1234 226.541V235.589H17.1734V227.295C17.1734 226.446 17.0174 225.726 16.7054 225.137C16.4107 224.548 15.9861 224.097 15.4314 223.785C14.8941 223.456 14.2701 223.291 13.5594 223.291C12.8487 223.291 12.2161 223.456 11.6614 223.785C11.1067 224.097 10.6734 224.556 10.3614 225.163C10.0494 225.752 9.89341 226.463 9.89341 227.295V235.589H7.94341ZM28.1777 235.745C26.9297 235.745 25.9677 235.381 25.2917 234.653C24.6157 233.925 24.2777 232.885 24.2777 231.533V223.603H21.7037V221.653H22.3537C22.943 221.653 23.411 221.462 23.7577 221.081C24.1044 220.682 24.2777 220.188 24.2777 219.599V218.429H26.2277V221.653H29.2957V223.603H26.2277V231.533C26.2277 232.001 26.297 232.417 26.4357 232.781C26.5744 233.128 26.8084 233.405 27.1377 233.613C27.4844 233.821 27.9437 233.925 28.5157 233.925C28.6544 233.925 28.819 233.916 29.0097 233.899C29.2004 233.882 29.365 233.864 29.5037 233.847V235.589C29.2957 235.641 29.0617 235.676 28.8017 235.693C28.5417 235.728 28.3337 235.745 28.1777 235.745ZM38.764 235.901C37.464 235.901 36.2853 235.589 35.228 234.965C34.188 234.324 33.3646 233.448 32.758 232.339C32.1513 231.23 31.848 229.973 31.848 228.569C31.848 227.165 32.1426 225.926 32.732 224.851C33.3213 223.759 34.1186 222.901 35.124 222.277C36.1466 221.653 37.2906 221.341 38.556 221.341C39.5613 221.341 40.454 221.532 41.234 221.913C42.0313 222.277 42.7073 222.78 43.262 223.421C43.8166 224.045 44.2413 224.756 44.536 225.553C44.8306 226.333 44.978 227.139 44.978 227.971C44.978 228.144 44.9693 228.344 44.952 228.569C44.9346 228.777 44.9086 228.994 44.874 229.219H33.096V227.399H43.756L42.82 228.179C42.976 227.226 42.8633 226.376 42.482 225.631C42.118 224.868 41.5893 224.27 40.896 223.837C40.2026 223.386 39.4226 223.161 38.556 223.161C37.6893 223.161 36.8833 223.386 36.138 223.837C35.41 224.288 34.838 224.92 34.422 225.735C34.006 226.532 33.8413 227.486 33.928 228.595C33.8413 229.704 34.0146 230.675 34.448 231.507C34.8986 232.322 35.5053 232.954 36.268 233.405C37.048 233.856 37.88 234.081 38.764 234.081C39.7866 234.081 40.6446 233.838 41.338 233.353C42.0313 232.868 42.5946 232.261 43.028 231.533L44.692 232.417C44.4146 233.041 43.99 233.622 43.418 234.159C42.846 234.679 42.1613 235.104 41.364 235.433C40.584 235.745 39.7173 235.901 38.764 235.901ZM48.4161 235.589V221.653H50.3661V223.941L50.1061 223.603C50.4354 222.944 50.9294 222.424 51.5881 222.043C52.2641 221.662 53.0787 221.471 54.0321 221.471H54.9161V223.421H53.6941C52.6887 223.421 51.8827 223.733 51.2761 224.357C50.6694 224.981 50.3661 225.865 50.3661 227.009V235.589H48.4161ZM63.5452 235.901C62.2452 235.901 61.0666 235.589 60.0092 234.965C58.9692 234.324 58.1459 233.448 57.5392 232.339C56.9326 231.23 56.6292 229.973 56.6292 228.569C56.6292 227.165 56.9239 225.926 57.5132 224.851C58.1026 223.759 58.8999 222.901 59.9052 222.277C60.9279 221.653 62.0719 221.341 63.3372 221.341C64.3426 221.341 65.2352 221.532 66.0152 221.913C66.8126 222.277 67.4886 222.78 68.0432 223.421C68.5979 224.045 69.0226 224.756 69.3172 225.553C69.6119 226.333 69.7592 227.139 69.7592 227.971C69.7592 228.144 69.7506 228.344 69.7332 228.569C69.7159 228.777 69.6899 228.994 69.6552 229.219H57.8772V227.399H68.5372L67.6012 228.179C67.7572 227.226 67.6446 226.376 67.2632 225.631C66.8992 224.868 66.3706 224.27 65.6772 223.837C64.9839 223.386 64.2039 223.161 63.3372 223.161C62.4706 223.161 61.6646 223.386 60.9192 223.837C60.1912 224.288 59.6192 224.92 59.2032 225.735C58.7872 226.532 58.6226 227.486 58.7092 228.595C58.6226 229.704 58.7959 230.675 59.2292 231.507C59.6799 232.322 60.2866 232.954 61.0492 233.405C61.8292 233.856 62.6612 234.081 63.5452 234.081C64.5679 234.081 65.4259 233.838 66.1192 233.353C66.8126 232.868 67.3759 232.261 67.8092 231.533L69.4732 232.417C69.1959 233.041 68.7712 233.622 68.1992 234.159C67.6272 234.679 66.9426 235.104 66.1452 235.433C65.3652 235.745 64.4986 235.901 63.5452 235.901ZM78.0333 235.901C76.6986 235.901 75.5286 235.563 74.5233 234.887C73.518 234.211 72.79 233.292 72.3393 232.131L73.9773 231.351C74.376 232.2 74.9306 232.876 75.6413 233.379C76.3693 233.882 77.1666 234.133 78.0333 234.133C78.8653 234.133 79.5673 233.934 80.1393 233.535C80.7113 233.119 80.9973 232.582 80.9973 231.923C80.9973 231.438 80.8586 231.056 80.5813 230.779C80.304 230.484 79.9833 230.259 79.6193 230.103C79.2553 229.947 78.9346 229.834 78.6573 229.765L76.6553 229.193C75.3726 228.829 74.4453 228.318 73.8733 227.659C73.3013 227 73.0153 226.238 73.0153 225.371C73.0153 224.556 73.2233 223.846 73.6393 223.239C74.0553 222.632 74.6186 222.164 75.3293 221.835C76.04 221.506 76.8286 221.341 77.6953 221.341C78.874 221.341 79.94 221.653 80.8933 222.277C81.864 222.884 82.5486 223.733 82.9473 224.825L81.2833 225.605C80.9366 224.825 80.434 224.218 79.7753 223.785C79.134 223.334 78.4146 223.109 77.6173 223.109C76.8373 223.109 76.2133 223.308 75.7453 223.707C75.2773 224.106 75.0433 224.608 75.0433 225.215C75.0433 225.683 75.1646 226.056 75.4073 226.333C75.65 226.61 75.9273 226.818 76.2393 226.957C76.5686 227.096 76.8546 227.2 77.0973 227.269L79.4113 227.945C80.538 228.274 81.4133 228.786 82.0373 229.479C82.6786 230.172 82.9993 230.987 82.9993 231.923C82.9993 232.686 82.7826 233.37 82.3493 233.977C81.9333 234.584 81.3526 235.06 80.6073 235.407C79.862 235.736 79.004 235.901 78.0333 235.901ZM91.3658 235.901C90.3952 235.901 89.5112 235.676 88.7138 235.225C87.9165 234.757 87.2838 234.116 86.8158 233.301C86.3652 232.469 86.1398 231.516 86.1398 230.441V221.653H88.0898V230.207C88.0898 230.952 88.2372 231.611 88.5318 232.183C88.8438 232.738 89.2685 233.171 89.8058 233.483C90.3605 233.795 90.9932 233.951 91.7038 233.951C92.4145 233.951 93.0472 233.795 93.6018 233.483C94.1565 233.154 94.5898 232.694 94.9018 232.105C95.2138 231.498 95.3698 230.779 95.3698 229.947V221.653H97.3198V235.589H95.3698V232.885L95.8118 232.989C95.4825 233.89 94.9192 234.601 94.1218 235.121C93.3245 235.641 92.4058 235.901 91.3658 235.901ZM98.7301 241.309C98.6088 241.309 98.4441 241.3 98.2361 241.283C98.0108 241.266 97.8288 241.24 97.6901 241.205V239.411C98.0541 239.463 98.4181 239.489 98.7821 239.489C99.4928 239.489 100.091 239.272 100.576 238.839C101.079 238.406 101.33 237.756 101.33 236.889V221.653H103.28V236.889C103.28 237.842 103.072 238.648 102.656 239.307C102.24 239.966 101.685 240.46 100.992 240.789C100.316 241.136 99.5621 241.309 98.7301 241.309ZM101.33 219.079V216.219H103.28V219.079H101.33ZM111.302 235.901C110.418 235.901 109.629 235.736 108.936 235.407C108.242 235.06 107.696 234.592 107.298 234.003C106.899 233.414 106.7 232.738 106.7 231.975C106.7 231.247 106.856 230.588 107.168 229.999C107.48 229.392 107.965 228.881 108.624 228.465C109.282 228.049 110.123 227.754 111.146 227.581L116.606 226.671V228.439L111.614 229.271C110.608 229.444 109.88 229.765 109.43 230.233C108.996 230.701 108.78 231.256 108.78 231.897C108.78 232.521 109.022 233.05 109.508 233.483C110.01 233.916 110.652 234.133 111.432 234.133C112.385 234.133 113.217 233.934 113.928 233.535C114.638 233.119 115.193 232.564 115.592 231.871C115.99 231.178 116.19 230.406 116.19 229.557V226.021C116.19 225.189 115.886 224.513 115.28 223.993C114.673 223.473 113.884 223.213 112.914 223.213C112.064 223.213 111.319 223.43 110.678 223.863C110.036 224.279 109.56 224.825 109.248 225.501L107.48 224.539C107.74 223.95 108.147 223.412 108.702 222.927C109.274 222.442 109.924 222.06 110.652 221.783C111.38 221.488 112.134 221.341 112.914 221.341C113.936 221.341 114.838 221.54 115.618 221.939C116.415 222.338 117.03 222.892 117.464 223.603C117.914 224.296 118.14 225.102 118.14 226.021V235.589H116.19V232.807L116.476 233.093C116.233 233.613 115.852 234.09 115.332 234.523C114.829 234.939 114.231 235.277 113.538 235.537C112.862 235.78 112.116 235.901 111.302 235.901ZM116.398 241.569C115.462 241.569 114.716 241.326 114.162 240.841C113.624 240.356 113.356 239.723 113.356 238.943C113.356 238.302 113.512 237.721 113.824 237.201C114.153 236.698 114.578 236.256 115.098 235.875C115.618 235.511 116.172 235.242 116.762 235.069H117.568V235.589C117.221 235.676 116.866 235.866 116.502 236.161C116.138 236.456 115.834 236.82 115.592 237.253C115.349 237.704 115.228 238.198 115.228 238.735C115.228 239.064 115.358 239.359 115.618 239.619C115.878 239.879 116.224 240.009 116.658 240.009C116.987 240.009 117.316 239.94 117.646 239.801C117.992 239.662 118.296 239.472 118.556 239.229L119.102 240.607C118.79 240.902 118.382 241.136 117.88 241.309C117.394 241.482 116.9 241.569 116.398 241.569ZM128.52 235.901C127.151 235.901 125.946 235.58 124.906 234.939C123.866 234.298 123.052 233.431 122.462 232.339C121.873 231.23 121.578 229.982 121.578 228.595C121.578 227.208 121.873 225.969 122.462 224.877C123.052 223.785 123.866 222.927 124.906 222.303C125.946 221.662 127.151 221.341 128.52 221.341C129.387 221.341 130.202 221.497 130.964 221.809C131.727 222.121 132.403 222.546 132.992 223.083C133.582 223.603 134.024 224.21 134.318 224.903L132.55 225.813C132.204 225.068 131.675 224.461 130.964 223.993C130.254 223.525 129.439 223.291 128.52 223.291C127.602 223.291 126.77 223.525 126.024 223.993C125.296 224.444 124.716 225.076 124.282 225.891C123.866 226.688 123.658 227.598 123.658 228.621C123.658 229.626 123.866 230.536 124.282 231.351C124.716 232.148 125.296 232.781 126.024 233.249C126.77 233.717 127.602 233.951 128.52 233.951C129.439 233.951 130.245 233.717 130.938 233.249C131.649 232.781 132.186 232.157 132.55 231.377L134.318 232.339C134.024 233.015 133.582 233.622 132.992 234.159C132.403 234.696 131.727 235.121 130.964 235.433C130.202 235.745 129.387 235.901 128.52 235.901ZM138.026 241.309C137.749 241.309 137.463 241.283 137.168 241.231C136.891 241.196 136.614 241.127 136.336 241.023V239.203C136.51 239.22 136.726 239.246 136.986 239.281C137.264 239.333 137.541 239.359 137.818 239.359C138.668 239.359 139.318 239.177 139.768 238.813C140.219 238.466 140.661 237.79 141.094 236.785L141.978 234.705L141.926 236.421L136.024 221.653H138.13L142.966 233.847H142.42L147.23 221.653H149.388L143.018 237.357C142.741 238.033 142.386 238.674 141.952 239.281C141.536 239.888 141.008 240.373 140.366 240.737C139.725 241.118 138.945 241.309 138.026 241.309ZM157.796 235.901C156.426 235.901 155.222 235.58 154.182 234.939C153.142 234.298 152.327 233.431 151.738 232.339C151.148 231.23 150.854 229.982 150.854 228.595C150.854 227.208 151.148 225.969 151.738 224.877C152.327 223.785 153.142 222.927 154.182 222.303C155.222 221.662 156.426 221.341 157.796 221.341C158.662 221.341 159.477 221.497 160.24 221.809C161.002 222.121 161.678 222.546 162.268 223.083C162.857 223.603 163.299 224.21 163.594 224.903L161.826 225.813C161.479 225.068 160.95 224.461 160.24 223.993C159.529 223.525 158.714 223.291 157.796 223.291C156.877 223.291 156.045 223.525 155.3 223.993C154.572 224.444 153.991 225.076 153.558 225.891C153.142 226.688 152.934 227.598 152.934 228.621C152.934 229.626 153.142 230.536 153.558 231.351C153.991 232.148 154.572 232.781 155.3 233.249C156.045 233.717 156.877 233.951 157.796 233.951C158.714 233.951 159.52 233.717 160.214 233.249C160.924 232.781 161.462 232.157 161.826 231.377L163.594 232.339C163.299 233.015 162.857 233.622 162.268 234.159C161.678 234.696 161.002 235.121 160.24 235.433C159.477 235.745 158.662 235.901 157.796 235.901ZM167.016 235.589V215.907H168.966V224.357L168.524 224.253C168.87 223.352 169.434 222.641 170.214 222.121C171.011 221.601 171.93 221.341 172.97 221.341C173.958 221.341 174.842 221.566 175.622 222.017C176.419 222.468 177.043 223.092 177.494 223.889C177.962 224.669 178.196 225.553 178.196 226.541V235.589H176.246V227.295C176.246 226.446 176.09 225.726 175.778 225.137C175.466 224.548 175.032 224.097 174.478 223.785C173.94 223.456 173.325 223.291 172.632 223.291C171.938 223.291 171.314 223.456 170.76 223.785C170.205 224.097 169.763 224.556 169.434 225.163C169.122 225.752 168.966 226.463 168.966 227.295V235.589H167.016ZM184.908 235.589V233.899L193.306 222.849L193.67 223.603H185.35V221.653H195.386V223.343L187.014 234.393L186.65 233.639H195.438V235.589H184.908ZM202.048 235.901C201.164 235.901 200.375 235.736 199.682 235.407C198.988 235.06 198.442 234.592 198.044 234.003C197.645 233.414 197.446 232.738 197.446 231.975C197.446 231.247 197.602 230.588 197.914 229.999C198.226 229.392 198.711 228.881 199.37 228.465C200.028 228.049 200.869 227.754 201.892 227.581L207.352 226.671V228.439L202.36 229.271C201.354 229.444 200.626 229.765 200.176 230.233C199.742 230.701 199.526 231.256 199.526 231.897C199.526 232.521 199.768 233.05 200.254 233.483C200.756 233.916 201.398 234.133 202.178 234.133C203.131 234.133 203.963 233.934 204.674 233.535C205.384 233.119 205.939 232.564 206.338 231.871C206.736 231.178 206.936 230.406 206.936 229.557V226.021C206.936 225.189 206.632 224.513 206.026 223.993C205.419 223.473 204.63 223.213 203.66 223.213C202.81 223.213 202.065 223.43 201.424 223.863C200.782 224.279 200.306 224.825 199.994 225.501L198.226 224.539C198.486 223.95 198.893 223.412 199.448 222.927C200.02 222.442 200.67 222.06 201.398 221.783C202.126 221.488 202.88 221.341 203.66 221.341C204.682 221.341 205.584 221.54 206.364 221.939C207.161 222.338 207.776 222.892 208.21 223.603C208.66 224.296 208.886 225.102 208.886 226.021V235.589H206.936V232.807L207.222 233.093C206.979 233.613 206.598 234.09 206.078 234.523C205.575 234.939 204.977 235.277 204.284 235.537C203.608 235.78 202.862 235.901 202.048 235.901ZM219.189 235.901C217.889 235.901 216.719 235.589 215.679 234.965C214.639 234.324 213.815 233.457 213.209 232.365C212.619 231.256 212.325 230.008 212.325 228.621C212.325 227.217 212.619 225.969 213.209 224.877C213.815 223.785 214.63 222.927 215.653 222.303C216.693 221.662 217.871 221.341 219.189 221.341C220.385 221.341 221.451 221.601 222.387 222.121C223.323 222.641 224.059 223.343 224.597 224.227L224.285 224.773V215.907H226.235V235.589H224.285V232.469L224.597 232.755C224.111 233.76 223.383 234.54 222.413 235.095C221.459 235.632 220.385 235.901 219.189 235.901ZM219.293 233.951C220.229 233.951 221.069 233.717 221.815 233.249C222.577 232.781 223.175 232.148 223.609 231.351C224.059 230.536 224.285 229.626 224.285 228.621C224.285 227.616 224.059 226.714 223.609 225.917C223.175 225.102 222.577 224.461 221.815 223.993C221.069 223.525 220.229 223.291 219.293 223.291C218.374 223.291 217.542 223.525 216.797 223.993C216.051 224.461 215.462 225.094 215.029 225.891C214.613 226.688 214.405 227.598 214.405 228.621C214.405 229.626 214.613 230.536 215.029 231.351C215.462 232.148 216.043 232.781 216.771 233.249C217.516 233.717 218.357 233.951 219.293 233.951ZM234.268 235.901C233.384 235.901 232.596 235.736 231.902 235.407C231.209 235.06 230.663 234.592 230.264 234.003C229.866 233.414 229.666 232.738 229.666 231.975C229.666 231.247 229.822 230.588 230.134 229.999C230.446 229.392 230.932 228.881 231.59 228.465C232.249 228.049 233.09 227.754 234.112 227.581L239.572 226.671V228.439L234.58 229.271C233.575 229.444 232.847 229.765 232.396 230.233C231.963 230.701 231.746 231.256 231.746 231.897C231.746 232.521 231.989 233.05 232.474 233.483C232.977 233.916 233.618 234.133 234.398 234.133C235.352 234.133 236.184 233.934 236.894 233.535C237.605 233.119 238.16 232.564 238.558 231.871C238.957 231.178 239.156 230.406 239.156 229.557V226.021C239.156 225.189 238.853 224.513 238.246 223.993C237.64 223.473 236.851 223.213 235.88 223.213C235.031 223.213 234.286 223.43 233.644 223.863C233.003 224.279 232.526 224.825 232.214 225.501L230.446 224.539C230.706 223.95 231.114 223.412 231.668 222.927C232.24 222.442 232.89 222.06 233.618 221.783C234.346 221.488 235.1 221.341 235.88 221.341C236.903 221.341 237.804 221.54 238.584 221.939C239.382 222.338 239.997 222.892 240.43 223.603C240.881 224.296 241.106 225.102 241.106 226.021V235.589H239.156V232.807L239.442 233.093C239.2 233.613 238.818 234.09 238.298 234.523C237.796 234.939 237.198 235.277 236.504 235.537C235.828 235.78 235.083 235.901 234.268 235.901ZM245.117 235.589V221.653H247.067V224.357L246.625 224.253C246.972 223.352 247.535 222.641 248.315 222.121C249.113 221.601 250.031 221.341 251.071 221.341C252.059 221.341 252.943 221.566 253.723 222.017C254.521 222.468 255.145 223.092 255.595 223.889C256.063 224.669 256.297 225.553 256.297 226.541V235.589H254.347V227.295C254.347 226.446 254.191 225.726 253.879 225.137C253.585 224.548 253.16 224.097 252.605 223.785C252.068 223.456 251.444 223.291 250.733 223.291C250.023 223.291 249.39 223.456 248.835 223.785C248.281 224.097 247.847 224.556 247.535 225.163C247.223 225.752 247.067 226.463 247.067 227.295V235.589H245.117ZM249.589 218.949L251.851 215.049H254.529L251.565 218.949H249.589ZM260.698 235.589V232.729H262.778V235.589H260.698Z" fill="black"/>
</svg>
